<?xml version="1.0" encoding="UTF-8" standalone="no"?>
<svg
   viewBox="0 0 500 125.59"
   version="1.1"
   width="3395"
   height="1137"
   id="svg11"
   sodipodi:docname="quart.svg"
   inkscape:version="1.4 (86a8ad7, 2024-10-11)"
   xmlns:inkscape="http://www.inkscape.org/namespaces/inkscape"
   xmlns:sodipodi="http://sodipodi.sourceforge.net/DTD/sodipodi-0.dtd"
   xmlns="http://www.w3.org/2000/svg"
   xmlns:svg="http://www.w3.org/2000/svg"
   >
  <defs
     id="defs11" />
  <sodipodi:namedview
     id="namedview11"
     pagecolor="#ffffff"
     bordercolor="#000000"
     borderopacity="0.25"
     inkscape:showpageshadow="2"
     inkscape:pageopacity="0.0"
     inkscape:pagecheckerboard="0"
     inkscape:deskcolor="#d1d1d1"
     inkscape:zoom="0.11313708"
     inkscape:cx="10385.631"
     inkscape:cy="-1816.3805"
     inkscape:window-width="3840"
     inkscape:window-height="2054"
     inkscape:window-x="-11"
     inkscape:window-y="-11"
     inkscape:window-maximized="1"
     inkscape:current-layer="svg11" />
  <path
     d="m 29.190542,-11.435872 c 0.655091,10e-4 1.310179,-2.99e-4 1.96527,-0.0013 1.146102,-0.0015 2.292194,-0.0014 3.438296,-3.9e-4 1.704331,0.0016 3.408656,7.54e-4 5.112987,-4.94e-4 3.044449,-0.0022 6.088893,-0.002 9.133342,-7.85e-4 2.664279,10e-4 5.328557,0.0013 7.992837,8.09e-4 0.176859,-3.1e-5 0.353719,-6.3e-5 0.535939,-9.5e-5 0.717967,-1.27e-4 1.435932,-2.57e-4 2.153899,-3.92e-4 5.009209,-9.3e-4 10.018417,-0.0011 15.027625,4.35e-4 0.141508,4.3e-5 0.141508,4.3e-5 0.285876,8.7e-5 1.531856,4.68e-4 3.063713,9.66e-4 4.595569,0.0015 6.074923,0.002 12.149844,0.0019 18.224769,-9.5e-5 1.531097,-4.99e-4 3.062189,-9.94e-4 4.593289,-0.0015 0.14142,-4.3e-5 0.14142,-4.3e-5 0.28571,-8.7e-5 5.09394,-0.0015 10.18788,-0.0012 15.28182,-2.46e-4 0.71665,1.31e-4 1.43329,2.59e-4 2.14994,3.86e-4 0.26467,4.8e-5 0.26467,4.8e-5 0.5347,9.7e-5 2.66233,4.65e-4 5.32466,-7.8e-5 7.987,-0.0011 3.02777,-0.0012 6.05554,-8.75e-4 9.08331,0.0013 1.69367,0.0012 3.38734,0.0013 5.08101,-2.64e-4 1.13229,-9.18e-4 2.26456,-3.42e-4 3.39686,0.0014 0.64446,9.7e-4 1.28891,0.0013 1.93338,-1.66e-4 5.88701,-0.01249 11.05026,0.84351 15.42724,4.9333377 3.48322,3.3816653 4.98849,7.7459126 4.98217,12.4409716 2.4e-4,0.211328 5.4e-4,0.422656 8.9e-4,0.633984 7.8e-4,0.581694 6.9e-4,1.163385 4.4e-4,1.74508 -9e-5,0.632498 6.2e-4,1.264995 0.001,1.8974917 0.001,1.254931 0.001,2.50986 0.001,3.764791 1.3e-4,1.502998 10e-4,3.005995 0.003,4.508993 0.003,3.632797 0.003,7.265594 0.004,10.898392 3.2e-4,1.71857 8.3e-4,3.43714 0.001,5.15571 0.001,5.790682 0.004,11.581365 0.004,17.372049 10e-6,0.276723 4e-5,0.553447 7e-5,0.83017 5e-5,0.554963 9e-5,1.109927 1.4e-4,1.66489 5e-5,0.649712 1e-4,1.299425 1.6e-4,1.949137 2e-5,0.185953 4e-5,0.371905 5e-5,0.557857 4.9e-4,5.970819 0.003,11.941635 0.007,17.912452 0.004,6.405356 0.005,12.810712 0.005,19.216065 2e-5,0.69302 6e-5,1.38603 8e-5,2.07904 2e-5,0.17064 3e-5,0.34128 3e-5,0.51709 1.7e-4,2.74566 10e-4,5.491321 0.004,8.236981 0.003,2.76002 0.003,5.52003 0.001,8.28005 -6.2e-4,1.63937 -7e-5,3.27872 0.003,4.91808 0.001,1.09585 0.001,2.19169 -2.1e-4,3.28753 -7.6e-4,0.62387 -8.6e-4,1.24772 9.3e-4,1.87159 0.001,0.56896 0.001,1.13788 -6.7e-4,1.70683 -3.4e-4,0.2032 1e-5,0.4064 0.001,0.6096 0.0247,4.55025 -1.58303,8.72341 -4.86266,12.01814 -0.10725,0.11191 -0.2144,0.22381 -0.32484,0.33911 -1.53259,1.55165 -3.31703,2.60434 -5.33207,3.47671 -0.15094,0.0658 -0.30189,0.13175 -0.45741,0.19963 -0.8823,0.35497 -1.77546,0.59132 -2.70691,0.78839 -0.1032,0.0223 -0.20648,0.0445 -0.31285,0.0675 -1.76379,0.34617 -3.59383,0.3275 -5.38588,0.32483 -0.21599,1.8e-4 -0.43198,4.2e-4 -0.64797,7.2e-4 -0.58982,6.4e-4 -1.17965,4.5e-4 -1.76948,1e-4 -0.64312,-2.2e-4 -1.28623,3.5e-4 -1.92935,7.3e-4 -1.12596,7e-4 -2.25191,7.3e-4 -3.37788,7.3e-4 -1.6744,-2.1e-4 -3.3488,3.6e-4 -5.02321,7.3e-4 -3.16478,0.001 -6.32956,0.001 -9.49435,0.001 -2.4442,6e-5 -4.8884,3.4e-4 -7.33261,7.2e-4 -0.70392,1.3e-4 -1.40784,2.5e-4 -2.11176,3.7e-4 -0.175,3e-5 -0.35001,6e-5 -0.53031,9e-5 -4.9215,7.3e-4 -9.84301,0.001 -14.76451,0.001 -0.1855,0 -0.37099,0 -0.56211,-1e-5 -0.94014,-1e-5 -1.880275,-2e-5 -2.820415,-3e-5 -0.282949,0 -0.565898,-1e-5 -0.848847,-2e-5 -0.188787,0 -0.377576,0 -0.566364,-1e-5 -5.968754,-8e-5 -11.937507,7.3e-4 -17.906259,0.003 -6.601873,0.002 -13.203745,0.003 -19.805617,0.003 -0.704187,-1e-5 -1.408373,-2e-5 -2.112559,-2e-5 -0.173386,-1e-5 -0.34677,-1e-5 -0.525409,-1e-5 -2.787999,-1e-5 -5.575997,7.3e-4 -8.363997,0.002 -2.802758,0.001 -5.605516,0.001 -8.408275,3.9e-4 -1.664072,-5e-4 -3.32814,-2.5e-4 -4.992212,7.3e-4 -1.112939,7.3e-4 -2.225875,6.4e-4 -3.338814,-3.4e-4 -0.63319,-5.3e-4 -1.266371,-6.4e-4 -1.899559,4.7e-4 -6.552134,0.0107 -12.011132,-0.72929 -16.859621,-5.38536 -3.037384,-3.1012 -4.5373007,-7.13872 -4.5233846,-11.36133 -3.383e-4,-0.21422 -8.005e-4,-0.42843 -0.00137,-0.64264 -0.00122,-0.58779 -6.791e-4,-1.17557 1.493e-4,-1.76337 5.906e-4,-0.63982 -4.576e-4,-1.27963 -0.00129,-1.91944 -0.00124,-1.12111 -0.00142,-2.2422 -9.189e-4,-3.36331 7.505e-4,-1.66715 -1.114e-4,-3.33431 -0.00128,-5.00146 -0.00216,-3.1508 -0.00239,-6.30161 -0.00205,-9.45241 2.59e-4,-2.43311 1.04e-5,-4.866211 -5.975e-4,-7.299301 -8.52e-5,-0.3495 -1.702e-4,-0.69899 -2.551e-4,-1.04848 -1.283e-4,-0.52665 -2.568e-4,-1.0533 -3.864e-4,-1.57994 -0.00119,-4.89704 -0.0018,-9.79408 -0.00122,-14.691116 1.09e-5,-0.09229 2.2e-5,-0.184575 3.34e-5,-0.279668 1.234e-4,-1.029108 2.549e-4,-2.058217 3.89e-4,-3.087325 1.2e-5,-0.09292 2.42e-5,-0.185822 3.66e-5,-0.281548 1.006e-4,-0.771955 1.006e-4,-0.771955 1.475e-4,-1.127223 7.827e-4,-5.942132 -2.836e-4,-11.884272 -0.00294,-17.826407 -6.679e-4,-1.497135 -0.00133,-2.99427 -0.00196,-4.491404 -5.8e-5,-0.138284 -5.8e-5,-0.138284 -1.17e-4,-0.27936 -0.00208,-4.979582 -0.00223,-9.959164 -0.0018,-14.938747 5.59e-5,-0.700503 1.07e-4,-1.401007 1.552e-4,-2.10151 1.28e-5,-0.172483 2.56e-5,-0.344965 3.88e-5,-0.522675 1.65e-4,-2.604072 -7.754e-4,-5.208143 -0.00227,-7.812215 -0.0017,-2.961636 -0.00192,-5.923269 -1.711e-4,-8.884905 9.379e-4,-1.657287 7.058e-4,-3.314565 -0.00121,-4.971852 -0.00117,-1.107431 -7.851e-4,-2.214855 8.45e-4,-3.3222857 8.851e-4,-0.630704 0.00111,-1.261391 -5.464e-4,-1.892094 -0.0015,-0.574829 -0.00101,-1.149624 10e-4,-1.724451 3.829e-4,-0.205633 7.04e-5,-0.411269 -0.00106,-0.616899 -0.023644,-4.37843305 1.7332732,-8.3066318 4.8618132,-11.4533855 0.0968,-0.1018899 0.193605,-0.2037797 0.293341,-0.3087571 1.788836,-1.8225538 4.08767,-3.0755937 6.530284,-3.8903397 0.110852,-0.03789 0.221703,-0.07578 0.335913,-0.114819 2.810074,-0.885375 5.737493,-0.787617 8.655041,-0.780929 z"
     fill="#778ac1"
     id="path1"
     style="stroke-width:0.138827" />
  <path
     d="m 120.43264,21.732443 c 7.3e-4,0.08099 10e-4,0.16197 0.002,0.245409 0.10454,1.079565 0.69422,1.594589 1.512,2.253926 0.15498,0.121143 0.31021,0.241994 0.4657,0.362524 0.13472,0.106984 0.26944,0.213969 0.40825,0.324195 0.25667,0.202876 0.51428,0.40465 0.77285,0.60527 0.37069,0.29399 0.72691,0.598646 1.08166,0.910301 0.48329,0.424453 0.97655,0.830194 1.48493,1.226511 0.50838,0.396318 1.00164,0.802058 1.48494,1.22651 0.59321,0.520486 1.20646,1.009916 1.8302,1.495875 0.51179,0.406886 1.01116,0.82625 1.5109,1.24674 0.2677,0.223471 0.53569,0.446606 0.80392,0.669484 0.20846,0.173777 0.41558,0.34904 0.62245,0.524555 0.48608,0.394062 0.7781,0.608691 1.41091,0.722385 0.91613,-0.183224 1.47428,-0.758927 2.04179,-1.439447 0.13413,-0.157131 0.26837,-0.314168 0.40272,-0.471121 0.10398,-0.122169 0.10398,-0.122169 0.21,-0.246806 0.22514,-0.261192 0.45468,-0.518126 0.68604,-0.774221 0.11521,-0.127704 0.11521,-0.127704 0.23279,-0.257985 0.14865,-0.164396 0.29765,-0.328503 0.44705,-0.492282 0.60231,-0.669886 0.84976,-1.12415 0.97359,-1.999268 0.86151,0.664146 1.58477,1.42891 2.32193,2.216063 0.4,0.423763 0.80718,0.841045 1.21363,1.259051 0.71942,0.741033 1.43299,1.486786 2.14343,2.235827 0.46067,0.48427 0.92642,0.963928 1.39213,1.443705 0.59253,0.610444 1.18258,1.222782 1.76777,1.839766 0.58243,0.613983 1.1694,1.223615 1.75895,1.831249 0.97207,1.001907 1.93788,2.009252 2.90219,3.0181 0.82684,0.864855 1.65611,1.72739 2.48953,2.586373 0.71651,0.738498 1.42729,1.481628 2.13515,2.227843 0.45768,0.48112 0.92016,0.957895 1.38272,1.434655 0.97209,1.001906 1.9379,2.009252 2.9022,3.018101 0.82684,0.864853 1.65612,1.727388 2.48954,2.586372 0.71445,0.736387 1.42325,1.477357 2.12906,2.221454 1.24515,1.321769 1.24515,1.321769 2.52903,2.607933 0.0144,0.364132 0.0195,0.72476 0.0185,1.088974 4.5e-4,0.174117 4.5e-4,0.174117 8.9e-4,0.351752 8e-4,0.394072 5.9e-4,0.788137 3.9e-4,1.182209 3.7e-4,0.283368 7.9e-4,0.566729 0.001,0.850098 10e-4,0.782728 10e-4,1.565463 10e-4,2.348192 2.6e-4,0.842719 0.001,1.68543 0.003,2.528149 0.003,1.941535 0.003,3.883078 0.004,5.82462 3.3e-4,0.959685 8.4e-4,1.919378 0.001,2.879063 0.001,3.285682 0.004,6.571358 0.004,9.85704 4e-5,0.206413 7e-5,0.412834 1.1e-4,0.619247 2e-5,0.206916 5e-5,0.413839 9e-5,0.620755 5e-5,0.415113 1.2e-4,0.830227 1.8e-4,1.24534 2e-5,0.102923 4e-5,0.205843 6e-5,0.311893 5e-4,3.333101 0.003,6.666191 0.007,9.999301 0.004,3.524377 0.005,7.048757 0.005,10.573137 1e-5,0.38737 5e-5,0.77474 8e-5,1.16212 10e-6,0.0954 3e-5,0.19076 3e-5,0.28903 1.7e-4,1.5319 0.001,3.06379 0.004,4.59568 0.003,1.54206 0.003,3.08411 0.001,4.62616 -5.5e-4,0.83466 -4.3e-4,1.66931 0.001,2.50397 0.001,0.76548 0.001,1.53093 -9e-5,2.29641 -2.8e-4,0.27562 1.5e-4,0.55125 0.001,0.82687 0.0202,4.79896 -1.36591,9.08576 -4.86214,12.59807 -0.10724,0.11191 -0.21439,0.22381 -0.32484,0.33911 -1.53259,1.55165 -3.31702,2.60434 -5.33206,3.47671 -0.15094,0.0658 -0.30189,0.13175 -0.45741,0.19963 -0.8823,0.35497 -1.77546,0.59132 -2.70691,0.78839 -0.1032,0.0223 -0.20648,0.0445 -0.31285,0.0675 -0.6492,0.12742 -1.27404,0.18129 -1.936,0.20349 -0.96227,0.0503 -1.88645,0.21214 -2.82877,0.40173 -0.22175,0.0446 -0.22175,0.0446 -0.44798,0.0901 -0.15398,0.031 -0.30798,0.0621 -0.46664,0.094 -5.30483,1.06781 -10.64673,1.7127 -16.04758,2.11463 -0.35702,0.0267 -0.71397,0.054 -1.07093,0.0815 -12.3431,0.93229 -22.3706,-0.78345 -32.00102,-8.64541 -5.606378,-4.62909 -10.740688,-9.7425 -15.758479,-14.95153 -0.243634,-0.25246 -0.487278,-0.50491 -0.73093,-0.75734 -6.31123,-6.54444 -12.402082,-13.26116 -18.290368,-20.16149 0.608866,0 0.90065,0.35197 1.343511,0.71547 4.299889,3.40562 9.713803,5.64386 15.149864,6.67766 0.107701,0.0206 0.215389,0.0412 0.326348,0.0625 2.27115,0.40134 4.555371,0.50447 6.859671,0.49967 0.135319,-8e-5 0.270637,-1.5e-4 0.410056,-2.2e-4 10.024518,-0.0251 18.965117,-4.15779 25.973007,-10.927257 0.71221,-0.69831 1.36475,-1.42733 1.98095,-2.2064 0.0599,-0.0753 0.11977,-0.15056 0.18147,-0.22812 2.34614,-2.96345 4.2198,-6.18455 5.50946,-9.703419 0.13074,-0.352333 0.27458,-0.699276 0.41674,-1.047443 1.82319,-4.905273 2.07842,-10.473927 1.38771,-15.595425 -0.0191,-0.145789 -0.0382,-0.291578 -0.0578,-0.441781 -0.77915,-5.629744 -3.16252,-11.334452 -6.87186,-15.775422 0.21214,-0.469861 0.49556,-0.793635 0.85737,-1.166889 0.46213,-0.485216 0.90543,-0.978051 1.33468,-1.490551 0.51074,-0.608377 1.04463,-1.189718 1.59155,-1.7679 0.3264,-0.353913 0.63663,-0.717016 0.94521,-1.085441 0.54583,-0.650386 1.12211,-1.266522 1.70977,-1.881821 0.45404,-0.487297 0.87891,-0.994696 1.3054,-1.504393 0.42629,-0.497384 0.87531,-0.972881 1.32859,-1.447431 0.36175,-0.395017 0.53512,-0.62506 0.60436,-1.155177 -0.0761,-0.622781 -0.24676,-0.761796 -0.74081,-1.157308 -0.14219,-0.116118 -0.28439,-0.232238 -0.43089,-0.351876 -0.14783,-0.115792 -0.29587,-0.231315 -0.44416,-0.346553 -0.13199,-0.104525 -0.26397,-0.20905 -0.39996,-0.316743 -0.25799,-0.203504 -0.51672,-0.40615 -0.77616,-0.607932 -0.37204,-0.295885 -0.73017,-0.601979 -1.08664,-0.915091 -0.48329,-0.424453 -0.97655,-0.830194 -1.48493,-1.226511 -0.63113,-0.492012 -1.23422,-1.006322 -1.83407,-1.533139 -0.37048,-0.317342 -0.75044,-0.619474 -1.1358,-0.919883 -0.63113,-0.492011 -1.23422,-1.006322 -1.83407,-1.533138 -0.49521,-0.424179 -1.01019,-0.822783 -1.52692,-1.222253 -0.39323,-0.316137 -0.75938,-0.651062 -1.12917,-0.992281 -0.55972,-0.495425 -0.90045,-0.697342 -1.66171,-0.681395 0.55748,-0.665109 1.14828,-1.234423 1.83849,-1.771627 0.0841,0.07431 0.16809,0.148619 0.25467,0.22518 0.63289,0.554861 1.27205,1.09601 1.93738,1.614587 0.63113,0.492011 1.23422,1.006322 1.83407,1.533138 0.37048,0.317342 0.75044,0.619474 1.1358,0.919883 0.63113,0.492011 1.23422,1.006322 1.83407,1.533139 0.37048,0.317341 0.75044,0.619473 1.13579,0.919883 0.63114,0.492011 1.23422,1.006322 1.83407,1.533138 0.49583,0.424705 1.01188,0.823507 1.52803,1.224914 0.38169,0.3051 0.74623,0.622738 1.11038,0.947032 0.94834,0.832231 1.86933,1.600834 3.20797,1.579453 0.77453,-0.09446 1.30591,-0.419005 1.78601,-1.000267 0.42246,-0.765339 0.46342,-1.455524 0.36239,-2.308225 -0.31518,-0.906689 -1.0978,-1.436732 -1.85382,-2.005317 -0.38776,-0.294996 -0.75247,-0.603006 -1.11646,-0.924674 -0.4833,-0.424453 -0.97656,-0.830193 -1.48494,-1.22651 -0.63113,-0.492012 -1.23422,-1.006323 -1.83407,-1.533139 -0.37048,-0.317343 -0.75044,-0.619474 -1.1358,-0.919884 -0.63113,-0.492011 -1.23422,-1.006322 -1.83407,-1.533138 -0.37048,-0.317342 -0.75044,-0.619474 -1.13579,-0.919883 -0.62972,-0.490908 -1.23176,-1.00365 -1.82966,-1.529945 -0.51769,-0.442591 -1.05757,-0.85705 -1.59983,-1.271227 -0.31821,-0.265105 -0.31821,-0.265105 -0.60105,-0.673942 0.24434,-0.258544 0.48892,-0.516873 0.73363,-0.775087 0.0683,-0.07229 0.13654,-0.144578 0.20688,-0.219058 1.25463,-1.322598 1.25463,-1.322598 1.46367,-1.322598 z"
     fill="#140b5b"
     id="path2"
     style="stroke-width:0.138827" />
  <path
     d="m 250.25831,31.408251 c 0.12644,0.103646 0.25303,0.207293 0.38338,0.31408 0.87606,0.729901 1.59757,1.52867 2.30364,2.411499 0.10645,0.130877 0.21293,0.261752 0.32261,0.396594 3.62695,4.542347 4.84755,9.658353 5.11993,15.290928 0.005,0.120037 0.0118,0.240075 0.0176,0.36375 1.24243,26.597947 1.24243,26.597947 -6.45018,37.233812 -1.43635,1.467859 -1.43635,1.467859 -2.12133,1.907909 1.14518,0.0372 2.25129,-0.074 3.3853,-0.22146 0.18397,-0.0237 0.36794,-0.0474 0.5575,-0.0718 1.72317,-0.22973 3.41398,-0.57915 5.10481,-0.972181 0.56553,-0.128732 1.13323,-0.248444 1.70048,-0.369911 0,4.407262 0,8.814522 0,13.355339 -1.1434,-0.003 -2.28679,-0.006 -3.46485,-0.009 -2.53063,-0.003 -5.05903,0.0126 -7.5891,0.067 -3.81309,0.0811 -7.62578,0.0976 -11.43968,0.10257 -0.4537,7.3e-4 -0.90739,0.002 -1.36108,0.004 -4.43374,0.0137 -8.87133,-0.0119 -13.27749,-0.54792 -0.0967,-0.0114 -0.19345,-0.0229 -0.29312,-0.0347 -6.09121,-0.723647 -12.56243,-2.204507 -17.44653,-5.987137 -0.079,-0.061 -0.15801,-0.12192 -0.23941,-0.18473 -0.54567,-0.42506 -1.07531,-0.86444 -1.59907,-1.31434 -0.10999,-0.0943 -0.21986,-0.18867 -0.33313,-0.28587 -5.51706,-5.025906 -7.64941,-13.212645 -7.88255,-20.282882 -0.005,-0.414866 -0.007,-0.829513 -0.005,-1.244408 -2e-4,-0.157115 -3.9e-4,-0.314238 -5.9e-4,-0.476117 -2.9e-4,-0.51985 6.1e-4,-1.039692 0.001,-1.559549 1.9e-4,-0.182369 3.8e-4,-0.364738 5.2e-4,-0.547106 0.003,-3.118647 0.0332,-6.236959 0.0746,-9.355337 0.004,-0.330629 0.009,-0.661259 0.0131,-0.991891 0.24299,-18.793924 0.24299,-18.793924 6.58322,-25.341503 0.22539,-0.234133 0.43385,-0.470724 0.63861,-0.72132 1.72597,-1.919077 4.1623,-3.356179 6.42587,-4.607934 0.09,-0.05038 0.17994,-0.100747 0.27263,-0.152648 1.49369,-0.829814 3.06252,-1.450902 4.67716,-2.027815 0.10699,-0.03832 0.21407,-0.07664 0.32435,-0.116116 2.63299,-0.927573 5.38099,-1.470845 8.16099,-1.79179 0.11077,-0.01304 0.22151,-0.02608 0.33563,-0.03953 9.65084,-0.994217 19.77713,1.569862 27.10029,7.807429 z m -34.58866,9.191312 c -3.27961,3.454238 -4.03092,8.357729 -4.33784,12.851814 -0.0118,0.161585 -0.0227,0.323171 -0.0343,0.489652 -0.19452,3.306486 -0.0711,6.639698 -0.0268,9.950193 0.005,0.42188 0.0104,0.843753 0.0148,1.265641 -0.0408,10.163885 -0.0408,10.163885 4.67357,18.925876 2.93293,2.769569 7.0036,3.494506 10.96465,3.608734 0.1637,0.0058 0.32741,0.01122 0.49607,0.01704 3.76235,0.0673 7.6846,-0.631331 10.53486,-3.151454 0.16024,-0.135707 0.16024,-0.135707 0.32372,-0.274154 3.91177,-3.503961 4.49075,-9.34127 4.76749,-14.171416 0.0445,-1.213371 0.04,-2.427245 0.0375,-3.641206 1.9e-4,-0.338341 4.7e-4,-0.676681 8.2e-4,-1.015022 4.2e-4,-0.703165 -1.7e-4,-1.406316 -0.001,-2.109481 -0.001,-0.890983 -6.8e-4,-1.781944 0.001,-2.672923 0.001,-0.696887 7e-4,-1.393768 -4e-5,-2.090655 -1.8e-4,-0.328103 4e-5,-0.656206 7.1e-4,-0.984309 0.009,-5.53034 -0.21045,-12.016586 -3.99838,-16.513831 -0.099,-0.128591 -0.099,-0.128591 -0.19997,-0.259782 -1.93146,-2.394537 -5.31668,-3.472856 -8.31869,-3.835441 -5.15729,-0.531464 -11.07803,-0.199221 -14.89763,3.610727 z"
     fill="#2a2023"
     id="path3"
     style="stroke-width:0.138827" />
  <path
     d="m 77.864529,45.308708 c -0.02406,0.07466 -0.04812,0.149321 -0.07291,0.226244 -1.475439,4.651035 -1.847196,9.20535 0.485587,13.664629 0.584265,1.055409 1.302007,1.985551 2.132935,2.871442 0.112848,0.121562 0.22569,0.243132 0.341954,0.36838 3.026487,3.088491 7.251296,4.822644 11.641376,4.983765 3.378998,0.06694 6.712829,-0.293434 10.069079,-0.632452 4.07047,-0.410335 4.07047,-0.410335 5.33049,-0.401354 0.18106,7.28e-4 0.18106,7.28e-4 0.36578,0.0022 3.1726,0.05499 6.24505,0.803604 8.58802,2.962034 2.49037,2.576909 3.81314,6.12174 3.73055,9.618316 -0.22511,4.658034 -3.19105,9.02079 -6.1259,12.535541 -0.11175,0.1351 -0.22351,0.27019 -0.33863,0.40937 -0.30738,0.36665 -0.61957,0.72879 -0.93417,1.0897 -0.0632,0.0732 -0.12634,0.14634 -0.19141,0.22172 -1.44787,1.67464 -2.9596,3.21663 -4.75836,4.54805 -0.0793,0.0588 -0.15856,0.11765 -0.24024,0.17826 -1.28047,0.94428 -2.60112,1.78004 -4.00244,2.547317 -0.0815,0.0457 -0.16298,0.0916 -0.24694,0.13874 -7.021473,3.93348 -15.726719,4.64369 -23.512003,2.72311 -5.078879,-1.36444 -9.698768,-3.929737 -13.50431,-7.434917 -0.144714,-0.13323 -0.290118,-0.26576 -0.436144,-0.39766 -1.310539,-1.18687 -2.404655,-2.48235 -3.454489,-3.8874 -0.09315,-0.12261 -0.09315,-0.12261 -0.188171,-0.24768 -2.681385,-3.554715 -4.375088,-7.713782 -5.185875,-12.017443 -0.02479,-0.120332 -0.04959,-0.24067 -0.07514,-0.364651 -1.303169,-6.454311 -0.02029,-13.506368 3.186421,-19.259521 0.04845,-0.08863 0.0969,-0.177253 0.146808,-0.268566 3.499145,-6.379243 9.563354,-11.578588 16.611734,-14.080121 0.353556,-0.09689 0.353556,-0.09689 0.6364,-0.09689 z"
     fill="#140b5b"
     id="path4"
     style="stroke-width:0.138827" />
  <path
     d="m 389.13499,38.767316 c 0,20.327373 0,40.654745 0,61.598094 -3.26685,0 -6.5337,0 -9.89955,0 -1.41423,-2.362157 -2.82845,-4.724327 -4.24268,-7.086497 -0.50322,0 -0.71142,0.12347 -1.1507,0.35507 -0.14703,0.0769 -0.29407,0.15389 -0.44554,0.23316 -0.1587,0.0841 -0.31739,0.1683 -0.4809,0.25499 -0.16632,0.0874 -0.3327,0.17469 -0.49912,0.26192 -0.34235,0.17957 -0.68445,0.35959 -1.02635,0.53999 -0.73052,0.38531 -1.46322,0.76673 -2.19569,1.14859 -0.28027,0.14638 -0.56054,0.29278 -0.84081,0.43918 -0.8916,0.46538 -1.78423,0.92892 -2.67708,1.39206 -0.15041,0.078 -0.30082,0.15609 -0.45579,0.2365 -0.72459,0.37586 -1.44937,0.75141 -2.17452,1.12626 -0.25715,0.13296 -0.51426,0.26599 -0.77135,0.39905 -0.32451,0.16793 -0.6491,0.335687 -0.97379,0.503267 -0.2184,0.11306 -0.2184,0.11306 -0.44119,0.2284 -0.12841,0.0664 -0.25684,0.13272 -0.38916,0.2011 -0.34961,0.18229 -0.34961,0.18229 -0.75161,0.44836 -0.4123,0.0274 -0.80767,0.0386 -1.21976,0.0341 -0.11979,-7.3e-4 -0.23969,-0.002 -0.36317,-0.003 -5.01573,-0.0775 -9.60993,-1.695327 -13.20661,-5.142667 -4.18835,-4.23546 -5.61339,-10.315907 -6.11105,-15.953358 -0.0326,-0.361576 -0.0674,-0.722934 -0.10241,-1.084306 -0.36052,-3.76357 -0.54996,-7.511756 -0.55454,-11.289929 -5e-4,-0.292714 -0.001,-0.58542 -0.003,-0.878134 -0.0131,-3.37757 0.16426,-6.758243 0.86877,-10.075758 0.036,-0.173125 0.0721,-0.346249 0.1092,-0.524621 0.85594,-4.004239 2.29614,-8.391089 5.16759,-11.501999 0.14082,-0.154943 0.14082,-0.154943 0.28448,-0.313016 3.63876,-3.759187 9.68358,-4.477512 14.70627,-4.729306 0.94582,-0.02752 1.89115,-0.01777 2.83715,-0.0039 0.6084,0.0086 1.21683,0.01299 1.82529,0.01772 0.49038,0.0039 0.98076,0.0081 1.47114,0.01237 7.15479,0.0587 14.24874,-0.201041 21.38251,-0.719166 0.11574,-0.0084 0.2315,-0.01679 0.35074,-0.02544 0.21321,-0.01556 0.42639,-0.03133 0.63956,-0.04733 0.44704,-0.03283 0.88487,-0.05189 1.33371,-0.05189 z m -32.55143,16.069209 c -4.42846,4.86922 -4.02097,12.988937 -3.62671,19.054795 0.35183,5.455359 0.35183,5.455359 3.1367,10.081758 1.65498,1.382148 3.7477,1.973658 5.88836,2.219324 0.12971,0.01763 0.25942,0.03525 0.39306,0.05339 1.57669,0.11446 2.72416,-0.583417 4.06175,-1.288425 0.24325,-0.124753 0.4867,-0.249141 0.73034,-0.373173 0.49026,-0.250109 0.97945,-0.501989 1.46785,-0.755457 0.91592,-0.474456 1.84007,-0.933178 2.76499,-1.391063 0.54072,-0.268131 1.08011,-0.538737 1.61983,-0.808761 0.5143,-0.254175 1.0318,-0.50231 1.54877,-0.7514 0,-9.444135 0,-18.888269 0,-28.618587 -9.45162,-0.79495 -9.45162,-0.79495 -17.98494,2.57759 z"
     fill="#2a2023"
     id="path5"
     style="stroke-width:0.138827" />
  <path
     d="m 113.14276,29.551982 c 0.60925,0.102805 0.90107,0.343023 1.31479,0.75752 0.14733,0.138931 0.29502,0.277511 0.44305,0.415757 0.0735,0.0695 0.14702,0.139001 0.22277,0.210607 0.32249,0.295513 0.66626,0.562278 1.01357,0.830117 0.50301,0.390279 0.99001,0.790209 1.46725,1.209476 0.4833,0.424453 0.97656,0.830194 1.48494,1.226511 0.63113,0.492012 1.23422,1.006322 1.83407,1.533139 0.37048,0.317342 0.75044,0.619474 1.1358,0.919883 0.63113,0.492011 1.23422,1.006322 1.83407,1.533138 0.37048,0.317342 0.75044,0.619474 1.13579,0.919883 0.12779,0.100837 0.25559,0.201672 0.38726,0.305564 0.26624,0.209748 0.53406,0.417649 0.80323,0.623902 0.12926,0.103646 0.25851,0.207293 0.39168,0.31408 0.11722,0.0917 0.23444,0.183402 0.35521,0.277882 0.25467,0.318339 0.25467,0.318339 0.33919,0.776683 -0.10612,0.622219 -0.39145,0.947105 -0.82699,1.38994 -0.15714,0.167807 -0.31421,0.335673 -0.47122,0.503593 -0.12104,0.127077 -0.12104,0.127077 -0.24452,0.256721 -0.36931,0.391576 -0.72333,0.795278 -1.07855,1.198696 -0.66624,0.750304 -1.33718,1.496631 -2.00885,2.242415 -0.79875,0.887374 -1.59165,1.779532 -2.38408,2.672146 -1.84788,2.081314 -1.84788,2.081314 -2.68703,2.998137 0.19898,0.421625 0.45179,0.79349 0.72428,1.174176 1.57409,2.203938 2.88001,4.532295 3.94266,7.002564 0.0435,0.0984 0.087,0.196798 0.13175,0.298176 0.64802,1.482558 1.07219,3.014464 1.46809,4.573795 0.0242,0.0945 0.0484,0.18899 0.0734,0.286348 1.49506,5.883365 1.37222,12.682136 -0.72724,18.419479 -0.10602,0.294884 -0.20433,0.591641 -0.30239,0.889067 -2.12229,6.297476 -6.4776,12.263896 -11.95737,16.280543 -0.0749,0.0561 -0.1498,0.11213 -0.22698,0.16989 -2.15607,1.6096 -4.50948,2.95516 -6.98556,4.05477 -0.0965,0.0435 -0.19296,0.0869 -0.29237,0.13168 -3.04433,1.35507 -6.290383,2.27244 -9.607185,2.73017 -0.150115,0.0237 -0.30023,0.0476 -0.454893,0.072 -1.561816,0.23077 -3.103291,0.24918 -4.680505,0.24312 -0.13728,-3e-4 -0.27456,-5.9e-4 -0.416001,-7.3e-4 -9.110387,-0.0312 -17.784998,-3.15528 -24.445595,-9.212847 -0.324122,-0.29207 -0.652184,-0.571 -0.992166,-0.84535 -5.611941,-4.70494 -8.899057,-12.000468 -10.30615,-18.874643 -0.03805,-0.178224 -0.03805,-0.178224 -0.07686,-0.360061 -0.824146,-4.029223 -0.685429,-8.720421 0.218281,-12.722715 0.04546,-0.207615 0.04546,-0.207615 0.09184,-0.419419 1.261216,-5.626512 3.948667,-10.877056 7.827807,-15.252667 0.08842,-0.100485 0.176833,-0.200969 0.267929,-0.304499 1.711715,-1.88696 3.562544,-3.676187 5.671807,-5.146661 0.188935,-0.135209 0.377866,-0.270423 0.566794,-0.405643 1.397082,-0.986828 2.850287,-1.81778 4.382986,-2.592495 0.138435,-0.07157 0.138435,-0.07157 0.279669,-0.144596 5.211819,-2.691332 10.990408,-3.836531 16.876623,-3.841564 0.147393,-1.38e-4 0.147393,-1.38e-4 0.297765,-2.78e-4 1.844094,0.0027 3.637776,0.144009 5.456355,0.443185 0.145203,0.02339 0.290408,0.04677 0.44001,0.07087 2.198774,0.363418 4.418512,0.83598 6.456529,1.73749 0.4131,0.130138 0.61585,0.110128 1.02311,-0.03673 0.34875,-0.289488 0.34875,-0.289488 0.67175,-0.66436 0.0913,-0.100381 0.0913,-0.100381 0.18448,-0.202789 0.52054,-0.576617 1.0195,-1.170606 1.51757,-1.765272 0.30705,-0.358506 0.6247,-0.703611 0.94963,-1.047112 0.44047,-0.465719 0.86152,-0.941037 1.2728,-1.43093 0.41127,-0.489892 0.83232,-0.96521 1.2728,-1.430929 0.42749,-0.452432 0.83794,-0.912748 1.23744,-1.388342 0.53094,-0.631431 1.07484,-1.250596 1.62636,-1.865318 0.0768,-0.08594 0.15359,-0.171874 0.23271,-0.260415 0.14705,-0.163323 0.29529,-0.325657 0.44484,-0.486857 0.1888,-0.204698 0.37138,-0.414671 0.55326,-0.625101 0.36019,-0.280011 0.36019,-0.280011 0.84854,-0.364653 z M 70.086302,49.124519 c -0.07937,0.05529 -0.15874,0.110585 -0.240514,0.167554 -1.169502,0.823115 -2.250594,1.727888 -3.295043,2.694304 -0.07971,0.0731 -0.159423,0.146204 -0.24155,0.221521 -4.08172,3.760609 -6.809432,8.483428 -8.38521,13.678935 -0.0299,0.09508 -0.0598,0.190163 -0.0906,0.288132 -1.186121,3.805438 -1.350056,8.468439 -0.616513,12.385817 0.02048,0.109792 0.04098,0.21959 0.06209,0.33271 0.248356,1.309571 0.509293,2.621851 0.927877,3.891935 0.02886,0.08964 0.0577,0.179273 0.08743,0.271627 1.485599,4.553552 3.99164,8.559049 7.407958,11.993479 0.07107,0.0722 0.142151,0.14441 0.215379,0.2188 1.11916,1.13189 2.301814,2.1198 3.603023,3.0519 0.118308,0.0866 0.118308,0.0866 0.238995,0.17501 5.431567,3.974007 12.112359,5.856897 18.879532,5.846817 0.102698,-8e-5 0.205392,-1.7e-4 0.311199,-2.5e-4 1.553135,-0.004 3.07865,-0.0441 4.612064,-0.29786 0.09975,-0.0154 0.199484,-0.0308 0.302249,-0.0466 6.504222,-1.03423 12.211642,-4.234667 16.951272,-8.538927 0.10355,-0.094 0.2071,-0.18797 0.31378,-0.2848 0.69469,-0.6495 1.3014,-1.35464 1.90472,-2.08305 0.20072,-0.23939 0.40526,-0.47539 0.6105,-0.71121 2.81802,-3.2549 5.5043,-7.043232 6.50487,-11.230233 0.0315,-0.118401 0.0631,-0.236809 0.0956,-0.358801 0.77948,-3.341748 -0.28509,-6.848091 -2.07548,-9.725842 -0.39103,-0.533107 -0.81421,-1.01918 -1.2728,-1.49907 -0.0778,-0.08749 -0.15569,-0.174969 -0.23589,-0.265108 -1.92524,-2.04303 -4.9684,-2.722894 -7.72249,-2.888662 -2.24018,-0.07535 -4.45443,0.159745 -6.67854,0.39045 -0.6606,0.06818 -1.32148,0.133857 -1.9823,0.199988 -0.349028,0.03504 -0.698019,0.07051 -1.046956,0.106478 -1.817765,0.18569 -3.611075,0.301068 -5.438699,0.301942 -0.183031,0.0015 -0.366062,0.0036 -0.554641,0.0051 -1.705612,0.0022 -3.394021,-0.140894 -5.040378,-0.592763 -0.105297,-0.02863 -0.210583,-0.05732 -0.319063,-0.08683 -3.938367,-1.136896 -7.47333,-3.930707 -9.470564,-7.362195 -1.23576,-2.213364 -1.873808,-4.627629 -1.860035,-7.141338 5.93e-4,-0.149222 0.0012,-0.298445 0.0018,-0.452189 0.01733,-1.20642 0.164617,-2.303951 0.466666,-3.474349 0.04819,-0.196051 0.09624,-0.392131 0.144186,-0.588236 0.202998,-0.814428 0.419819,-1.617824 0.704349,-2.409902 -2.471131,0 -5.840157,2.462552 -7.778227,3.815812 z"
     fill="#f9fafa"
     id="path6"
     style="stroke-width:0.138827" />
  <path
     d="m 273.45156,39.176153 c 4.80695,0 9.61389,0 14.5665,0 0.003,1.196744 0.004,2.393489 0.007,3.626499 0.007,3.83623 0.0159,7.672453 0.0261,11.508676 0.001,0.596635 0.003,1.193269 0.005,1.789903 3.1e-4,0.118771 6.2e-4,0.237542 9.5e-4,0.359913 0.005,1.919029 0.009,3.838058 0.0118,5.757088 0.003,1.971487 0.008,3.942967 0.0138,5.914446 0.004,1.214916 0.007,2.429824 0.007,3.644746 7.4e-4,0.834947 0.003,1.669894 0.007,2.504841 0.001,0.480553 0.004,0.961084 0.003,1.441636 -0.001,3.381453 0.05,6.818591 2.4657,9.514549 1.52813,1.347877 3.45286,1.981327 5.51294,1.962739 0.80199,-0.103039 1.4437,-0.500569 2.13269,-0.889541 0.24268,-0.131475 0.48534,-0.262951 0.72819,-0.394121 0.25026,-0.135678 0.49972,-0.272661 0.74908,-0.409847 0.76956,-0.421698 1.55159,-0.821129 2.33231,-1.223183 0.3037,-0.157472 0.60735,-0.315046 0.91095,-0.472715 0.55703,-0.289035 1.11409,-0.577997 1.67122,-0.866851 0.24865,-0.128926 0.4973,-0.257867 0.74594,-0.386815 0.31008,-0.160801 0.62017,-0.321565 0.93029,-0.482293 0.14192,-0.07361 0.28385,-0.147217 0.43007,-0.223057 0.18375,-0.09525 0.18375,-0.09525 0.3712,-0.192436 0.67141,-0.350133 1.34123,-0.703092 2.01143,-1.055367 0.0466,-13.671503 0.0934,-27.343014 0.14143,-41.42881 4.80694,0 9.61389,0 14.5665,0 0,20.192457 0,40.384915 0,61.189257 -3.59354,0 -7.18709,0 -10.88952,0 -1.13774,-2.349317 -1.13774,-2.349317 -1.58162,-3.316997 -0.0489,-0.10601 -0.0976,-0.21201 -0.14794,-0.32122 -0.15141,-0.32883 -0.30253,-0.65778 -0.45365,-0.98674 -0.1045,-0.22705 -0.20899,-0.4541 -0.3135,-0.68113 -0.25221,-0.54795 -0.50418,-1.09602 -0.75601,-1.64413 -0.58113,0 -1.01724,0.24035 -1.53299,0.47431 -0.11103,0.0496 -0.22199,0.0992 -0.33635,0.15032 -0.36425,0.16299 -0.72796,0.32707 -1.09169,0.49115 -0.25343,0.11364 -0.5069,0.22721 -0.76041,0.3407 -0.62755,0.28112 -1.25471,0.56305 -1.88175,0.84521 -0.6196,0.2786 -1.23984,0.55581 -1.86008,0.83309 -0.3054,0.13655 -0.61075,0.27321 -0.91606,0.40997 -1.69495,0.75912 -3.39235,1.5131 -5.08976,2.26707 -0.11168,0.0497 -0.22345,0.0994 -0.33857,0.15057 -0.22043,0.0979 -0.44103,0.19541 -0.66178,0.29261 -0.51566,0.22769 -1.02698,0.460077 -1.53247,0.708137 -0.99934,0.48533 -1.80777,0.81853 -2.94868,0.66848 -0.1156,-0.0103 -0.23124,-0.0205 -0.35037,-0.0311 -3.52775,-0.33916 -6.77027,-1.503687 -9.54918,-3.648447 -0.083,-0.0631 -0.1658,-0.12614 -0.25122,-0.19111 -3.52998,-2.70954 -5.66157,-6.45879 -6.5724,-10.694176 -0.0214,-0.09761 -0.0427,-0.195218 -0.0648,-0.295788 -0.51135,-2.57181 -0.50613,-5.171102 -0.49843,-7.778261 0.001,-0.528168 8.1e-4,-1.056329 5.9e-4,-1.584497 -1.5e-4,-0.911865 7.3e-4,-1.823724 0.003,-2.735582 0.003,-1.318348 0.003,-2.636688 0.004,-3.955043 6.2e-4,-2.139689 0.003,-4.279377 0.005,-6.419073 0.003,-2.076703 0.005,-4.153401 0.005,-6.230104 6e-5,-0.128323 1.4e-4,-0.256647 2.2e-4,-0.388859 3.7e-4,-0.643855 7.3e-4,-1.28771 0.001,-1.931565 0.003,-5.329028 0.008,-10.658049 0.0142,-15.987073 z"
     fill="#2a2123"
     id="path7"
     style="stroke-width:0.138827" />
  <path
     d="m 460.27041,29.772903 c 4.80694,0 9.61389,0 14.5665,0 0,3.957542 0,7.915083 0,11.992551 3.36019,0 6.72038,0 10.18239,0 0,3.507821 0,7.015642 0,10.62976 -3.36018,0 -6.72037,0 -10.18239,0 0.009,4.126124 0.0189,8.252234 0.0324,12.378345 0.001,0.487494 0.003,0.974995 0.005,1.46249 4.7e-4,0.14557 4.7e-4,0.14557 9.4e-4,0.29409 0.005,1.569907 0.009,3.139814 0.0118,4.709728 0.003,1.611746 0.008,3.223478 0.0138,4.835216 0.004,0.904925 0.007,1.809834 0.007,2.714766 8.7e-4,0.852122 0.004,1.704223 0.008,2.556331 0.001,0.312366 0.001,0.624724 0.001,0.93709 -2.4e-4,0.427445 0.003,0.854803 0.005,1.282234 -6.8e-4,0.122757 -0.001,0.245521 -0.003,0.372 0.0152,1.314268 0.33355,2.538864 1.33127,3.48141 1.28987,0.935799 2.81089,0.993769 4.37194,1.010379 0.20637,0.004 0.20637,0.004 0.41692,0.007 0.50735,0.009 1.01473,0.0149 1.52211,0.0215 1.13756,0.0169 2.27513,0.0337 3.44717,0.0511 0,3.91257 0,7.82514 0,11.856267 -1.76178,0.008 -3.52353,0.0169 -5.33869,0.0256 -0.82521,0.006 -0.82521,0.006 -1.6671,0.0113 -5.30394,0.0211 -10.14941,-0.493127 -14.10149,-4.244447 -0.74307,-0.72504 -1.39591,-1.45873 -1.94456,-2.33378 -0.0924,-0.14387 -0.18485,-0.28775 -0.28007,-0.43598 -1.57196,-2.50577 -2.43324,-5.263651 -2.42395,-8.200115 -1.2e-4,-0.140493 -2.5e-4,-0.280993 -3.7e-4,-0.425748 -2.3e-4,-0.46975 5.5e-4,-0.939494 0.001,-1.409244 4e-5,-0.337139 10e-6,-0.674285 -7e-5,-1.011423 -2e-5,-0.725316 3.7e-4,-1.450632 0.001,-2.175948 10e-4,-1.048681 10e-4,-2.097354 10e-4,-3.146034 3.1e-4,-1.701551 0.001,-3.403101 0.003,-5.104651 10e-4,-1.652558 0.003,-3.305116 0.003,-4.957674 3e-5,-0.101925 7e-5,-0.20385 1.1e-4,-0.308863 1.9e-4,-0.511327 3.7e-4,-1.022662 5.4e-4,-1.533997 10e-4,-4.23971 0.004,-8.479421 0.007,-12.719132 -2.00679,0 -4.01357,0 -6.08116,0 0,-3.50782 0,-7.015641 0,-10.62976 2.00678,0 4.01357,0 6.08116,0 0,-3.957542 0,-7.915083 0,-11.992551 z"
     fill="#2a2023"
     id="path8"
     style="stroke-width:0.138827" />
  <path
     d="m 438.68389,38.341112 c 1.95042,-0.08553 3.52416,0.02339 5.18153,1.107599 -0.38923,1.663689 -0.84044,3.303934 -1.32749,4.943307 -0.0718,0.243185 -0.1436,0.486383 -0.21534,0.729593 -0.18661,0.632189 -0.37389,1.264195 -0.56129,1.896165 -0.15355,0.518232 -0.30662,1.036597 -0.45967,1.554969 -0.18289,0.619423 -0.36599,1.238788 -0.54915,1.858136 -0.0347,0.11763 -0.0696,0.235258 -0.10542,0.356453 -0.098,0.331284 -0.19617,0.662529 -0.29439,0.99376 -0.0435,0.147165 -0.0435,0.147165 -0.0879,0.297302 -0.11299,0.380801 -0.22916,0.758679 -0.35915,1.134493 -0.53262,-0.06552 -1.04348,-0.146969 -1.56393,-0.274156 -5.418,-1.166014 -11.16291,1.733644 -15.68959,4.226246 -0.0466,14.256142 -0.0934,28.512286 -0.14142,43.200431 -4.80695,0 -9.61388,0 -14.56649,0 0,-20.192452 0,-40.384907 0,-61.189257 3.59353,0 7.18707,0 10.88951,0 1.33008,2.158659 1.33008,2.158659 2.68703,4.360928 0.18667,0.269832 0.37335,0.539665 0.56568,0.817673 0.86743,-0.267727 1.71263,-0.569175 2.55445,-0.903913 0.1207,-0.04762 0.24133,-0.09523 0.36565,-0.144286 0.39388,-0.155565 0.78752,-0.311719 1.18115,-0.467905 0.27555,-0.109008 0.55113,-0.217993 0.82672,-0.326956 2.27401,-0.899812 4.54558,-1.805387 6.81561,-2.7145 0.21978,-0.08794 0.43965,-0.175694 0.65959,-0.263242 0.46417,-0.185046 0.9258,-0.372892 1.38495,-0.569337 0.96916,-0.411752 1.76264,-0.569064 2.80939,-0.623503 z"
     fill="#2a2023"
     id="path9"
     style="stroke-width:0.138827" />
  <path
     d="m 125.94811,16.962679 c 0.57557,0.349066 1.05916,0.78066 1.55564,1.22651 0.23555,0.204593 0.47124,0.409016 0.70712,0.613256 0.11521,0.101187 0.23042,0.202374 0.34913,0.306628 0.37049,0.317342 0.75045,0.619474 1.1358,0.919883 0.63113,0.492011 1.23422,1.006322 1.83407,1.533139 0.37048,0.317341 0.75044,0.619473 1.1358,0.919883 0.50838,0.396317 1.00163,0.802058 1.48493,1.226511 0.47557,0.417142 0.9595,0.818455 1.45842,1.209475 0.19196,0.15099 0.19196,0.15099 0.3878,0.305031 0.21773,0.17002 0.43564,0.339844 0.65533,0.507519 1.85114,1.414462 1.85114,1.414462 2.16539,2.407041 -0.0456,0.657735 -0.22794,0.996543 -0.67176,1.490552 -0.11377,0.128241 -0.22751,0.256481 -0.34472,0.388608 -0.13253,0.145898 -0.26511,0.291757 -0.39775,0.437583 -0.15627,0.174149 -0.31242,0.348406 -0.46845,0.522758 -0.31351,0.3499 -0.6281,0.69885 -0.94356,1.047112 -0.27798,0.307119 -0.55034,0.617697 -0.8187,0.932659 -0.44573,0.508644 -0.44573,0.508644 -0.88058,0.631888 -0.5465,0.04342 -0.87998,0.0631 -1.35732,-0.210807 -0.11503,-0.09908 -0.23006,-0.198158 -0.34858,-0.300239 -0.13345,-0.112255 -0.26689,-0.224509 -0.40438,-0.340166 -0.0705,-0.06094 -0.14092,-0.121872 -0.21352,-0.184655 -0.30782,-0.264588 -0.62237,-0.521284 -0.93661,-0.778747 -0.25248,-0.207184 -0.50398,-0.415432 -0.75521,-0.624035 -0.49918,-0.414487 -0.99941,-0.827798 -1.49985,-1.240884 -0.16499,-0.136274 -0.32999,-0.272552 -0.49497,-0.408837 -0.0817,-0.06746 -0.16335,-0.134916 -0.24749,-0.204418 -0.90746,-0.749534 -1.81492,-1.499069 -2.72238,-2.248603 -0.0817,-0.06752 -0.16348,-0.135027 -0.2477,-0.204585 -0.16431,-0.135717 -0.32861,-0.271442 -0.4929,-0.407174 -0.4229,-0.349355 -0.84592,-0.698566 -1.26914,-1.047544 -0.41383,-0.341256 -0.82723,-0.682977 -1.24035,-1.025021 -0.19313,-0.159659 -0.38677,-0.318752 -0.58047,-0.477775 -0.101,-0.08362 -0.20199,-0.16724 -0.30604,-0.253394 -0.0839,-0.06904 -0.16772,-0.138078 -0.25412,-0.209209 -0.40426,-0.375943 -0.4873,-0.584205 -0.52371,-1.128028 0.021,-0.650941 0.1374,-1.064192 0.61873,-1.541656 0.0611,-0.05446 0.12214,-0.108916 0.18506,-0.165026 0.40809,-0.402071 0.74889,-0.8604 1.10265,-1.306893 0.0826,-0.09047 0.16517,-0.180943 0.25025,-0.274156 0.0934,0 0.18668,0 0.28285,0 0.0335,-0.07536 0.0671,-0.150726 0.10165,-0.228373 0.22482,-0.39299 0.50437,-0.691964 0.8176,-1.02369 0.1123,-0.119983 0.2246,-0.239968 0.3403,-0.363588 0.53309,-0.526163 1.12104,-0.588848 1.85174,-0.428533 z"
     fill="#f8f9fa"
     id="path10"
     style="stroke-width:0.138827" />
  <path
     d="m 116.23416,23.614796 c 0.13363,-0.002 0.26726,-0.0039 0.40494,-0.0058 0.75746,0.05956 1.22346,0.360369 1.79595,0.82353 0.13581,0.10962 0.27163,0.219239 0.41156,0.33218 0.68185,0.560207 1.35889,1.125775 2.0346,1.692841 0.51131,0.428943 1.02516,0.854944 1.54018,1.279744 0.0811,0.0669 0.16218,0.133797 0.24573,0.202722 0.16338,0.134753 0.32677,0.26949 0.49018,0.404212 0.41194,0.339722 0.82353,0.67983 1.23516,1.019897 0.16499,0.136281 0.32999,0.272559 0.49498,0.408837 2.96987,2.453021 2.96987,2.453021 3.21764,2.657673 0.16406,0.13551 0.32813,0.271013 0.49221,0.406508 0.42672,0.352402 0.85331,0.704951 1.27971,1.057725 0.13207,0.109225 0.13207,0.109225 0.26682,0.220655 0.16688,0.138007 0.33371,0.276057 0.5005,0.414161 0.0764,0.06315 0.15277,0.126308 0.23147,0.191376 0.0738,0.06105 0.14762,0.122092 0.22367,0.184988 0.227,0.185309 0.45728,0.366336 0.68784,0.547511 0.53495,0.440469 0.76487,0.801492 0.8524,1.480438 0.038,0.854397 -0.0545,1.555406 -0.61043,2.242215 -0.67857,0.595926 -1.3023,0.869905 -2.23945,0.855636 -0.97436,-0.120848 -1.74439,-0.787026 -2.44517,-1.400781 -0.18574,-0.158878 -0.37154,-0.317691 -0.5574,-0.476444 -0.0928,-0.07991 -0.18563,-0.159817 -0.28125,-0.242148 -0.41984,-0.359263 -0.84665,-0.710465 -1.27384,-1.061552 -0.16372,-0.135015 -0.32743,-0.270052 -0.49111,-0.405111 -0.0808,-0.0666 -0.16157,-0.133203 -0.2448,-0.201823 -0.41194,-0.339722 -0.82353,-0.67983 -1.23517,-1.019897 -0.16499,-0.13628 -0.32998,-0.272559 -0.49497,-0.408836 -1.64993,-1.362791 -3.29986,-2.72558 -4.94978,-4.08837 -0.0818,-0.06754 -0.1636,-0.135092 -0.24787,-0.204685 -0.16379,-0.135319 -0.32752,-0.270709 -0.49118,-0.406175 -0.43034,-0.356031 -0.86196,-0.710476 -1.29556,-1.062816 -0.09,-0.07343 -0.17993,-0.146862 -0.27262,-0.222518 -0.17195,-0.140297 -0.34429,-0.280152 -0.51708,-0.419484 -0.7349,-0.601078 -1.15189,-1.026216 -1.23496,-1.959011 -0.0141,-0.72514 0.005,-1.24563 0.453,-1.857865 0.65221,-0.618313 1.09125,-0.973424 2.0241,-0.979506 z"
     fill="#f5f6f6"
     id="path11"
     style="stroke-width:0.138827" />
</svg>
