<?xml version="1.0" encoding="UTF-8"?>
<svg class="z__icon" width="25pt" height="25pt" version="1.1" viewBox="0 0 25 25" xmlns="http://www.w3.org/2000/svg">
<defs>
<clipPath id="a">
<path d="m1.043 1.043h22.918v22.918h-22.918z"/>
</clipPath>
</defs>
<g clip-path="url(#a)">
<path d="m11.461 2.0039c-2.1055 0.23828-3.9844 1.0195-5.6094 2.3242-0.44531 0.35938-1.3477 1.2812-1.6719 1.707-0.42578 0.55469-0.86328 1.2578-1.1406 1.832-1.7734 3.6562-1.3438 7.8438 1.1406 11.098 0.32422 0.42578 1.2266 1.3477 1.6719 1.7109 3.1797 2.5586 7.4609 3.0859 11.125 1.3633 2.3672-1.1133 4.2891-3.1328 5.2773-5.5625 1.457-3.5703 0.85938-7.6055-1.5742-10.617-0.17578-0.20703-0.55859-0.625-0.85938-0.91797-1.5898-1.5469-3.5469-2.5195-5.7383-2.8633-0.59766-0.09375-2.0703-0.13281-2.6211-0.074219zm1.9062 0.91406c3.6133 0.35156 6.6758 2.6172 8.0312 5.9219 1.3008 3.1992 0.83203 6.7383-1.2617 9.5156-0.39062 0.52344-1.2578 1.3906-1.7891 1.793-3.043 2.3008-7.1016 2.6133-10.418 0.81641-2.5039-1.3672-4.2461-3.6875-4.8359-6.4531-0.72266-3.4062 0.44531-6.9609 3.0547-9.2344 1.9844-1.7422 4.6484-2.6094 7.2188-2.3594z" fill="#fff"/>
</g>
<path d="m9.6094 8.8516v0.45313h2.2578c1.2422 0 2.2539 0.023437 2.2539 0.042968 0 0.023438-1.0469 1.5-2.332 3.2852l-2.3281 3.2383-0.003907 0.36719v0.37109h6.0859v-0.91406h-2.3594c-1.7344 0-2.3555-0.015624-2.3555-0.054687 0-0.035156 1.0391-1.5156 2.3047-3.293l2.3086-3.2305v-0.72266h-5.832z" fill="#fff"/>
</svg>
