<?xml version="1.0" encoding="UTF-8"?>
<svg class="a__icon" width="25pt" height="25pt" version="1.1" viewBox="0 0 25 25" xmlns="http://www.w3.org/2000/svg">
    <defs>
        <clipPath id="a">
            <path d="m2 1.0391h21v21.961h-21z" />
        </clipPath>
    </defs>
    <g clip-path="url(#a)">
        <path
            d="m10.949 2.0781c-2.3047 0.35547-4.2109 1.3281-5.8828 2.9922-1.5195 1.5195-2.4336 3.2031-2.8984 5.3633-0.13281 0.59766-0.15234 0.89062-0.15234 2.0664 0 1.5039 0.089844 2.1445 0.49609 3.3555 1.0195 3.0586 3.5742 5.6094 6.6289 6.6289 1.2148 0.40625 1.8555 0.5 3.3594 0.5 1.5 0 2.1445-0.09375 3.332-0.49219 3.0898-1.0273 5.6289-3.5664 6.6562-6.6367 0.40625-1.2109 0.49609-1.8516 0.49609-3.3555 0-1.5078-0.089844-2.1484-0.49609-3.3594-1.2461-3.7305-4.5703-6.5-8.4883-7.0664-0.82031-0.12109-2.2656-0.12109-3.0508 0.003906zm3.1562 0.93359c2.9531 0.49219 5.5625 2.4062 6.9414 5.0781 0.39453 0.75 0.80078 1.9844 0.94141 2.8047 0.13672 0.82422 0.13672 2.3828 0 3.2109-0.22656 1.3438-0.85938 2.8633-1.6719 4.0078-0.49609 0.69531-1.5078 1.707-2.1992 2.1992-1.168 0.82812-2.6797 1.4531-4.0703 1.6797-0.94141 0.16016-2.7266 0.11328-3.5859-0.085938-2.9297-0.6875-5.2617-2.5039-6.5898-5.1367-0.33203-0.66797-0.73047-1.9062-0.85938-2.6641-0.13672-0.82812-0.13672-2.3867 0-3.2109 0.56641-3.4062 3.0117-6.3164 6.25-7.4492 0.55469-0.19531 1.4531-0.42578 1.9375-0.49219 0.54297-0.074219 2.3203-0.042969 2.9062 0.058594z"
            fill="#fff" />
    </g>
    <path
        d="m10.5 12.41c-0.81641 2.2344-1.4961 4.0938-1.5195 4.1328-0.019531 0.066406 0.10938 0.085937 0.50781 0.085937h0.53516l0.18359-0.51953c0.10156-0.28125 0.28906-0.8125 0.42188-1.1797l0.23828-0.66406h3.2578l0.24219 0.66406c0.13281 0.36719 0.32422 0.89844 0.42578 1.1797l0.18359 0.51953h0.53516c0.39844 0 0.52734-0.019531 0.50391-0.085937-0.019531-0.039063-0.69922-1.8984-1.5156-4.1328l-1.4922-4.043h-1.0156zm2.6797-0.89844 0.64062 1.8203-0.66016 0.019531c-0.36719 0.007813-0.95312 0.007813-1.3203 0l-0.66016-0.019531 0.64062-1.8203c0.34766-0.99219 0.65234-1.8125 0.67969-1.8125s0.33203 0.82031 0.67969 1.8125z"
        fill="#fff" />
</svg>