
<svg  viewBox="0 0 849 150" fill="none" xmlns="http://www.w3.org/2000/svg">
	<path
		d="M44.024 93.5495C33.4965 93.5495 25.5212 85.2625 25.5212 75.3505C25.5212 65.4386 33.4965 57.1516 44.024 57.1516C49.3407 57.1516 53.9736 59.241 57.5431 63.033C57.9846 63.5021 58.7501 63.4837 59.1374 62.969L70.9629 47.2495C71.251 46.8664 71.2275 46.3316 70.8989 45.9826C63.4577 38.0807 53.4822 33.7529 42.7479 33.7529C16.1102 33.7529 0 52.2769 0 75.3505C0 98.4242 16.1102 116.948 42.7479 116.948C53.4822 116.948 63.4577 112.62 70.8989 104.718C71.2275 104.369 71.251 103.835 70.9629 103.452L59.1374 87.7321C58.7501 87.2173 57.9846 87.199 57.5431 87.668C53.9736 91.46 49.3407 93.5495 44.024 93.5495Z"
		fill="white"
	/>
	<path
		d="M125.009 33.7529C99.0091 33.7529 81.6228 52.2769 81.6228 75.3505C81.6228 98.4242 99.4876 116.948 125.009 116.948C149.573 116.948 168.395 98.4242 168.395 75.3505C168.395 52.2769 149.254 33.7529 125.009 33.7529ZM125.009 93.5495C115.279 93.5495 107.144 85.2625 107.144 75.3505C107.144 65.4386 115.279 57.1516 125.009 57.1516C134.739 57.1516 142.874 65.4386 142.874 75.3505C142.874 85.2625 134.739 93.5495 125.009 93.5495Z"
		fill="#F2C94C"
	/>
	<path
		d="M209.292 37.3528C209.292 36.8005 208.844 36.3528 208.292 36.3528H184.771C184.219 36.3528 183.771 36.8005 183.771 37.3528V113.348C183.771 113.901 184.219 114.348 184.771 114.348H208.292C208.844 114.348 209.292 113.901 209.292 113.348V85.5874C209.292 72.7507 215.832 64.4637 223.329 62.3513C227.548 61.1656 231.635 60.9262 236.073 62.0031C236.722 62.1607 237.365 61.6809 237.365 61.0127V34.8344C237.365 34.2513 236.866 33.7914 236.285 33.8453C222.436 35.1308 214.424 39.8837 209.292 50.8144V37.3528Z"
		fill="white"
	/>
	<path
		d="M288.061 94.1994C285.737 94.1994 283.413 93.9128 281.593 93.2663C280.883 93.014 280.861 92.102 281.504 91.7097L324.772 65.3253C325.139 65.1017 325.32 64.6588 325.22 64.2412C319.128 38.8577 299.923 33.7529 289.018 33.7529C262.381 33.7529 246.27 52.2769 246.27 75.3505C246.27 98.4242 262.381 116.948 289.018 116.948C300.996 116.948 311.305 112.621 319.649 104.72C320.014 104.375 320.056 103.811 319.754 103.41L307.876 87.6207C307.517 87.1433 306.823 87.0863 306.372 87.4776C301.775 91.4611 295.272 94.1994 288.061 94.1994ZM289.018 56.5016C292.766 56.5016 295.306 58.1013 296.743 59.9086C297.086 60.3402 296.931 60.958 296.46 61.2443L272.128 76.0272C271.515 76.3995 270.723 76.0205 270.671 75.3053C269.856 63.9607 278.778 56.5016 289.018 56.5016Z"
		fill="white"
	/>
	<path
		d="M382.73 39.0952C382.73 38.543 382.282 38.0952 381.73 38.0952H360.084C359.532 38.0952 359.084 38.543 359.084 39.0952V146.619C359.084 147.171 359.532 147.619 360.084 147.619H381.73C382.282 147.619 382.73 147.171 382.73 146.619V105.148C382.73 104.212 383.936 103.76 384.605 104.414C389.753 109.443 396.517 111.905 403.863 111.905C424.11 111.905 439.479 94.9405 439.479 73.8095C439.479 52.6786 424.11 35.7143 403.863 35.7143C396.517 35.7143 389.753 38.1764 384.605 43.2047C383.936 43.8586 382.73 43.4071 382.73 42.4712V39.0952ZM399.282 90.4762C390.267 90.4762 382.73 82.8869 382.73 73.8095C382.73 64.7321 390.267 57.1429 399.282 57.1429C408.296 57.1429 415.834 64.7321 415.834 73.8095C415.834 82.8869 408.296 90.4762 399.282 90.4762Z"
		fill="#DCD9F7"
	/>
	<path
		d="M475.902 39.0952C475.902 38.543 475.454 38.0952 474.902 38.0952H453.256C452.704 38.0952 452.256 38.543 452.256 39.0952V108.524C452.256 109.076 452.704 109.524 453.256 109.524H474.902C475.454 109.524 475.902 109.076 475.902 108.524V83.1845C475.902 71.4286 481.961 63.8393 488.907 61.9048C492.787 60.827 496.546 60.603 500.622 61.564C501.271 61.717 501.912 61.2375 501.912 60.5706V36.7947C501.912 36.212 501.414 35.7521 500.834 35.806C489.841 36.8273 482.827 40.1908 478.06 47.4651C477.476 48.357 475.902 47.9693 475.902 46.9031V39.0952Z"
		fill="#DCD9F7"
	/>
	<path
		d="M550.319 35.7143C526.23 35.7143 510.122 52.6786 510.122 73.8095C510.122 94.9405 526.673 111.905 550.319 111.905C573.078 111.905 590.517 94.9405 590.517 73.8095C590.517 52.6786 572.783 35.7143 550.319 35.7143ZM550.319 90.4762C541.304 90.4762 533.767 82.8869 533.767 73.8095C533.767 64.7321 541.304 57.1429 550.319 57.1429C559.334 57.1429 566.871 64.7321 566.871 73.8095C566.871 82.8869 559.334 90.4762 550.319 90.4762Z"
		fill="#DCD9F7"
	/>
	<path
		d="M614.318 28.5714C622.15 28.5714 628.505 22.1726 628.505 14.2857C628.505 6.39881 622.15 0 614.318 0C606.485 0 600.13 6.39881 600.13 14.2857C600.13 22.1726 606.485 28.5714 614.318 28.5714ZM602.495 148.653C602.495 149.324 603.142 149.805 603.784 149.611L625.43 143.072C625.852 142.944 626.141 142.555 626.141 142.115V39.0952C626.141 38.543 625.693 38.0952 625.141 38.0952H603.495C602.943 38.0952 602.495 38.543 602.495 39.0952V148.653Z"
		fill="#DCD9F7"
	/>
	<path
		d="M676.751 91.0714C674.656 91.0714 672.561 90.8228 670.895 90.2638C670.177 90.0226 670.152 89.1071 670.801 88.7158L710.712 64.6598C711.083 64.4366 711.266 63.991 711.164 63.571C705.502 40.3806 687.732 35.7143 677.638 35.7143C652.958 35.7143 638.032 52.6786 638.032 73.8095C638.032 94.9405 652.958 111.905 677.638 111.905C688.708 111.905 698.239 107.962 705.96 100.761C706.331 100.415 706.373 99.8455 706.066 99.4426L695.157 85.1081C694.798 84.6364 694.11 84.5801 693.659 84.9643C689.403 88.586 683.402 91.0714 676.751 91.0714ZM677.638 56.5476C681.061 56.5476 683.397 57.9714 684.738 59.5976C685.091 60.026 684.935 60.6496 684.459 60.9355L662.078 74.3754C661.466 74.7431 660.679 74.3645 660.631 73.6519C659.946 63.3278 668.186 56.5476 677.638 56.5476Z"
		fill="#DCD9F7"
	/>
	<path
		d="M759.207 90.4762C749.454 90.4762 742.064 82.8869 742.064 73.8095C742.064 64.7321 749.454 57.1429 759.207 57.1429C764.104 57.1429 768.375 59.0337 771.674 62.4673C772.117 62.9284 772.875 62.9103 773.263 62.4015L784.121 48.1349C784.414 47.7501 784.39 47.2096 784.056 46.8601C777.167 39.6579 767.946 35.7143 758.025 35.7143C733.345 35.7143 718.419 52.6786 718.419 73.8095C718.419 94.9405 733.345 111.905 758.025 111.905C767.946 111.905 777.167 107.961 784.056 100.759C784.39 100.409 784.414 99.869 784.121 99.4842L773.263 85.2176C772.875 84.7087 772.117 84.6906 771.674 85.1518C768.375 88.5854 764.104 90.4762 759.207 90.4762Z"
		fill="#DCD9F7"
	/>
	<path
		d="M805.866 108.524C805.866 109.076 806.314 109.524 806.866 109.524H828.512C829.064 109.524 829.512 109.076 829.512 108.524V60.5238C829.512 59.9715 829.959 59.5238 830.512 59.5238H847.428C847.981 59.5238 848.428 59.0761 848.428 58.5238V39.0952C848.428 38.543 847.981 38.0952 847.428 38.0952H830.512C829.959 38.0952 829.512 37.6475 829.512 37.0952V10.8705C829.512 10.1999 828.865 9.71931 828.223 9.91324L806.577 16.4519C806.155 16.5794 805.866 16.9683 805.866 17.4092V37.0952C805.866 37.6475 805.418 38.0952 804.866 38.0952H795.043C794.491 38.0952 794.043 38.543 794.043 39.0952V58.5238C794.043 59.0761 794.491 59.5238 795.043 59.5238H804.866C805.418 59.5238 805.866 59.9715 805.866 60.5238V108.524Z"
		fill="#DCD9F7"
	/>
	<circle cx="614.754" cy="14.7541" r="14.7541" fill="#EDD68D" />
</svg>