<?xml version="1.0" encoding="UTF-8" standalone="no"?>
<svg
   viewBox="0 0 25 25"
   fill="none"
   version="1.1"
   id="svg1"
   sodipodi:docname="CoreIcon.svg"
   inkscape:version="1.4 (86a8ad7, 2024-10-11)"
   xml:space="preserve"
   xmlns:inkscape="http://www.inkscape.org/namespaces/inkscape"
   xmlns:sodipodi="http://sodipodi.sourceforge.net/DTD/sodipodi-0.dtd"
   xmlns="http://www.w3.org/2000/svg"
   xmlns:svg="http://www.w3.org/2000/svg"><defs
     id="defs1">
	
	
	
	
</defs><sodipodi:namedview
     id="namedview1"
     pagecolor="#ffffff"
     bordercolor="#000000"
     borderopacity="0.25"
     inkscape:showpageshadow="2"
     inkscape:pageopacity="0.0"
     inkscape:pagecheckerboard="0"
     inkscape:deskcolor="#d1d1d1"
     inkscape:zoom="18.15"
     inkscape:cx="11.019284"
     inkscape:cy="-3.553719"
     inkscape:window-width="3840"
     inkscape:window-height="2054"
     inkscape:window-x="-11"
     inkscape:window-y="-11"
     inkscape:window-maximized="1"
     inkscape:current-layer="g1" /><g
     style="fill:#000000"
     id="g1"
     transform="matrix(0.05725242,0,0,0.0600415,2.0121187,1.5886745)"><g
       id="g7"
       transform="translate(3.8493687,-34.87028)"><path
         fill-rule="evenodd"
         clip-rule="evenodd"
         d="m 12.472451,24.433579 c 2.940169,0 5.323692,-2.52117 5.323692,-5.631298 0,-3.110053 -2.383523,-5.631276 -5.323692,-5.631276 -2.940196,0 -5.3236907,2.521223 -5.3236907,5.631276 0,3.110128 2.3834947,5.631298 5.3236907,5.631298 z m -0.0018,-3.127848 c 1.306718,0 2.366061,-1.120553 2.366061,-2.502849 0,-1.382221 -1.059343,-2.502775 -2.366061,-2.502775 -1.306789,0 -2.36609,1.120554 -2.36609,2.502775 0,1.382296 1.059301,2.502849 2.36609,2.502849 z"
         fill="#7569e1"
         id="path1"
         style="stroke-width:0.730045"
         transform="matrix(17.466511,0,0,16.655147,-35.144693,-26.459607)" /><path
         d="m 182.946,106.873 c -50.938,0 -99.694,21.749 -133.77,59.67 -6.807,7.576 -6.185,19.236 1.392,26.044 3.523,3.166 7.929,4.725 12.32,4.725 5.051,-0.001 10.082,-2.063 13.723,-6.116 27.091,-30.148 65.849,-47.439 106.336,-47.439 40.487,0 79.246,17.291 106.338,47.438 6.808,7.576 18.468,8.198 26.043,1.391 7.576,-6.808 8.198,-18.468 1.391,-26.043 -34.078,-37.922 -82.836,-59.67 -133.773,-59.67 z"
         id="path2"
         style="fill:#f2c94c;fill-opacity:0.899696;stroke-width:1.0063;stroke-dasharray:none"
         inkscape:label="path1" /><path
         d="M 360.611,112.293 C 313.402,64.201 250.306,37.716 182.946,37.716 c -67.357,0 -130.453,26.485 -177.664,74.579 -7.135,7.269 -7.027,18.944 0.241,26.079 3.59,3.524 8.255,5.282 12.918,5.281 4.776,0 9.551,-1.845 13.161,-5.522 40.22,-40.971 93.968,-63.534 151.344,-63.534 57.379,0 111.127,22.563 151.343,63.532 7.136,7.269 18.812,7.376 26.08,0.242 7.268,-7.135 7.376,-18.811 0.242,-26.08 z"
         id="path3"
         style="fill:#f2c94c;fill-opacity:0.586626"
         inkscape:label="path2" /></g></g></svg>