<svg xmlns="http://www.w3.org/2000/svg" width="132" height="20" fill="none" viewBox="0 0 132 20"><path fill="#fff" d="M10.912 19.7753C11.4643 19.7753 11.912 19.3276 11.912 18.7753V13.427C11.912 8.37079 9.29249 6.51685 6.17661 6.51685C4.54377 6.51685 3.26248 6.92613 2.29359 7.42579C1.85055 7.65427 1.70348 8.19993 1.91771 8.65003L2.40075 9.66494C2.65214 10.1931 3.29841 10.3837 3.84132 10.1659C4.41308 9.93651 5.05315 9.77528 5.73542 9.77528C6.73301 9.77528 7.42021 10.0223 7.83732 10.5105C8.29283 11.0436 7.60158 11.6438 6.90756 11.5435C3.3015 11.0223 0 12.5648 0 15.6461C0 18.0056 1.7096 20 4.7979 20C5.95425 20 6.89412 19.6377 7.66382 19.0664C7.94303 18.8592 8.38254 19.0424 8.38254 19.3902C8.38254 19.6029 8.55497 19.7753 8.76767 19.7753H10.912ZM7.53985 14.2884C8.02791 14.3998 8.33021 14.8999 8.11861 15.3535C7.57853 16.5115 6.45425 17.191 5.45968 17.191C4.38429 17.191 3.52949 16.6292 3.52949 15.6461C3.52949 14.3635 5.20927 13.7564 7.53985 14.2884Z"/><path fill="#fff" d="M21.6155 6.51685C20.4216 6.51685 19.5936 6.88973 19.0037 7.36581C18.75 7.57049 18.3066 7.40819 18.3066 7.08226C18.3066 6.8941 18.1541 6.74157 17.966 6.74157H15.7772C15.2249 6.74157 14.7772 7.18929 14.7772 7.74157V18.7753C14.7772 19.3276 15.2249 19.7753 15.7772 19.7753H17.3066C17.8589 19.7753 18.3066 19.3276 18.3066 18.7753V13.0337C18.3066 10.7303 19.7129 9.88764 20.7332 9.88764C21.8086 9.88764 23.1597 10.3652 23.1597 12.5843V18.7753C23.1597 19.3276 23.6074 19.7753 24.1597 19.7753H25.6892C26.2415 19.7753 26.6892 19.3276 26.6892 18.7753V12.5843C26.6892 8.37079 24.4005 6.51685 21.6155 6.51685Z"/><path fill="#fff" d="M31.3253 4.49438C32.5386 4.49438 33.5312 3.48315 33.5312 2.24719C33.5312 1.01124 32.5386 0 31.3253 0C30.112 0 29.1194 1.01124 29.1194 2.24719C29.1194 3.48315 30.112 4.49438 31.3253 4.49438ZM29.5606 18.7753C29.5606 19.3276 30.0083 19.7753 30.5606 19.7753H32.09C32.6423 19.7753 33.09 19.3276 33.09 18.7753V7.74157C33.09 7.18929 32.6423 6.74157 32.09 6.74157H30.5606C30.0083 6.74157 29.5606 7.18929 29.5606 7.74157V18.7753Z"/><path fill="#fff" d="M50.6285 6.51685C49.5715 6.51685 48.6695 6.78012 47.896 7.3517C47.3429 7.7604 46.5058 7.73059 45.9607 7.31138C45.2753 6.78436 44.4389 6.51685 43.4592 6.51685C42.3412 6.51685 41.4329 6.77991 40.6357 7.40664C40.3698 7.61568 39.9297 7.44431 39.9297 7.10608C39.9297 6.90477 39.7665 6.74157 39.5652 6.74157H37.4002C36.848 6.74157 36.4002 7.18929 36.4002 7.74157V18.7753C36.4002 19.3276 36.848 19.7753 37.4002 19.7753H38.9297C39.482 19.7753 39.9297 19.3276 39.9297 18.7753V13.0337C39.9297 10.5056 41.336 9.88764 42.246 9.88764C43.2111 9.88764 44.3416 10.3652 44.3416 12.5843V18.7753C44.3416 19.3276 44.7893 19.7753 45.3416 19.7753H46.8711C47.4234 19.7753 47.8711 19.3276 47.8711 18.7753V13.0337C47.8711 10.5056 49.1946 9.88764 50.077 9.88764C51.0421 9.88764 52.283 10.3652 52.283 12.5843V18.7753C52.283 19.3276 52.7307 19.7753 53.283 19.7753H54.8124C55.3647 19.7753 55.8124 19.3276 55.8124 18.7753V12.5843C55.8124 8.37079 53.6341 6.51685 50.6285 6.51685Z"/><path fill="#fff" d="M64.9507 16.6292C64.8747 16.6292 64.8005 16.6278 64.7279 16.6248C63.9796 16.5947 63.9171 15.738 64.5539 15.3436L70.1963 11.8494C70.5694 11.6183 70.7547 11.1683 70.6061 10.7554C69.4093 7.42917 66.5231 6.51685 64.8955 6.51685C60.6215 6.51685 58.0296 9.55056 58.0296 13.2584C58.0296 16.9382 60.6767 20 64.8955 20C66.5646 20 68.0332 19.4896 69.3015 18.4862C69.6872 18.181 69.7319 17.6261 69.4472 17.2251L68.7952 16.307C68.4226 15.7823 67.6482 15.7465 67.088 16.0632C66.4335 16.4331 65.6751 16.6292 64.9507 16.6292ZM64.9507 9.88764C65.2575 9.88764 65.5318 9.93725 65.7767 10.0254C66.3622 10.236 66.2528 10.9949 65.7186 11.3138L62.0515 13.503C61.8439 13.6269 61.5591 13.5002 61.5591 13.2584C61.5591 11.4045 62.9653 9.88764 64.9507 9.88764Z"/><path fill="#DCD9F7" d="M82.5607 15.7303C80.7408 15.7303 79.3621 14.2978 79.3621 12.5843C79.3621 10.8708 80.7408 9.4382 82.5607 9.4382C83.1144 9.4382 83.6253 9.56931 84.0788 9.8169C84.6442 10.1255 85.4129 10.1255 85.8001 9.61075L86.8071 8.27213C87.0953 7.88912 87.0761 7.34898 86.715 7.03375C85.496 5.96944 83.9686 5.39326 82.3401 5.39326C77.7352 5.39326 74.9502 8.59551 74.9502 12.5843C74.9502 16.573 77.7352 19.7753 82.3401 19.7753C83.9686 19.7753 85.496 19.1991 86.715 18.1348C87.0761 17.8196 87.0953 17.2794 86.8071 16.8964L85.8001 15.5578C85.4129 15.043 84.6442 15.043 84.0788 15.3516C83.6253 15.5992 83.1144 15.7303 82.5607 15.7303Z"/><path fill="#F2C94C" d="M96.5606 5.39326C92.066 5.39326 89.0604 8.59551 89.0604 12.5843C89.0604 16.573 92.1488 19.7753 96.5606 19.7753C100.807 19.7753 104.061 16.573 104.061 12.5843C104.061 8.59551 100.752 5.39326 96.5606 5.39326ZM96.5606 15.7303C94.8786 15.7303 93.4723 14.2978 93.4723 12.5843C93.4723 10.8708 94.8786 9.4382 96.5606 9.4382C98.2426 9.4382 99.6489 10.8708 99.6489 12.5843C99.6489 14.2978 98.2426 15.7303 96.5606 15.7303Z"/><path fill="#DCD9F7" d="M111.131 6.8427C111.131 6.29041 110.683 5.8427 110.131 5.8427H107.719C107.167 5.8427 106.719 6.29041 106.719 6.8427V18.3258C106.719 18.8781 107.167 19.3258 107.719 19.3258H110.131C110.683 19.3258 111.131 18.8781 111.131 18.3258V14.3539C111.131 12.1348 112.261 10.7022 113.557 10.3371C113.928 10.2329 114.293 10.171 114.663 10.1597C115.331 10.1394 115.984 9.66674 115.984 8.99851V6.47469C115.984 5.89161 115.485 5.42411 114.911 5.52776C113.05 5.86387 111.902 6.69947 111.131 8.3427V6.8427Z"/><path fill="#DCD9F7" d="M124.748 15.8427C124.103 15.8427 124.032 15.1573 124.583 14.8215L130.586 11.1607C130.953 10.9371 131.141 10.501 131.015 10.0904C129.821 6.19781 126.713 5.39326 124.913 5.39326C120.308 5.39326 117.523 8.59551 117.523 12.5843C117.523 16.573 120.308 19.7753 124.913 19.7753C126.729 19.7753 128.323 19.2 129.661 18.1372C130.054 17.825 130.092 17.2562 129.79 16.8551L128.73 15.4464C128.371 14.969 127.676 14.9193 127.155 15.2125C126.465 15.6013 125.638 15.8427 124.748 15.8427ZM124.913 9.32584C125.17 9.32584 125.393 9.36917 125.585 9.44089C126.102 9.63369 125.966 10.2878 125.494 10.5741L123.063 12.0513C122.45 12.4236 121.66 12.021 121.892 11.3424C122.319 10.0924 123.548 9.32584 124.913 9.32584Z"/><circle cx="31.2" cy="2.4" r="2.4" fill="#EDD68D"/></svg>
