<svg xmlns="http://www.w3.org/2000/svg" width="28" height="40" fill="none" viewBox="0 0 28 40"><g filter="url(#filter0_d_2645_3797)"><path fill="#7569E1" fill-rule="evenodd" d="M14 31.9999C19.5228 31.9999 24 27.5536 24 22.0689C24 16.5841 19.5228 12.1378 14 12.1378C8.47715 12.1378 4 16.5841 4 22.0689C4 27.5536 8.47715 31.9999 14 31.9999ZM13.9991 26.4828C16.4537 26.4828 18.4436 24.5067 18.4436 22.069C18.4436 19.6313 16.4537 17.6552 13.9991 17.6552C11.5445 17.6552 9.55469 19.6313 9.55469 22.069C9.55469 24.5067 11.5445 26.4828 13.9991 26.4828Z" clip-rule="evenodd"/><ellipse cx="13.999" cy="3.31" fill="#DCD9F7" rx="3.333" ry="3.31"/></g><defs><filter id="filter0_d_2645_3797" width="28" height="40" x="0" y="0" color-interpolation-filters="sRGB" filterUnits="userSpaceOnUse"><feFlood flood-opacity="0" result="BackgroundImageFix"/><feColorMatrix in="SourceAlpha" result="hardAlpha" type="matrix" values="0 0 0 0 0 0 0 0 0 0 0 0 0 0 0 0 0 0 127 0"/><feOffset dy="4"/><feGaussianBlur stdDeviation="2"/><feComposite in2="hardAlpha" operator="out"/><feColorMatrix type="matrix" values="0 0 0 0 0 0 0 0 0 0 0 0 0 0 0 0 0 0 0.25 0"/><feBlend in2="BackgroundImageFix" mode="normal" result="effect1_dropShadow_2645_3797"/><feBlend in="SourceGraphic" in2="effect1_dropShadow_2645_3797" mode="normal" result="shape"/></filter></defs></svg>
