<svg xmlns="http://www.w3.org/2000/svg" width="24" height="24" fill="none" viewBox="0 0 24 24"><g clip-path="url(#clip0_2608_3815)"><path fill="currentColor" d="M12 2C6.48 2 2 6.48 2 12C2 17.52 6.48 22 12 22C17.52 22 22 17.52 22 12C22 6.48 17.52 2 12 2ZM12 20C7.59 20 4 16.41 4 12C4 7.59 7.59 4 12 4C16.41 4 20 7.59 20 12C20 16.41 16.41 20 12 20ZM7.65317 15.0185C7.26027 15.864 8.13598 16.7397 8.98146 16.3468L13.3472 14.318C13.7752 14.1191 14.1191 13.7752 14.318 13.3472L16.3468 8.98146C16.7397 8.13599 15.864 7.26026 15.0185 7.65317L10.6528 9.68197C10.2248 9.88089 9.88089 10.2248 9.68197 10.6528L7.65317 15.0185ZM12 10.9C12.61 10.9 13.1 11.39 13.1 12C13.1 12.61 12.61 13.1 12 13.1C11.39 13.1 10.9 12.61 10.9 12C10.9 11.39 11.39 10.9 12 10.9Z"/></g><defs><clipPath id="clip0_2608_3815"><rect width="24" height="24" fill="currentColor"/></clipPath></defs></svg>
