<svg xmlns="http://www.w3.org/2000/svg" width="20" height="20" fill="none" viewBox="0 0 20 20"><g clip-path="url(#clip0_2608_3832)"><path fill="currentColor" d="M16.667 5.00002H16.3337C16.0575 5.00002 15.8337 5.22388 15.8337 5.50002V11.6667C15.8337 12.125 15.4587 12.5 15.0003 12.5H5.50033C5.22418 12.5 5.00033 12.7239 5.00033 13V13.3334C5.00033 14.25 5.75033 15 6.66699 15H14.7932C14.9258 15 15.053 15.0527 15.1468 15.1465L17.4801 17.4798C17.7951 17.7948 18.3337 17.5717 18.3337 17.1262V6.66669C18.3337 5.75002 17.5837 5.00002 16.667 5.00002ZM14.167 9.16669V3.33335C14.167 2.41669 13.417 1.66669 12.5003 1.66669H3.33366C2.41699 1.66669 1.66699 2.41669 1.66699 3.33335V12.9596C1.66699 13.405 2.20556 13.6281 2.52055 13.3131L4.85388 10.9798C4.94765 10.886 5.07482 10.8334 5.20743 10.8334H12.5003C13.417 10.8334 14.167 10.0834 14.167 9.16669Z"/></g><defs><clipPath id="clip0_2608_3832"><rect width="20" height="20" fill="currentColor"/></clipPath></defs></svg>
