<svg width="20" height="20" viewBox="0 0 20 20" fill="none" xmlns="http://www.w3.org/2000/svg">
    <g clip-path="url(#clip0_2587_5123)">
        <path
            d="M10.0003 1.66666C5.40033 1.66666 1.66699 5.39999 1.66699 9.99999C1.66699 14.6 5.40033 18.3333 10.0003 18.3333C14.6003 18.3333 18.3337 14.6 18.3337 9.99999C18.3337 5.39999 14.6003 1.66666 10.0003 1.66666ZM10.0003 16.6667C6.32533 16.6667 3.33366 13.675 3.33366 9.99999C3.33366 6.32499 6.32533 3.33332 10.0003 3.33332C13.6753 3.33332 16.667 6.32499 16.667 9.99999C16.667 13.675 13.6753 16.6667 10.0003 16.6667ZM9.16699 13.3333H10.8337V15H9.16699V13.3333ZM10.5087 5.03332C8.79199 4.78332 7.27533 5.84166 6.81699 7.35832C6.66699 7.84166 7.03366 8.33332 7.54199 8.33332H7.70866C8.05033 8.33332 8.32533 8.09166 8.44199 7.77499C8.70866 7.03332 9.50033 6.52499 10.3587 6.70832C11.1503 6.87499 11.7337 7.64999 11.667 8.45832C11.5837 9.57499 10.317 9.81666 9.62533 10.8583C9.62533 10.8667 9.61699 10.8667 9.61699 10.875C9.60866 10.8917 9.60033 10.9 9.59199 10.9167C9.51699 11.0417 9.44199 11.1833 9.38366 11.3333C9.37533 11.3583 9.35866 11.375 9.35033 11.4C9.34199 11.4167 9.34199 11.4333 9.33366 11.4583C9.23366 11.7417 9.16699 12.0833 9.16699 12.5H10.8337C10.8337 12.15 10.9253 11.8583 11.067 11.6083C11.0837 11.5833 11.092 11.5583 11.1087 11.5333C11.1753 11.4167 11.2587 11.3083 11.342 11.2083C11.3503 11.2 11.3587 11.1833 11.367 11.175C11.4503 11.075 11.542 10.9833 11.642 10.8917C12.442 10.1333 13.5253 9.51666 13.3003 7.92499C13.1003 6.47499 11.9587 5.24999 10.5087 5.03332Z"
            fill="currentColor" />
    </g>
    <defs>
        <clipPath id="clip0_2587_5123">
            <rect width="20" height="20" fill="currentColor" />
        </clipPath>
    </defs>
</svg>
