<svg xmlns="http://www.w3.org/2000/svg" width="24" height="24" fill="none" viewBox="0 0 24 24"><g clip-path="url(#clip0_2596_3897)"><path fill="currentColor" d="M9.99961 19V15C9.99961 14.4477 10.4473 14 10.9996 14H12.9996C13.5519 14 13.9996 14.4477 13.9996 15V19C13.9996 19.55 14.4496 20 14.9996 20H17.9996C18.5496 20 18.9996 19.55 18.9996 19V13C18.9996 12.4477 19.4473 12 19.9996 12H20.6996C21.1596 12 21.3796 11.43 21.0296 11.13L12.6696 3.59997C12.2896 3.25997 11.7096 3.25997 11.3296 3.59997L2.96961 11.13C2.62961 11.43 2.83961 12 3.29961 12H3.99961C4.55189 12 4.99961 12.4477 4.99961 13V19C4.99961 19.55 5.44961 20 5.99961 20H8.99961C9.54961 20 9.99961 19.55 9.99961 19Z"/></g><defs><clipPath id="clip0_2596_3897"><rect width="24" height="24" fill="currentColor"/></clipPath></defs></svg>
