<svg xmlns="http://www.w3.org/2000/svg" width="24" height="24" fill="none" viewBox="0 0 24 24"><g clip-path="url(#clip0_2608_3820)"><path fill="currentColor" d="M3 12.5C3 12.7761 3.22386 13 3.5 13H4.5C4.77614 13 5 12.7761 5 12.5V11.5C5 11.2239 4.77614 11 4.5 11H3.5C3.22386 11 3 11.2239 3 11.5V12.5ZM3 16.5C3 16.7761 3.22386 17 3.5 17H4.5C4.77614 17 5 16.7761 5 16.5V15.5C5 15.2239 4.77614 15 4.5 15H3.5C3.22386 15 3 15.2239 3 15.5V16.5ZM3 8.5C3 8.77614 3.22386 9 3.5 9H4.5C4.77614 9 5 8.77614 5 8.5V7.5C5 7.22386 4.77614 7 4.5 7H3.5C3.22386 7 3 7.22386 3 7.5V8.5ZM7 12.5C7 12.7761 7.22386 13 7.5 13H20.5C20.7761 13 21 12.7761 21 12.5V11.5C21 11.2239 20.7761 11 20.5 11H7.5C7.22386 11 7 11.2239 7 11.5V12.5ZM7 16.5C7 16.7761 7.22386 17 7.5 17H20.5C20.7761 17 21 16.7761 21 16.5V15.5C21 15.2239 20.7761 15 20.5 15H7.5C7.22386 15 7 15.2239 7 15.5V16.5ZM7.5 7C7.22386 7 7 7.22386 7 7.5V8.5C7 8.77614 7.22386 9 7.5 9H20.5C20.7761 9 21 8.77614 21 8.5V7.5C21 7.22386 20.7761 7 20.5 7H7.5ZM3 12.5C3 12.7761 3.22386 13 3.5 13H4.5C4.77614 13 5 12.7761 5 12.5V11.5C5 11.2239 4.77614 11 4.5 11H3.5C3.22386 11 3 11.2239 3 11.5V12.5ZM3 16.5C3 16.7761 3.22386 17 3.5 17H4.5C4.77614 17 5 16.7761 5 16.5V15.5C5 15.2239 4.77614 15 4.5 15H3.5C3.22386 15 3 15.2239 3 15.5V16.5ZM3 8.5C3 8.77614 3.22386 9 3.5 9H4.5C4.77614 9 5 8.77614 5 8.5V7.5C5 7.22386 4.77614 7 4.5 7H3.5C3.22386 7 3 7.22386 3 7.5V8.5ZM7 12.5C7 12.7761 7.22386 13 7.5 13H20.5C20.7761 13 21 12.7761 21 12.5V11.5C21 11.2239 20.7761 11 20.5 11H7.5C7.22386 11 7 11.2239 7 11.5V12.5ZM7 16.5C7 16.7761 7.22386 17 7.5 17H20.5C20.7761 17 21 16.7761 21 16.5V15.5C21 15.2239 20.7761 15 20.5 15H7.5C7.22386 15 7 15.2239 7 15.5V16.5ZM7.5 7C7.22386 7 7 7.22386 7 7.5V8.5C7 8.77614 7.22386 9 7.5 9H20.5C20.7761 9 21 8.77614 21 8.5V7.5C21 7.22386 20.7761 7 20.5 7H7.5Z"/></g><defs><clipPath id="clip0_2608_3820"><rect width="24" height="24" fill="currentColor"/></clipPath></defs></svg>
