<svg width="101" height="16" viewBox="0 0 101 16" fill="none" xmlns="http://www.w3.org/2000/svg">
    <path
        d="M8.17009 15.2233C8.72237 15.2233 9.17008 14.7756 9.17008 14.2233V10.3363C9.17008 6.44397 7.15352 5.01679 4.75486 5.01679C3.59613 5.01679 2.66737 5.28452 1.94498 5.62769C1.49471 5.84159 1.34804 6.3895 1.56227 6.8396L1.74065 7.2144C1.99204 7.74259 2.63791 7.92765 3.19156 7.73883C3.56973 7.60986 3.9814 7.52518 4.41523 7.52518C5.01135 7.52518 5.46351 7.63976 5.78619 7.86681C6.35968 8.27034 5.68322 8.91542 4.98544 8.84581C2.34214 8.58209 0 9.76755 0 12.0446C0 13.861 1.31608 15.3963 3.69351 15.3963C4.58369 15.3963 5.30721 15.1174 5.89974 14.6777C6.11468 14.5181 6.45302 14.6592 6.45302 14.9269C6.45302 15.0906 6.58576 15.2233 6.7495 15.2233H8.17009ZM5.60745 10.9576C6.09866 11.0541 6.40419 11.5626 6.15772 11.9983C5.71535 12.7804 4.91587 13.2339 4.20296 13.2339C3.3751 13.2339 2.71706 12.8015 2.71706 12.0446C2.71706 11.0937 3.91636 10.6251 5.60745 10.9576Z"
        fill="#070519" />
    <path
        d="M16.64 5.01679C15.7209 5.01679 15.0835 5.30383 14.6293 5.67033C14.4341 5.82789 14.0928 5.70295 14.0928 5.45205C14.0928 5.3072 13.9753 5.18978 13.8305 5.18978H12.3757C11.8234 5.18978 11.3757 5.63749 11.3757 6.18978V14.2233C11.3757 14.7756 11.8234 15.2233 12.3757 15.2233H13.0928C13.6451 15.2233 14.0928 14.7756 14.0928 14.2233V10.0336C14.0928 8.2604 15.1754 7.61167 15.9608 7.61167C16.7886 7.61167 17.8287 7.97929 17.8287 9.68759V14.2233C17.8287 14.7756 18.2764 15.2233 18.8287 15.2233H19.5458C20.0981 15.2233 20.5458 14.7756 20.5458 14.2233V9.68759C20.5458 6.44398 18.7839 5.01679 16.64 5.01679Z"
        fill="#070519" />
    <path
        d="M24.1148 3.45985C25.0487 3.45985 25.8129 2.68139 25.8129 1.72993C25.8129 0.778467 25.0487 0 24.1148 0C23.1808 0 22.4166 0.778467 22.4166 1.72993C22.4166 2.68139 23.1808 3.45985 24.1148 3.45985ZM22.7562 14.2233C22.7562 14.7756 23.2039 15.2233 23.7562 15.2233H24.4733C25.0256 15.2233 25.4733 14.7756 25.4733 14.2233V6.18978C25.4733 5.63749 25.0256 5.18978 24.4733 5.18978H23.7562C23.2039 5.18978 22.7562 5.63749 22.7562 6.18978V14.2233Z"
        fill="#070519" />
    <path
        d="M38.9747 5.01679C38.2807 5.01679 37.6735 5.16419 37.1405 5.48052C36.5491 5.83148 35.7034 5.8009 35.1143 5.44611C34.641 5.1611 34.087 5.01679 33.4557 5.01679C32.5949 5.01679 31.8958 5.21929 31.282 5.70176C31.0773 5.86268 30.7386 5.73076 30.7386 5.47038C30.7386 5.31541 30.613 5.18978 30.458 5.18978H29.0215C28.4692 5.18978 28.0215 5.63749 28.0215 6.18978V14.2233C28.0215 14.7756 28.4692 15.2233 29.0215 15.2233H29.7386C30.2909 15.2233 30.7386 14.7756 30.7386 14.2233V10.0336C30.7386 8.0874 31.8212 7.61167 32.5217 7.61167C33.2646 7.61167 34.1349 7.97929 34.1349 9.68759V14.2233C34.1349 14.7756 34.5826 15.2233 35.1349 15.2233H35.852C36.4043 15.2233 36.852 14.7756 36.852 14.2233V10.0336C36.852 8.0874 37.8709 7.61167 38.5501 7.61167C39.2931 7.61167 40.2483 7.97929 40.2483 9.68759V14.2233C40.2483 14.7756 40.696 15.2233 41.2483 15.2233H41.9654C42.5177 15.2233 42.9654 14.7756 42.9654 14.2233V9.68759C42.9654 6.44398 41.2884 5.01679 38.9747 5.01679Z"
        fill="#070519" />
    <path
        d="M50.0001 12.8015C49.3453 12.8015 49.2837 12.0663 49.8404 11.7215L53.8939 9.21132C54.267 8.98026 54.4541 8.52826 54.2936 8.11979C53.339 5.68972 51.1841 5.01679 49.9577 5.01679C46.6675 5.01679 44.6722 7.35219 44.6722 10.2066C44.6722 13.0393 46.71 15.3963 49.9577 15.3963C51.1746 15.3963 52.2532 15.0439 53.1933 14.3503C53.5891 14.0584 53.6326 13.5009 53.3478 13.0999L53.1275 12.7896C52.7549 12.2649 51.9732 12.2307 51.3873 12.4969C50.9477 12.6966 50.4648 12.8015 50.0001 12.8015ZM50.0001 7.61167C50.1315 7.61167 50.2551 7.62348 50.3713 7.64563C50.9825 7.76205 50.8897 8.53139 50.3555 8.85032L47.7683 10.3949C47.6085 10.4903 47.3892 10.3927 47.3892 10.2066C47.3892 8.77938 48.4718 7.61167 50.0001 7.61167Z"
        fill="#070519" />
    <path
        d="M63.5567 12.1095C62.1557 12.1095 61.0943 11.0067 61.0943 9.68759C61.0943 8.36852 62.1557 7.26569 63.5567 7.26569C63.8792 7.26569 64.1829 7.32348 64.4628 7.43418C65.0618 7.67106 65.8376 7.68143 66.2248 7.16667L66.7114 6.5199C66.9995 6.13688 66.9816 5.59437 66.6094 5.29235C65.6962 4.55131 64.5766 4.15182 63.3868 4.15182C59.8419 4.15182 57.698 6.61697 57.698 9.68759C57.698 12.7582 59.8419 15.2233 63.3868 15.2233C64.5766 15.2233 65.6962 14.8239 66.6094 14.0828C66.9816 13.7808 66.9995 13.2383 66.7114 12.8553L66.2248 12.2085C65.8376 11.6937 65.0618 11.7041 64.4628 11.941C64.1829 12.0517 63.8792 12.1095 63.5567 12.1095Z"
        fill="white" />
    <path
        d="M74.334 4.15182C70.874 4.15182 68.5603 6.61697 68.5603 9.68759C68.5603 12.7582 70.9377 15.2233 74.334 15.2233C77.603 15.2233 80.1078 12.7582 80.1078 9.68759C80.1078 6.61697 77.5605 4.15182 74.334 4.15182ZM74.334 12.1095C73.0392 12.1095 71.9566 11.0067 71.9566 9.68759C71.9566 8.36852 73.0392 7.26569 74.334 7.26569C75.6289 7.26569 76.7114 8.36852 76.7114 9.68759C76.7114 11.0067 75.6289 12.1095 74.334 12.1095Z"
        fill="#F2C94C" />
    <path
        d="M85.5504 5.49781C85.5504 4.94552 85.1026 4.49781 84.5504 4.49781H83.154C82.6017 4.49781 82.154 4.94552 82.154 5.49781V13.8774C82.154 14.4296 82.6017 14.8774 83.154 14.8774H84.5504C85.1026 14.8774 85.5504 14.4296 85.5504 13.8774V11.0499C85.5504 9.3416 86.4207 8.23877 87.4183 7.95766C87.6008 7.90638 87.7814 7.8684 87.9624 7.84541C88.6253 7.7612 89.2863 7.28732 89.2863 6.61909V5.23325C89.2863 4.65017 88.7853 4.17797 88.2161 4.30442C86.9263 4.59098 86.1097 5.23089 85.5504 6.42235V5.49781Z"
        fill="white" />
    <path
        d="M96.0329 12.196C95.5362 12.196 95.4821 11.6684 95.9061 11.4098L100.386 8.67786C100.753 8.45427 100.943 8.01771 100.807 7.61027C99.8539 4.74936 97.5213 4.15182 96.1602 4.15182C92.6153 4.15182 90.4714 6.61697 90.4714 9.68759C90.4714 12.7582 92.6153 15.2233 96.1602 15.2233C97.4864 15.2233 98.6588 14.8248 99.6549 14.0853C100.058 13.7861 100.095 13.2151 99.7933 12.8139L99.254 12.0971C98.8949 11.6197 98.1968 11.5731 97.6574 11.8297C97.176 12.0585 96.6222 12.196 96.0329 12.196ZM96.1602 7.17919C96.2663 7.17919 96.3652 7.18883 96.4568 7.20631C96.9984 7.30958 96.8827 7.97309 96.4116 8.25933L95.0337 9.09643C94.4209 9.46876 93.6358 9.04534 93.9728 8.4124C94.3838 7.64048 95.2313 7.17919 96.1602 7.17919Z"
        fill="white" />
</svg>
