<svg width="848" height="119" viewBox="0 0 848 119" fill="none" xmlns="http://www.w3.org/2000/svg">
<path d="M44.024 95.5495C33.4965 95.5495 25.5212 87.2625 25.5212 77.3505C25.5212 67.4386 33.4965 59.1516 44.024 59.1516C49.3407 59.1516 53.9736 61.241 57.5431 65.033C57.9846 65.5021 58.7501 65.4837 59.1374 64.969L70.9629 49.2495C71.251 48.8664 71.2275 48.3316 70.8989 47.9826C63.4577 40.0807 53.4822 35.7529 42.7479 35.7529C16.1102 35.7529 0 54.2769 0 77.3505C0 100.424 16.1102 118.948 42.7479 118.948C53.4822 118.948 63.4577 114.62 70.8989 106.718C71.2275 106.369 71.251 105.835 70.9629 105.452L59.1374 89.7321C58.7501 89.2173 57.9846 89.199 57.5431 89.668C53.9736 93.46 49.3407 95.5495 44.024 95.5495Z" fill="white"/>
<path d="M125.009 35.7529C99.0091 35.7529 81.6228 54.2769 81.6228 77.3505C81.6228 100.424 99.4876 118.948 125.009 118.948C149.573 118.948 168.395 100.424 168.395 77.3505C168.395 54.2769 149.254 35.7529 125.009 35.7529ZM125.009 95.5495C115.279 95.5495 107.144 87.2625 107.144 77.3505C107.144 67.4386 115.279 59.1516 125.009 59.1516C134.739 59.1516 142.874 67.4386 142.874 77.3505C142.874 87.2625 134.739 95.5495 125.009 95.5495Z" fill="#F2C94C"/>
<path d="M209.292 39.3528C209.292 38.8005 208.844 38.3528 208.292 38.3528H184.771C184.219 38.3528 183.771 38.8005 183.771 39.3528V115.348C183.771 115.901 184.219 116.348 184.771 116.348H208.292C208.844 116.348 209.292 115.901 209.292 115.348V87.5874C209.292 74.7507 215.832 66.4637 223.329 64.3513C227.548 63.1656 231.635 62.9262 236.073 64.0031C236.722 64.1607 237.365 63.6809 237.365 63.0127V36.8344C237.365 36.2513 236.866 35.7914 236.285 35.8453C222.436 37.1308 214.424 41.8837 209.292 52.8144V39.3528Z" fill="white"/>
<path d="M288.061 96.1994C285.737 96.1994 283.413 95.9128 281.593 95.2663C280.883 95.014 280.861 94.102 281.504 93.7097L324.772 67.3253C325.139 67.1017 325.32 66.6588 325.22 66.2412C319.128 40.8577 299.923 35.7529 289.018 35.7529C262.381 35.7529 246.27 54.2769 246.27 77.3505C246.27 100.424 262.381 118.948 289.018 118.948C300.996 118.948 311.305 114.621 319.649 106.72C320.014 106.375 320.056 105.811 319.754 105.41L307.876 89.6207C307.517 89.1433 306.823 89.0863 306.372 89.4776C301.775 93.4611 295.272 96.1994 288.061 96.1994ZM289.018 58.5016C292.766 58.5016 295.306 60.1013 296.743 61.9086C297.086 62.3402 296.931 62.958 296.46 63.2443L272.128 78.0272C271.515 78.3995 270.723 78.0205 270.671 77.3053C269.856 65.9607 278.778 58.5016 289.018 58.5016Z" fill="white"/>
<path d="M400.496 65.5476C404.864 66.2756 408.92 67.3156 412.664 68.6676C416.512 70.0196 419.788 71.7356 422.492 73.8156C425.3 75.8956 427.484 78.3916 429.044 81.3036C430.604 84.1116 431.384 87.4396 431.384 91.2876C431.384 94.9276 430.656 98.3596 429.2 101.584C427.848 104.704 425.716 107.46 422.804 109.852C419.892 112.244 416.252 114.116 411.884 115.468C407.62 116.82 402.576 117.496 396.752 117.496C392.488 117.496 388.536 117.08 384.896 116.248C381.36 115.416 378.188 114.376 375.38 113.128C372.572 111.88 370.18 110.632 368.204 109.384C366.332 108.032 364.928 106.888 363.992 105.952L373.976 87.2316C377.72 90.2476 381.256 92.4316 384.584 93.7836C387.912 95.0316 390.772 95.7596 393.164 95.9676C397.636 96.4876 400.964 96.3836 403.148 95.6556C405.332 94.9276 406.424 93.8356 406.424 92.3796C406.424 90.6116 405.436 89.4676 403.46 88.9476C401.484 88.3236 398.676 87.6476 395.036 86.9196C388.796 85.6716 383.856 84.1116 380.216 82.2396C376.68 80.2636 373.976 78.1316 372.104 75.8436C370.232 73.5556 369.036 71.2156 368.516 68.8236C367.996 66.4316 367.736 64.1436 367.736 61.9596C367.736 58.8396 368.412 55.8236 369.764 52.9116C371.116 49.8956 373.092 47.2956 375.692 45.1116C378.396 42.8236 381.724 41.0036 385.676 39.6516C389.628 38.2996 394.204 37.6236 399.404 37.6236C402.108 37.7276 404.968 38.0396 407.984 38.5596C410.48 39.0796 413.236 39.8596 416.252 40.8996C419.268 41.9396 422.284 43.4476 425.3 45.4236L415.784 63.9876C414.016 62.6356 411.884 61.4396 409.388 60.3996C406.996 59.2556 404.24 58.5796 401.12 58.3716C398.416 58.1636 396.336 58.3196 394.88 58.8396C393.424 59.3596 392.696 60.1396 392.696 61.1796C392.696 62.4276 393.216 63.3636 394.256 63.9876C395.296 64.5076 397.376 65.0276 400.496 65.5476Z" fill="#DCD9F7"/>
<path d="M481.036 95.6556C484.78 95.6556 488.264 94.9796 491.488 93.6276C494.712 92.2756 497.468 90.5596 499.756 88.4796L512.548 105.172C508.388 109.124 503.76 112.192 498.664 114.376C493.568 116.456 488.004 117.496 481.972 117.496C475.42 117.496 469.544 116.456 464.344 114.376C459.248 112.296 454.88 109.488 451.24 105.952C447.704 102.312 444.948 98.0476 442.972 93.1596C441.1 88.2716 440.164 83.0716 440.164 77.5596C440.164 72.0476 441.1 66.8476 442.972 61.9596C444.948 57.0716 447.704 52.8596 451.24 49.3236C454.88 45.6836 459.248 42.8236 464.344 40.7436C469.544 38.6636 475.42 37.6236 481.972 37.6236C484.676 37.6236 487.744 38.0396 491.176 38.8716C494.712 39.5996 498.196 41.0556 501.628 43.2396C505.06 45.4236 508.18 48.4916 510.988 52.4436C513.9 56.2916 516.084 61.3356 517.54 67.5756L473.236 94.0956C474.172 94.6156 475.316 95.0316 476.668 95.3436C478.124 95.5516 479.58 95.6556 481.036 95.6556ZM481.972 59.4636C479.372 59.4636 476.876 59.9316 474.484 60.8676C472.196 61.8036 470.22 63.1556 468.556 64.9236C466.892 66.5876 465.644 68.6156 464.812 71.0076C463.98 73.3996 463.772 76.0516 464.188 78.9636L490.084 63.5196C489.46 62.4796 488.472 61.5436 487.12 60.7116C485.768 59.8796 484.052 59.4636 481.972 59.4636Z" fill="#DCD9F7"/>
<path d="M565.892 95.6556C569.636 95.6556 573.12 94.9796 576.344 93.6276C579.568 92.2756 582.324 90.5596 584.612 88.4796L597.404 105.172C593.244 109.124 588.616 112.192 583.52 114.376C578.424 116.456 572.86 117.496 566.828 117.496C560.276 117.496 554.4 116.456 549.2 114.376C544.104 112.296 539.736 109.488 536.096 105.952C532.56 102.312 529.804 98.0476 527.828 93.1596C525.956 88.2716 525.02 83.0716 525.02 77.5596C525.02 72.0476 525.956 66.8476 527.828 61.9596C529.804 57.0716 532.56 52.8596 536.096 49.3236C539.736 45.6836 544.104 42.8236 549.2 40.7436C554.4 38.6636 560.276 37.6236 566.828 37.6236C569.532 37.6236 572.6 38.0396 576.032 38.8716C579.568 39.5996 583.052 41.0556 586.484 43.2396C589.916 45.4236 593.036 48.4916 595.844 52.4436C598.756 56.2916 600.94 61.3356 602.396 67.5756L558.092 94.0956C559.028 94.6156 560.172 95.0316 561.524 95.3436C562.98 95.5516 564.436 95.6556 565.892 95.6556ZM566.828 59.4636C564.228 59.4636 561.732 59.9316 559.34 60.8676C557.052 61.8036 555.076 63.1556 553.412 64.9236C551.748 66.5876 550.5 68.6156 549.668 71.0076C548.836 73.3996 548.628 76.0516 549.044 78.9636L574.94 63.5196C574.316 62.4796 573.328 61.5436 571.976 60.7116C570.624 59.8796 568.908 59.4636 566.828 59.4636Z" fill="#DCD9F7"/>
<path d="M694.739 0.183594V115H669.779V107.512C666.971 110.84 663.643 113.336 659.795 115C655.947 116.664 651.839 117.496 647.471 117.496C642.167 117.496 637.175 116.456 632.495 114.376C627.919 112.296 623.967 109.488 620.639 105.952C617.311 102.312 614.659 98.0476 612.683 93.1596C610.811 88.2716 609.875 83.0716 609.875 77.5596C609.875 72.0476 610.811 66.8476 612.683 61.9596C614.659 57.0716 617.311 52.8596 620.639 49.3236C623.967 45.6836 627.919 42.8236 632.495 40.7436C637.175 38.6636 642.167 37.6236 647.471 37.6236C651.839 37.6236 655.947 38.4556 659.795 40.1196C663.643 41.7836 666.971 44.2796 669.779 47.6076V0.183594H694.739ZM652.307 95.0316C654.699 95.0316 656.935 94.5636 659.015 93.6276C661.199 92.6916 663.071 91.4436 664.631 89.8836C666.191 88.3236 667.439 86.5036 668.375 84.4236C669.311 82.2396 669.779 79.9516 669.779 77.5596C669.779 75.1676 669.311 72.9316 668.375 70.8516C667.439 68.6676 666.191 66.7956 664.631 65.2356C663.071 63.6756 661.199 62.4276 659.015 61.4916C656.935 60.5556 654.699 60.0876 652.307 60.0876C649.915 60.0876 647.627 60.5556 645.443 61.4916C643.363 62.4276 641.543 63.6756 639.983 65.2356C638.423 66.7956 637.175 68.6676 636.239 70.8516C635.303 72.9316 634.835 75.1676 634.835 77.5596C634.835 79.9516 635.303 82.2396 636.239 84.4236C637.175 86.5036 638.423 88.3236 639.983 89.8836C641.543 91.4436 643.363 92.6916 645.443 93.6276C647.627 94.5636 649.915 95.0316 652.307 95.0316Z" fill="#DCD9F7"/>
<path d="M748.095 95.6556C751.839 95.6556 755.323 94.9796 758.547 93.6276C761.771 92.2756 764.527 90.5596 766.815 88.4796L779.607 105.172C775.447 109.124 770.819 112.192 765.723 114.376C760.627 116.456 755.063 117.496 749.031 117.496C742.479 117.496 736.603 116.456 731.403 114.376C726.307 112.296 721.939 109.488 718.299 105.952C714.763 102.312 712.007 98.0476 710.031 93.1596C708.159 88.2716 707.223 83.0716 707.223 77.5596C707.223 72.0476 708.159 66.8476 710.031 61.9596C712.007 57.0716 714.763 52.8596 718.299 49.3236C721.939 45.6836 726.307 42.8236 731.403 40.7436C736.603 38.6636 742.479 37.6236 749.031 37.6236C751.735 37.6236 754.803 38.0396 758.235 38.8716C761.771 39.5996 765.255 41.0556 768.687 43.2396C772.119 45.4236 775.239 48.4916 778.047 52.4436C780.959 56.2916 783.143 61.3356 784.599 67.5756L740.295 94.0956C741.231 94.6156 742.375 95.0316 743.727 95.3436C745.183 95.5516 746.639 95.6556 748.095 95.6556ZM749.031 59.4636C746.431 59.4636 743.935 59.9316 741.543 60.8676C739.255 61.8036 737.279 63.1556 735.615 64.9236C733.951 66.5876 732.703 68.6156 731.871 71.0076C731.039 73.3996 730.831 76.0516 731.247 78.9636L757.143 63.5196C756.519 62.4796 755.531 61.5436 754.179 60.7116C752.827 59.8796 751.111 59.4636 749.031 59.4636Z" fill="#DCD9F7"/>
<path d="M819.593 54.0036C822.193 48.5956 825.625 44.6436 829.889 42.1476C834.153 39.6516 839.873 38.1436 847.049 37.6236V65.0796C844.657 64.3516 842.317 64.0396 840.029 64.1436C837.845 64.1436 835.609 64.4556 833.321 65.0796C829.681 66.1196 826.457 68.5636 823.649 72.4116C820.945 76.1556 819.593 81.1476 819.593 87.3876V115H794.633V40.1196H819.593V54.0036Z" fill="#DCD9F7"/>
</svg>
