<svg xmlns="http://www.w3.org/2000/svg" width="164" height="25" fill="none" viewBox="0 0 164 25"><path fill="#BDBDBD" d="M13.89 24.7191C14.4423 24.7191 14.89 24.2714 14.89 23.7191V16.7837C14.89 10.4635 11.6156 8.14607 7.72076 8.14607C5.56984 8.14607 3.90692 8.71423 2.67478 9.38403C2.23682 9.6221 2.08952 10.1662 2.30374 10.6163L3.11767 12.3265C3.36906 12.8546 4.01581 13.0482 4.55126 12.8126C5.3275 12.4712 6.21539 12.2191 7.16928 12.2191C8.60322 12.2191 9.52414 12.6274 10.0086 13.4329C10.37 14.0338 9.68469 14.6071 8.99387 14.4867C4.34871 13.6769 0 15.6038 0 19.5576C0 22.507 2.137 25 5.99738 25C7.44282 25 8.61765 24.5471 9.57977 23.833C9.92879 23.574 10.4782 23.8031 10.4782 24.2377C10.4782 24.5036 10.6937 24.7191 10.9596 24.7191H13.89ZM9.6374 17.9112C10.1232 18.032 10.4231 18.5275 10.2354 18.9916C9.60079 20.5607 8.12412 21.4888 6.8246 21.4888C5.48036 21.4888 4.41186 20.7865 4.41186 19.5576C4.41186 17.9156 6.61429 17.1593 9.6374 17.9112Z"/><path fill="#BDBDBD" d="M27.0194 8.14607C25.527 8.14607 24.4921 8.61216 23.7546 9.20727C23.4375 9.46311 22.8833 9.26023 22.8833 8.85283C22.8833 8.61763 22.6926 8.42697 22.4575 8.42697H19.4714C18.9192 8.42697 18.4714 8.87468 18.4714 9.42697V23.7191C18.4714 24.2714 18.9192 24.7191 19.4714 24.7191H21.8833C22.4356 24.7191 22.8833 24.2714 22.8833 23.7191V16.2921C22.8833 13.4129 24.6412 12.3596 25.9165 12.3596C27.2607 12.3596 28.9496 12.9565 28.9496 15.7303V23.7191C28.9496 24.2714 29.3973 24.7191 29.9496 24.7191H32.3615C32.9138 24.7191 33.3615 24.2714 33.3615 23.7191V15.7303C33.3615 10.4635 30.5007 8.14607 27.0194 8.14607Z"/><path fill="#BDBDBD" d="M39.1566 5.61798C40.6732 5.61798 41.914 4.35393 41.914 2.80899C41.914 1.26405 40.6732 0 39.1566 0C37.6401 0 36.3992 1.26405 36.3992 2.80899C36.3992 4.35393 37.6401 5.61798 39.1566 5.61798ZM36.9507 23.7191C36.9507 24.2714 37.3984 24.7191 37.9507 24.7191H40.3626C40.9148 24.7191 41.3626 24.2714 41.3626 23.7191V9.42697C41.3626 8.87468 40.9148 8.42697 40.3626 8.42697H37.9507C37.3984 8.42697 36.9507 8.87468 36.9507 9.42697V23.7191Z"/><path fill="#BDBDBD" d="M63.2856 8.14607C61.8367 8.14607 60.6209 8.54178 59.5943 9.40746C59.0686 9.85079 58.2341 9.82148 57.7211 9.36343C56.8174 8.55639 55.6805 8.14607 54.324 8.14607C52.9265 8.14607 51.7911 8.47488 50.7946 9.2583C50.4622 9.5196 49.9122 9.30539 49.9122 8.8826C49.9122 8.63096 49.7082 8.42697 49.4565 8.42697H46.5003C45.948 8.42697 45.5003 8.87468 45.5003 9.42697V23.7191C45.5003 24.2714 45.948 24.7191 46.5003 24.7191H48.9122C49.4644 24.7191 49.9122 24.2714 49.9122 23.7191V16.2921C49.9122 13.132 51.67 12.3596 52.8074 12.3596C54.0138 12.3596 55.427 12.9565 55.427 15.7303V23.7191C55.427 24.2714 55.8747 24.7191 56.427 24.7191H58.8389C59.3911 24.7191 59.8389 24.2714 59.8389 23.7191V16.2921C59.8389 13.132 61.4933 12.3596 62.5963 12.3596C63.8026 12.3596 65.3537 12.9565 65.3537 15.7303V23.7191C65.3537 24.2714 65.8014 24.7191 66.3537 24.7191H68.7655C69.3178 24.7191 69.7655 24.2714 69.7655 23.7191V15.7303C69.7655 10.4635 67.0426 8.14607 63.2856 8.14607Z"/><path fill="#BDBDBD" d="M81.1884 20.7865C80.9455 20.7865 80.7167 20.7746 80.5008 20.7506C79.7563 20.6682 79.7067 19.7899 80.3435 19.3956L87.9023 14.7145C88.2754 14.4835 88.4588 14.0326 88.3179 13.617C86.8608 9.31794 83.1818 8.14607 81.1194 8.14607C75.7769 8.14607 72.537 11.9382 72.537 16.573C72.537 21.1728 75.8459 25 81.1194 25C83.2789 25 85.1701 24.3164 86.7928 22.9735C87.1717 22.6599 87.2173 22.1064 86.9326 21.7054L85.8119 20.1272C85.4393 19.6025 84.6689 19.5656 84.129 19.9159C83.2542 20.4836 82.195 20.7865 81.1884 20.7865ZM81.1884 12.3596C81.6908 12.3596 82.1236 12.466 82.4955 12.6477C83.0545 12.9209 82.9386 13.6704 82.4044 13.9894L77.5643 16.8788C77.3048 17.0337 76.9488 16.8753 76.9488 16.573C76.9488 14.2556 78.7067 12.3596 81.1884 12.3596Z"/><path fill="#fff" d="M103.201 19.6629C100.926 19.6629 99.2026 17.8722 99.2026 15.7303C99.2026 13.5885 100.926 11.7978 103.201 11.7978C104.005 11.7978 104.737 12.0191 105.369 12.4331C105.907 12.7864 106.673 12.78 107.061 12.2652L108.633 10.1752C108.921 9.79221 108.901 9.25356 108.548 8.92979C107 7.51154 105.03 6.74157 102.925 6.74157C97.1691 6.74157 93.6878 10.7444 93.6878 15.7303C93.6878 20.7163 97.1691 24.7191 102.925 24.7191C105.03 24.7191 107 23.9491 108.548 22.5309C108.901 22.2071 108.921 21.6685 108.633 21.2855L107.061 19.1954C106.673 18.6807 105.907 18.6743 105.369 19.0275C104.737 19.4416 104.005 19.6629 103.201 19.6629Z"/><path fill="#F2C94C" d="M120.701 6.74157C115.083 6.74157 111.326 10.7444 111.326 15.7303C111.326 20.7163 115.186 24.7191 120.701 24.7191C126.009 24.7191 130.076 20.7163 130.076 15.7303C130.076 10.7444 125.94 6.74157 120.701 6.74157ZM120.701 19.6629C118.598 19.6629 116.84 17.8722 116.84 15.7303C116.84 13.5885 118.598 11.7978 120.701 11.7978C122.803 11.7978 124.561 13.5885 124.561 15.7303C124.561 17.8722 122.803 19.6629 120.701 19.6629Z"/><path fill="#fff" d="M138.913 8.30337C138.913 7.75109 138.466 7.30337 137.913 7.30337H134.399C133.846 7.30337 133.399 7.75109 133.399 8.30337V23.1573C133.399 23.7096 133.846 24.1573 134.399 24.1573H137.913C138.466 24.1573 138.913 23.7096 138.913 23.1573V17.9424C138.913 15.1685 140.327 13.3778 141.947 12.9213C142.521 12.7598 143.085 12.6796 143.663 12.7006C144.331 12.7249 144.98 12.251 144.98 11.5828V7.823C144.98 7.23992 144.481 6.77494 143.905 6.86487C141.422 7.2526 139.914 8.297 138.913 10.4284V8.30337Z"/><path fill="#fff" d="M155.935 19.8034C155.896 19.8034 155.857 19.803 155.818 19.8023C155.065 19.7877 154.986 18.9798 155.629 18.5874L163.386 13.8574C163.753 13.6338 163.94 13.1974 163.82 12.7849C162.367 7.77086 158.418 6.74157 156.141 6.74157C150.385 6.74157 146.904 10.7444 146.904 15.7303C146.904 20.7163 150.385 24.7191 156.141 24.7191C158.489 24.7191 160.54 23.95 162.246 22.5333C162.632 22.2126 162.671 21.6453 162.37 21.2441L160.745 19.084C160.385 18.6067 159.691 18.555 159.185 18.8724C158.278 19.4417 157.153 19.8034 155.935 19.8034ZM156.141 11.6573C156.569 11.6573 156.924 11.7538 157.21 11.9023C157.699 12.1568 157.552 12.8019 157.081 13.0881L153.505 15.2606C152.893 15.6329 152.102 15.2408 152.262 14.5417C152.668 12.7655 154.307 11.6573 156.141 11.6573Z"/><circle cx="39" cy="3" r="3" fill="#EDD68D"/></svg>
