<svg width="422" height="131" viewBox="0 0 422 131" fill="none" xmlns="http://www.w3.org/2000/svg">
    <g filter="url(#filter0_d_507_293)">
        <path
            d="M4 67.6002C4 84.0783 10.5961 96.5543 18.7949 105.1C19.3689 105.698 20.2589 105.854 21.0143 105.512L24.8058 103.796C26.057 103.23 26.3785 101.6 25.4802 100.561C18.3323 92.2953 13.04 81.7458 13.04 67.6002C13.04 53.5283 18.3323 42.9846 25.4802 34.7194C26.3785 33.6806 26.057 32.0504 24.8058 31.4841L21.0143 29.7679C20.2589 29.426 19.3689 29.5826 18.7949 30.1809C10.5961 38.726 4 51.1991 4 67.6002Z"
            fill="url(#paint0_linear_507_293)" />
        <path
            d="M55.8428 77.1408H32.0616C30.957 77.1408 30.0616 76.2454 30.0616 75.1408V72.3049C30.0616 71.2003 30.957 70.3049 32.0616 70.3049H88.4991V77.1408H62.6787V120.258C62.6787 121.363 61.7833 122.258 60.6787 122.258H57.8428C56.7382 122.258 55.8428 121.363 55.8428 120.258V77.1408Z"
            fill="white" />
        <path
            d="M112.562 77.1408H86.7803V70.3049H143.218C144.322 70.3049 145.218 71.2003 145.218 72.3049V75.1408C145.218 76.2454 144.322 77.1408 143.218 77.1408H119.397V120.258C119.397 121.363 118.502 122.258 117.397 122.258H114.562C113.457 122.258 112.562 121.363 112.562 120.258V77.1408Z"
            fill="white" />
        <path
            d="M224.397 105.76C224.397 104.744 223.574 103.92 222.557 103.92H146.237C145.221 103.92 144.397 104.744 144.397 105.76C144.397 106.776 145.221 107.6 146.237 107.6H222.557C223.574 107.6 224.397 106.776 224.397 105.76Z"
            fill="#EDD68D" />
        <path
            d="M249.28 79.1408C249.28 78.0363 248.385 77.1408 247.28 77.1408H225.499C224.394 77.1408 223.499 76.2454 223.499 75.1408V72.3049C223.499 71.2003 224.394 70.3049 225.499 70.3049H281.937V77.1408H258.116C257.012 77.1408 256.116 78.0363 256.116 79.1408V120.258C256.116 121.363 255.221 122.258 254.116 122.258H251.28C250.176 122.258 249.28 121.363 249.28 120.258V79.1408Z"
            fill="white" />
        <path
            d="M305.999 79.1408C305.999 78.0363 305.104 77.1408 303.999 77.1408H280.218V70.3049H336.655C337.76 70.3049 338.655 71.2003 338.655 72.3049V75.1408C338.655 76.2454 337.76 77.1408 336.655 77.1408H314.835C313.73 77.1408 312.835 78.0363 312.835 79.1408V120.258C312.835 121.363 311.94 122.258 310.835 122.258H307.999C306.894 122.258 305.999 121.363 305.999 120.258V79.1408Z"
            fill="white" />
        <path
            d="M364.715 67.6002C364.715 51.1991 358.119 38.726 349.92 30.1809C349.346 29.5826 348.456 29.426 347.701 29.7679L343.909 31.4841C342.658 32.0504 342.337 33.6806 343.235 34.7194C350.383 42.9846 355.675 53.5283 355.675 67.6002C355.675 81.7458 350.383 92.2953 343.235 100.561C342.337 101.6 342.658 103.23 343.909 103.796L347.701 105.512C348.456 105.854 349.346 105.698 349.92 105.1C358.119 96.5543 364.715 84.0783 364.715 67.6002Z"
            fill="url(#paint1_linear_507_293)" />
        <path
            d="M370.961 37.2022C370.961 34.7489 371.628 33.0422 372.961 32.0822C374.294 31.0689 375.921 30.5622 377.841 30.5622C379.708 30.5622 381.308 31.0689 382.641 32.0822C383.974 33.0422 384.641 34.7489 384.641 37.2022C384.641 39.5489 383.974 41.2555 382.641 42.3222C381.308 43.3355 379.708 43.8422 377.841 43.8422C375.921 43.8422 374.294 43.3355 372.961 42.3222C371.628 41.2555 370.961 39.5489 370.961 37.2022Z"
            fill="#DCD9F7" />
        <path
            d="M390.229 14.6875C390.229 10.0521 391.453 6.44531 393.901 3.86719C396.375 1.28906 399.669 0 403.784 0C407.872 0 411.154 1.30208 413.627 3.90625C416.101 6.48438 417.338 10.0781 417.338 14.6875C417.338 19.2969 416.101 22.8906 413.627 25.4688C411.18 28.0469 407.898 29.3359 403.784 29.3359C399.669 29.3359 396.375 28.0599 393.901 25.5078C391.453 22.9297 390.229 19.3229 390.229 14.6875ZM398.471 14.7656C398.471 17.6302 398.953 19.6745 399.917 20.8984C400.88 22.0964 402.13 22.6953 403.667 22.6953C405.203 22.6953 406.453 22.0964 407.417 20.8984C408.406 19.6745 408.901 17.6302 408.901 14.7656C408.901 11.901 408.406 9.86979 407.417 8.67188C406.453 7.44792 405.203 6.83594 403.667 6.83594C402.13 6.83594 400.88 7.4349 399.917 8.63281C398.953 9.83073 398.471 11.875 398.471 14.7656Z"
            fill="url(#paint2_linear_507_293)" />
        <path
            d="M55.7109 77H62.7109V120.4C62.7109 121.505 61.8155 122.4 60.7109 122.4H57.7109C56.6064 122.4 55.7109 121.505 55.7109 120.4V77Z"
            fill="url(#paint3_linear_507_293)" />
        <path
            d="M249.109 77H256.109V120.4C256.109 121.505 255.214 122.4 254.109 122.4H251.109C250.005 122.4 249.109 121.505 249.109 120.4V77Z"
            fill="url(#paint4_linear_507_293)" />
        <path
            d="M112.512 77H119.512V120.4C119.512 121.505 118.616 122.4 117.512 122.4H114.512C113.407 122.4 112.512 121.505 112.512 120.4V77Z"
            fill="url(#paint5_linear_507_293)" />
        <path
            d="M306.012 77H313.012V120.4C313.012 121.505 312.116 122.4 311.012 122.4H308.012C306.907 122.4 306.012 121.505 306.012 120.4V77Z"
            fill="url(#paint6_linear_507_293)" />
        <rect x="85.9609" y="70.2998" width="3" height="6.85" fill="white" />
        <rect x="279.961" y="70.2998" width="3" height="6.85" fill="white" />
    </g>
    <defs>
        <filter id="filter0_d_507_293" x="0" y="0" width="421.34" height="130.4" filterUnits="userSpaceOnUse"
            color-interpolation-filters="sRGB">
            <feFlood flood-opacity="0" result="BackgroundImageFix" />
            <feColorMatrix in="SourceAlpha" type="matrix" values="0 0 0 0 0 0 0 0 0 0 0 0 0 0 0 0 0 0 127 0"
                result="hardAlpha" />
            <feOffset dy="4" />
            <feGaussianBlur stdDeviation="2" />
            <feComposite in2="hardAlpha" operator="out" />
            <feColorMatrix type="matrix" values="0 0 0 0 0 0 0 0 0 0 0 0 0 0 0 0 0 0 0.25 0" />
            <feBlend mode="normal" in2="BackgroundImageFix" result="effect1_dropShadow_507_293" />
            <feBlend mode="normal" in="SourceGraphic" in2="effect1_dropShadow_507_293" result="shape" />
        </filter>
        <linearGradient id="paint0_linear_507_293" x1="184.357" y1="29.2002" x2="184.357" y2="122.258"
            gradientUnits="userSpaceOnUse">
            <stop stop-color="#DCD9F7" stop-opacity="0.6" />
            <stop offset="1" stop-color="white" stop-opacity="0" />
        </linearGradient>
        <linearGradient id="paint1_linear_507_293" x1="184.357" y1="29.2002" x2="184.357" y2="122.258"
            gradientUnits="userSpaceOnUse">
            <stop stop-color="#DCD9F7" stop-opacity="0.6" />
            <stop offset="1" stop-color="white" stop-opacity="0" />
        </linearGradient>
        <linearGradient id="paint2_linear_507_293" x1="394.402" y1="7.24219" x2="394.402" y2="57.2422"
            gradientUnits="userSpaceOnUse">
            <stop stop-color="#070519" />
            <stop offset="1" stop-color="#7569E1" />
        </linearGradient>
        <linearGradient id="paint3_linear_507_293" x1="59.2109" y1="77" x2="59.2109" y2="122.4"
            gradientUnits="userSpaceOnUse">
            <stop stop-color="#C4C4C4" stop-opacity="0" />
            <stop offset="1" stop-color="#C4C4C4" />
        </linearGradient>
        <linearGradient id="paint4_linear_507_293" x1="252.609" y1="77" x2="252.609" y2="122.4"
            gradientUnits="userSpaceOnUse">
            <stop stop-color="#C4C4C4" stop-opacity="0" />
            <stop offset="1" stop-color="#C4C4C4" />
        </linearGradient>
        <linearGradient id="paint5_linear_507_293" x1="116.012" y1="77" x2="116.012" y2="122.4"
            gradientUnits="userSpaceOnUse">
            <stop stop-color="#C4C4C4" stop-opacity="0" />
            <stop offset="1" stop-color="#C4C4C4" />
        </linearGradient>
        <linearGradient id="paint6_linear_507_293" x1="309.512" y1="77" x2="309.512" y2="122.4"
            gradientUnits="userSpaceOnUse">
            <stop stop-color="#C4C4C4" stop-opacity="0" />
            <stop offset="1" stop-color="#C4C4C4" />
        </linearGradient>
    </defs>
</svg>