<svg width="493" height="119" viewBox="0 0 493 119" fill="none" xmlns="http://www.w3.org/2000/svg">
    <g filter="url(#filter0_d_507_308)">
        <path
            d="M19.4688 8.57812C19.4688 10.6875 18.7135 12.4974 17.2031 14.0078C15.7188 15.4922 13.9219 16.2344 11.8125 16.2344C9.70312 16.2344 7.89323 15.4922 6.38281 14.0078C4.89844 12.4974 4.15625 10.6875 4.15625 8.57812C4.15625 6.46875 4.89844 4.67188 6.38281 3.1875C7.89323 1.67708 9.70312 0.921875 11.8125 0.921875C13.9219 0.921875 15.7188 1.66406 17.2031 3.14844C18.7135 4.63281 19.4688 6.44271 19.4688 8.57812ZM15.2891 8.57812C15.2891 7.61458 14.9505 6.79427 14.2734 6.11719C13.5964 5.4401 12.776 5.10156 11.8125 5.10156C10.849 5.10156 10.0286 5.4401 9.35156 6.11719C8.67448 6.79427 8.33594 7.61458 8.33594 8.57812C8.33594 9.54167 8.67448 10.362 9.35156 11.0391C10.0286 11.7161 10.849 12.0547 11.8125 12.0547C12.776 12.0547 13.5964 11.7161 14.2734 11.0391C14.9505 10.362 15.2891 9.54167 15.2891 8.57812Z"
            fill="url(#paint0_linear_507_308)" />
        <path
            d="M29.6928 39.96C29.6928 37.5067 30.3595 35.8 31.6928 34.84C33.0261 33.8267 34.6528 33.32 36.5728 33.32C38.4395 33.32 40.0395 33.8267 41.3728 34.84C42.7061 35.8 43.3728 37.5067 43.3728 39.96C43.3728 42.3067 42.7061 44.0133 41.3728 45.08C40.0395 46.0933 38.4395 46.6 36.5728 46.6C34.6528 46.6 33.0261 46.0933 31.6928 45.08C30.3595 44.0133 29.6928 42.3067 29.6928 39.96Z"
            fill="url(#paint1_linear_507_308)" />
        <path
            d="M48.9609 17.4453C48.9609 12.8099 50.1849 9.20312 52.6328 6.625C55.1068 4.04688 58.401 2.75781 62.5156 2.75781C66.6042 2.75781 69.8854 4.0599 72.3594 6.66406C74.8333 9.24219 76.0703 12.8359 76.0703 17.4453C76.0703 22.0547 74.8333 25.6484 72.3594 28.2266C69.9115 30.8047 66.6302 32.0938 62.5156 32.0938C58.401 32.0938 55.1068 30.8177 52.6328 28.2656C50.1849 25.6875 48.9609 22.0807 48.9609 17.4453ZM57.2031 17.5234C57.2031 20.388 57.6849 22.4323 58.6484 23.6562C59.612 24.8542 60.862 25.4531 62.3984 25.4531C63.9349 25.4531 65.1849 24.8542 66.1484 23.6562C67.138 22.4323 67.6328 20.388 67.6328 17.5234C67.6328 14.6589 67.138 12.6276 66.1484 11.4297C65.1849 10.2057 63.9349 9.59375 62.3984 9.59375C60.862 9.59375 59.612 10.1927 58.6484 11.3906C57.6849 12.5885 57.2031 14.6328 57.2031 17.5234Z"
            fill="#DCD9F7" />
        <path
            d="M86.9766 38.6172C85.872 38.6172 84.9766 37.7218 84.9766 36.6172V29.6406C84.9766 28.5361 85.872 27.6406 86.9766 27.6406H93.9531C95.0577 27.6406 95.9531 28.5361 95.9531 29.6406V36.6172C95.9531 37.7218 95.0577 38.6172 93.9531 38.6172H86.9766Z"
            fill="#DCD9F7" />
        <path
            d="M126.458 74.9911C127.053 76.3232 126.085 77.8359 124.626 77.8359H121.285C120.614 77.8359 119.987 77.5004 119.623 76.9364C115.927 71.1979 113.089 65.2477 111.109 59.0859C109.026 52.6016 107.984 46.3255 107.984 40.2578C107.984 32.7318 109.273 25.6094 111.852 18.8906C113.962 13.3949 116.603 8.30365 119.776 3.61692C120.143 3.07589 120.756 2.75781 121.41 2.75781H124.768C126.221 2.75781 127.19 4.25878 126.612 5.5917C123.716 12.2694 121.673 18.0435 120.484 22.9141C119.156 28.4349 118.492 34.2943 118.492 40.4922C118.492 44.763 118.883 49.138 119.664 53.6172C120.471 58.0964 121.565 62.3542 122.945 66.3906C123.675 68.5157 124.845 71.3825 126.458 74.9911Z"
            fill="url(#paint2_linear_507_308)" />
        <path
            d="M151.422 8.57812C151.422 10.6875 150.667 12.4974 149.156 14.0078C147.672 15.4922 145.875 16.2344 143.766 16.2344C141.656 16.2344 139.846 15.4922 138.336 14.0078C136.852 12.4974 136.109 10.6875 136.109 8.57812C136.109 6.46875 136.852 4.67188 138.336 3.1875C139.846 1.67708 141.656 0.921875 143.766 0.921875C145.875 0.921875 147.672 1.66406 149.156 3.14844C150.667 4.63281 151.422 6.44271 151.422 8.57812ZM147.242 8.57812C147.242 7.61458 146.904 6.79427 146.227 6.11719C145.549 5.4401 144.729 5.10156 143.766 5.10156C142.802 5.10156 141.982 5.4401 141.305 6.11719C140.628 6.79427 140.289 7.61458 140.289 8.57812C140.289 9.54167 140.628 10.362 141.305 11.0391C141.982 11.7161 142.802 12.0547 143.766 12.0547C144.729 12.0547 145.549 11.7161 146.227 11.0391C146.904 10.362 147.242 9.54167 147.242 8.57812Z"
            fill="white" />
        <path
            d="M185.861 53.2972C184.54 53.8724 183.062 52.9043 183.062 51.4635V44.8236C183.062 44.0015 183.566 43.2631 184.331 42.9623L205.724 34.5512C207.419 33.885 207.414 31.4857 205.717 30.8259L184.338 22.5115C183.569 22.2125 183.062 21.4723 183.062 20.6475V14.0828C183.062 12.6442 184.536 11.6761 185.856 12.2471L221.153 27.5097C221.885 27.8263 222.359 28.5477 222.359 29.3454V36.0957C222.359 36.8916 221.887 37.6117 221.158 37.9294L185.861 53.2972Z"
            fill="white" />
        <path
            d="M193.148 76.6641C192.044 76.6641 191.148 75.7686 191.148 74.6641V67.6875C191.148 66.5829 192.044 65.6875 193.148 65.6875H200.125C201.23 65.6875 202.125 66.5829 202.125 67.6875V74.6641C202.125 75.7686 201.23 76.6641 200.125 76.6641H193.148Z"
            fill="white" />
        <path
            d="M193.148 91.6641C192.044 91.6641 191.148 90.7686 191.148 89.6641V82.6875C191.148 81.5829 192.044 80.6875 193.148 80.6875H200.125C201.23 80.6875 202.125 81.5829 202.125 82.6875V89.6641C202.125 90.7686 201.23 91.6641 200.125 91.6641H193.148Z"
            fill="#E0E0E0" />
        <path
            d="M204.469 103.18C204.469 105.315 203.727 107.125 202.242 108.609C200.758 110.094 198.948 110.836 196.812 110.836C194.703 110.836 192.906 110.081 191.422 108.57C189.911 107.086 189.156 105.289 189.156 103.18C189.156 101.044 189.898 99.2344 191.383 97.75C192.867 96.2656 194.677 95.5234 196.812 95.5234C198.974 95.5234 200.784 96.2526 202.242 97.7109C203.727 99.1953 204.469 101.018 204.469 103.18ZM200.289 103.18C200.289 102.216 199.951 101.396 199.273 100.719C198.596 100.042 197.776 99.7031 196.812 99.7031C195.849 99.7031 195.029 100.042 194.352 100.719C193.674 101.396 193.336 102.216 193.336 103.18C193.336 104.143 193.674 104.964 194.352 105.641C195.029 106.318 195.849 106.656 196.812 106.656C197.776 106.656 198.596 106.318 199.273 105.641C199.951 104.964 200.289 104.143 200.289 103.18Z"
            fill="#A5A5A5" />
        <path
            d="M232.23 52.6C231.126 52.6 230.225 51.7039 230.28 50.6007C230.466 46.9305 231.17 43.4902 232.39 40.28C233.884 36.4933 235.937 33.1867 238.55 30.36C241.217 27.48 244.364 25.24 247.99 23.64C251.617 22.04 255.564 21.24 259.83 21.24C264.204 21.24 268.177 22.04 271.75 23.64C275.377 25.1867 278.497 27.4 281.11 30.28C283.777 33.1067 285.83 36.44 287.27 40.28C288.491 43.4903 289.194 46.9305 289.38 50.6007C289.436 51.7039 288.535 52.6 287.43 52.6H232.23ZM241.09 41.8848C240.502 43.11 241.464 44.44 242.823 44.44H276.822C278.162 44.44 279.123 43.1431 278.552 41.9312C278.006 40.7729 277.339 39.6892 276.55 38.68C275.27 36.92 273.75 35.4 271.99 34.12C270.284 32.7867 268.39 31.7733 266.31 31.08C264.23 30.3333 262.07 29.96 259.83 29.96C257.537 29.96 255.35 30.3333 253.27 31.08C251.19 31.7733 249.27 32.7867 247.51 34.12C245.804 35.4 244.31 36.92 243.03 38.68C242.284 39.6757 241.637 40.7439 241.09 41.8848Z"
            fill="#EDD68D" />
        <path
            d="M336.539 51.426C336.539 52.8664 335.062 53.8345 333.742 53.2601L298.484 37.9291C297.754 37.6116 297.281 36.8912 297.281 36.095V29.2668C297.281 28.4693 297.755 27.7481 298.487 27.4313L333.745 12.1705C335.065 11.5989 336.539 12.567 336.539 14.0059V20.7172C336.539 21.5462 336.028 22.2893 335.253 22.5853L313.953 30.7285C312.25 31.3796 312.235 33.7836 313.93 34.4558L335.276 42.9211C336.039 43.2234 336.539 43.9603 336.539 44.7803V51.426Z"
            fill="white" />
        <path
            d="M307.367 76.6641C306.263 76.6641 305.367 75.7686 305.367 74.6641V67.6875C305.367 66.5829 306.263 65.6875 307.367 65.6875H314.344C315.448 65.6875 316.344 66.5829 316.344 67.6875V74.6641C316.344 75.7686 315.448 76.6641 314.344 76.6641H307.367Z"
            fill="white" />
        <path
            d="M307.367 91.6641C306.263 91.6641 305.367 90.7686 305.367 89.6641V82.6875C305.367 81.5829 306.263 80.6875 307.367 80.6875H314.344C315.448 80.6875 316.344 81.5829 316.344 82.6875V89.6641C316.344 90.7686 315.448 91.6641 314.344 91.6641H307.367Z"
            fill="#E0E0E0" />
        <path
            d="M318.688 103.18C318.688 105.315 317.945 107.125 316.461 108.609C314.977 110.094 313.167 110.836 311.031 110.836C308.922 110.836 307.125 110.081 305.641 108.57C304.13 107.086 303.375 105.289 303.375 103.18C303.375 101.044 304.117 99.2344 305.602 97.75C307.086 96.2656 308.896 95.5234 311.031 95.5234C313.193 95.5234 315.003 96.2526 316.461 97.7109C317.945 99.1953 318.688 101.018 318.688 103.18ZM314.508 103.18C314.508 102.216 314.169 101.396 313.492 100.719C312.815 100.042 311.995 99.7031 311.031 99.7031C310.068 99.7031 309.247 100.042 308.57 100.719C307.893 101.396 307.555 102.216 307.555 103.18C307.555 104.143 307.893 104.964 308.57 105.641C309.247 106.318 310.068 106.656 311.031 106.656C311.995 106.656 312.815 106.318 313.492 105.641C314.169 104.964 314.508 104.143 314.508 103.18Z"
            fill="#A5A5A5" />
        <path
            d="M368.389 77.8359C366.926 77.8359 365.958 76.3162 366.561 74.9833C368.04 71.7152 369.126 69.1114 369.82 67.1719C370.706 64.6979 371.526 61.8464 372.281 58.6172C373.036 55.388 373.596 52.3281 373.961 49.4375C374.326 46.5208 374.508 43.5391 374.508 40.4922C374.508 34.2943 373.844 28.4349 372.516 22.9141C371.349 18.0435 369.32 12.2695 366.427 5.59192C365.849 4.25879 366.818 2.75781 368.271 2.75781H371.593C372.245 2.75781 372.857 3.07427 373.224 3.61251C376.872 8.96005 379.722 14.6126 381.773 20.5703C383.961 26.8464 385.055 33.2135 385.055 39.6719C385.055 45.1146 384.195 50.9479 382.477 57.1719C380.61 63.842 377.59 70.4289 373.416 76.9325C373.052 77.4985 372.423 77.8359 371.751 77.8359H368.389Z"
            fill="url(#paint3_linear_507_308)" />
        <path
            d="M393.755 39.96C393.755 37.5067 394.422 35.8 395.755 34.84C397.089 33.8267 398.715 33.32 400.635 33.32C402.502 33.32 404.102 33.8267 405.435 34.84C406.769 35.8 407.435 37.5067 407.435 39.96C407.435 42.3067 406.769 44.0133 405.435 45.08C404.102 46.0933 402.502 46.6 400.635 46.6C398.715 46.6 397.089 46.0933 395.755 45.08C394.422 44.0133 393.755 42.3067 393.755 39.96Z"
            fill="#DCD9F7" />
        <path
            d="M413.023 17.4453C413.023 12.8099 414.247 9.20312 416.695 6.625C419.169 4.04688 422.464 2.75781 426.578 2.75781C430.667 2.75781 433.948 4.0599 436.422 6.66406C438.896 9.24219 440.133 12.8359 440.133 17.4453C440.133 22.0547 438.896 25.6484 436.422 28.2266C433.974 30.8047 430.693 32.0938 426.578 32.0938C422.464 32.0938 419.169 30.8177 416.695 28.2656C414.247 25.6875 413.023 22.0807 413.023 17.4453ZM421.266 17.5234C421.266 20.388 421.747 22.4323 422.711 23.6562C423.674 24.8542 424.924 25.4531 426.461 25.4531C427.997 25.4531 429.247 24.8542 430.211 23.6562C431.201 22.4323 431.695 20.388 431.695 17.5234C431.695 14.6589 431.201 12.6276 430.211 11.4297C429.247 10.2057 427.997 9.59375 426.461 9.59375C424.924 9.59375 423.674 10.1927 422.711 11.3906C421.747 12.5885 421.266 14.6328 421.266 17.5234Z"
            fill="#DCD9F7" />
        <path
            d="M451.039 38.6172C449.934 38.6172 449.039 37.7218 449.039 36.6172V29.6406C449.039 28.5361 449.934 27.6406 451.039 27.6406H458.016C459.12 27.6406 460.016 28.5361 460.016 29.6406V36.6172C460.016 37.7218 459.12 38.6172 458.016 38.6172H451.039Z"
            fill="url(#paint4_linear_507_308)" />
        <path
            d="M488.844 8.57812C488.844 10.6875 488.089 12.4974 486.578 14.0078C485.094 15.4922 483.297 16.2344 481.188 16.2344C479.078 16.2344 477.268 15.4922 475.758 14.0078C474.273 12.4974 473.531 10.6875 473.531 8.57812C473.531 6.46875 474.273 4.67188 475.758 3.1875C477.268 1.67708 479.078 0.921875 481.188 0.921875C483.297 0.921875 485.094 1.66406 486.578 3.14844C488.089 4.63281 488.844 6.44271 488.844 8.57812ZM484.664 8.57812C484.664 7.61458 484.326 6.79427 483.648 6.11719C482.971 5.4401 482.151 5.10156 481.188 5.10156C480.224 5.10156 479.404 5.4401 478.727 6.11719C478.049 6.79427 477.711 7.61458 477.711 8.57812C477.711 9.54167 478.049 10.362 478.727 11.0391C479.404 11.7161 480.224 12.0547 481.188 12.0547C482.151 12.0547 482.971 11.7161 483.648 11.0391C484.326 10.362 484.664 9.54167 484.664 8.57812Z"
            fill="url(#paint5_linear_507_308)" />
    </g>
    <defs>
        <filter id="filter0_d_507_308" x="0.15625" y="0.921875" width="492.688" height="117.914"
            filterUnits="userSpaceOnUse" color-interpolation-filters="sRGB">
            <feFlood flood-opacity="0" result="BackgroundImageFix" />
            <feColorMatrix in="SourceAlpha" type="matrix" values="0 0 0 0 0 0 0 0 0 0 0 0 0 0 0 0 0 0 127 0"
                result="hardAlpha" />
            <feOffset dy="4" />
            <feGaussianBlur stdDeviation="2" />
            <feComposite in2="hardAlpha" operator="out" />
            <feColorMatrix type="matrix" values="0 0 0 0 0 0 0 0 0 0 0 0 0 0 0 0 0 0 0.25 0" />
            <feBlend mode="normal" in2="BackgroundImageFix" result="effect1_dropShadow_507_308" />
            <feBlend mode="normal" in="SourceGraphic" in2="effect1_dropShadow_507_308" result="shape" />
        </filter>
        <linearGradient id="paint0_linear_507_308" x1="246.5" y1="0.921875" x2="246.5" y2="110.836"
            gradientUnits="userSpaceOnUse">
            <stop stop-color="#070519" />
            <stop offset="1" stop-color="#7569E1" />
        </linearGradient>
        <linearGradient id="paint1_linear_507_308" x1="246.5" y1="0.921875" x2="246.5" y2="110.836"
            gradientUnits="userSpaceOnUse">
            <stop stop-color="#070519" />
            <stop offset="1" stop-color="#7569E1" />
        </linearGradient>
        <linearGradient id="paint2_linear_507_308" x1="246.5" y1="0.921875" x2="246.5" y2="110.836"
            gradientUnits="userSpaceOnUse">
            <stop stop-color="#DCD9F7" stop-opacity="0.6" />
            <stop offset="1" stop-color="white" stop-opacity="0" />
        </linearGradient>
        <linearGradient id="paint3_linear_507_308" x1="246.5" y1="0.921875" x2="246.5" y2="110.836"
            gradientUnits="userSpaceOnUse">
            <stop stop-color="#DCD9F7" stop-opacity="0.6" />
            <stop offset="1" stop-color="white" stop-opacity="0" />
        </linearGradient>
        <linearGradient id="paint4_linear_507_308" x1="246.5" y1="0.921875" x2="246.5" y2="110.836"
            gradientUnits="userSpaceOnUse">
            <stop stop-color="#070519" />
            <stop offset="1" stop-color="#7569E1" />
        </linearGradient>
        <linearGradient id="paint5_linear_507_308" x1="246.5" y1="0.921875" x2="246.5" y2="110.836"
            gradientUnits="userSpaceOnUse">
            <stop stop-color="#070519" />
            <stop offset="1" stop-color="#7569E1" />
        </linearGradient>
    </defs>
</svg>
