<svg xmlns="http://www.w3.org/2000/svg" width="340" height="150" fill="none" viewBox="0 0 340 150"><g filter="url(#filter0_d_507_308)"><path fill="#DCD9F7" d="M288.953 37.2022C288.953 34.7489 289.62 33.0422 290.953 32.0822C292.286 31.0689 293.913 30.5622 295.833 30.5622C297.7 30.5622 299.3 31.0689 300.633 32.0822C301.966 33.0422 302.633 34.7489 302.633 37.2022C302.633 39.5489 301.966 41.2555 300.633 42.3222C299.3 43.3355 297.7 43.8422 295.833 43.8422C293.913 43.8422 292.286 43.3355 290.953 42.3222C289.62 41.2555 288.953 39.5489 288.953 37.2022Z"/><path fill="url(#paint0_linear_507_308)" d="M308.221 14.6875C308.221 10.0521 309.445 6.44531 311.893 3.86719C314.367 1.28906 317.661 0 321.776 0C325.864 0 329.146 1.30208 331.62 3.90625C334.094 6.48438 335.331 10.0781 335.331 14.6875C335.331 19.2969 334.094 22.8906 331.62 25.4688C329.172 28.0469 325.891 29.3359 321.776 29.3359C317.661 29.3359 314.367 28.0599 311.893 25.5078C309.445 22.9297 308.221 19.3229 308.221 14.6875ZM316.463 14.7656C316.463 17.6302 316.945 19.6745 317.909 20.8984C318.872 22.0964 320.122 22.6953 321.659 22.6953C323.195 22.6953 324.445 22.0964 325.409 20.8984C326.398 19.6745 326.893 17.6302 326.893 14.7656C326.893 11.901 326.398 9.86979 325.409 8.67188C324.445 7.44792 323.195 6.83594 321.659 6.83594C320.122 6.83594 318.872 7.4349 317.909 8.63281C316.945 9.83073 316.463 11.875 316.463 14.7656Z"/><path fill="url(#paint1_linear_507_308)" d="M22.4737 106.069C23.0689 107.401 22.1011 108.914 20.6421 108.914H17.3008C16.63 108.914 16.0022 108.578 15.639 108.015C11.9427 102.276 9.10469 96.3259 7.125 90.1641C5.04167 83.6797 4 77.4036 4 71.3359C4 63.8099 5.28906 56.6875 7.86719 49.9688C9.97716 44.473 12.6188 39.3818 15.792 34.695C16.1583 34.154 16.7721 33.8359 17.4255 33.8359H20.7836C22.2364 33.8359 23.2052 35.3369 22.6272 36.6698C19.7315 43.3475 17.6891 49.1216 16.5 53.9922C15.1719 59.513 14.5078 65.3724 14.5078 71.5703C14.5078 75.8411 14.8984 80.2161 15.6797 84.6953C16.487 89.1745 17.5807 93.4323 18.9609 97.4688C19.6901 99.5938 20.861 102.461 22.4737 106.069Z"/><path fill="#fff" d="M47.4375 39.6562C47.4375 41.7656 46.6823 43.5755 45.1719 45.0859C43.6875 46.5703 41.8906 47.3125 39.7812 47.3125C37.6719 47.3125 35.862 46.5703 34.3516 45.0859C32.8672 43.5755 32.125 41.7656 32.125 39.6562C32.125 37.5469 32.8672 35.75 34.3516 34.2656C35.862 32.7552 37.6719 32 39.7812 32C41.8906 32 43.6875 32.7422 45.1719 34.2266C46.6823 35.7109 47.4375 37.5208 47.4375 39.6562ZM43.2578 39.6562C43.2578 38.6927 42.9193 37.8724 42.2422 37.1953C41.5651 36.5182 40.7448 36.1797 39.7812 36.1797C38.8177 36.1797 37.9974 36.5182 37.3203 37.1953C36.6432 37.8724 36.3047 38.6927 36.3047 39.6562C36.3047 40.6198 36.6432 41.4401 37.3203 42.1172C37.9974 42.7943 38.8177 43.1328 39.7812 43.1328C40.7448 43.1328 41.5651 42.7943 42.2422 42.1172C42.9193 41.4401 43.2578 40.6198 43.2578 39.6562Z"/><path fill="#fff" d="M81.8765 84.3754C80.5555 84.9505 79.0781 83.9824 79.0781 82.5416V75.9018C79.0781 75.0796 79.5812 74.3413 80.3463 74.0405L101.74 65.6293C103.434 64.9632 103.43 62.5638 101.733 61.904L80.3532 53.5896C79.5845 53.2907 79.0781 52.5504 79.0781 51.7256V45.161C79.0781 43.7224 80.5515 42.7543 81.8719 43.3252L117.169 58.5878C117.901 58.9044 118.375 59.6258 118.375 60.4235V67.1738C118.375 67.9697 117.903 68.6898 117.173 69.0075L81.8765 84.3754Z"/><path fill="#fff" d="M89.1641 107.742C88.0595 107.742 87.1641 106.847 87.1641 105.742V98.7656C87.1641 97.6611 88.0595 96.7656 89.1641 96.7656H96.1406C97.2452 96.7656 98.1406 97.6611 98.1406 98.7656V105.742C98.1406 106.847 97.2452 107.742 96.1406 107.742H89.1641Z"/><path fill="#E0E0E0" d="M89.1641 122.742C88.0595 122.742 87.1641 121.847 87.1641 120.742V113.766C87.1641 112.661 88.0595 111.766 89.1641 111.766H96.1406C97.2452 111.766 98.1406 112.661 98.1406 113.766V120.742C98.1406 121.847 97.2452 122.742 96.1406 122.742H89.1641Z"/><path fill="#A5A5A5" d="M100.484 134.258C100.484 136.393 99.7422 138.203 98.2578 139.688C96.7734 141.172 94.9635 141.914 92.8281 141.914C90.7188 141.914 88.9219 141.159 87.4375 139.648C85.9271 138.164 85.1719 136.367 85.1719 134.258C85.1719 132.122 85.9141 130.312 87.3984 128.828C88.8828 127.344 90.6927 126.602 92.8281 126.602C94.9896 126.602 96.7995 127.331 98.2578 128.789C99.7422 130.273 100.484 132.096 100.484 134.258ZM96.3047 134.258C96.3047 133.294 95.9661 132.474 95.2891 131.797C94.612 131.12 93.7917 130.781 92.8281 130.781C91.8646 130.781 91.0443 131.12 90.3672 131.797C89.6901 132.474 89.3516 133.294 89.3516 134.258C89.3516 135.221 89.6901 136.042 90.3672 136.719C91.0443 137.396 91.8646 137.734 92.8281 137.734C93.7917 137.734 94.612 137.396 95.2891 136.719C95.9661 136.042 96.3047 135.221 96.3047 134.258Z"/><path fill="#EDD68D" d="M128.246 83.6781C127.141 83.6781 126.24 82.782 126.296 81.6789C126.482 78.0086 127.185 74.5684 128.406 71.3581C129.899 67.5715 131.953 64.2648 134.566 61.4381C137.233 58.5581 140.379 56.3181 144.006 54.7181C147.633 53.1181 151.579 52.3181 155.846 52.3181C160.219 52.3181 164.193 53.1181 167.766 54.7181C171.393 56.2648 174.513 58.4781 177.126 61.3581C179.793 64.1848 181.846 67.5181 183.286 71.3581C184.507 74.5684 185.21 78.0086 185.396 81.6789C185.452 82.782 184.551 83.6781 183.446 83.6781H128.246ZM137.105 72.9629C136.518 74.1881 137.48 75.5181 138.839 75.5181H172.838C174.178 75.5181 175.139 74.2212 174.568 73.0094C174.022 71.851 173.354 70.7673 172.566 69.7581C171.286 67.9981 169.766 66.4781 168.006 65.1981C166.299 63.8648 164.406 62.8515 162.326 62.1581C160.246 61.4115 158.086 61.0381 155.846 61.0381C153.553 61.0381 151.366 61.4115 149.286 62.1581C147.206 62.8515 145.286 63.8648 143.526 65.1981C141.819 66.4781 140.326 67.9981 139.046 69.7581C138.299 70.7538 137.652 71.822 137.105 72.9629Z"/><path fill="#fff" d="M232.555 82.5041C232.555 83.9445 231.078 84.9126 229.757 84.3383L194.499 69.0072C193.769 68.6897 193.297 67.9694 193.297 67.1731V60.3449C193.297 59.5474 193.771 58.8262 194.502 58.5094L229.76 43.2486C231.081 42.677 232.555 43.6451 232.555 45.084V51.7953C232.555 52.6243 232.043 53.3674 231.269 53.6634L209.969 61.8066C208.266 62.4577 208.251 64.8618 209.946 65.5339L231.292 73.9992C232.054 74.3015 232.555 75.0384 232.555 75.8584V82.5041Z"/><path fill="#fff" d="M203.383 107.742C202.278 107.742 201.383 106.847 201.383 105.742V98.7656C201.383 97.6611 202.278 96.7656 203.383 96.7656H210.359C211.464 96.7656 212.359 97.6611 212.359 98.7656V105.742C212.359 106.847 211.464 107.742 210.359 107.742H203.383Z"/><path fill="#E0E0E0" d="M203.383 122.742C202.278 122.742 201.383 121.847 201.383 120.742V113.766C201.383 112.661 202.278 111.766 203.383 111.766H210.359C211.464 111.766 212.359 112.661 212.359 113.766V120.742C212.359 121.847 211.464 122.742 210.359 122.742H203.383Z"/><path fill="#A5A5A5" d="M214.703 134.258C214.703 136.393 213.961 138.203 212.477 139.688C210.992 141.172 209.182 141.914 207.047 141.914C204.938 141.914 203.141 141.159 201.656 139.648C200.146 138.164 199.391 136.367 199.391 134.258C199.391 132.122 200.133 130.312 201.617 128.828C203.102 127.344 204.911 126.602 207.047 126.602C209.208 126.602 211.018 127.331 212.477 128.789C213.961 130.273 214.703 132.096 214.703 134.258ZM210.523 134.258C210.523 133.294 210.185 132.474 209.508 131.797C208.831 131.12 208.01 130.781 207.047 130.781C206.083 130.781 205.263 131.12 204.586 131.797C203.909 132.474 203.57 133.294 203.57 134.258C203.57 135.221 203.909 136.042 204.586 136.719C205.263 137.396 206.083 137.734 207.047 137.734C208.01 137.734 208.831 137.396 209.508 136.719C210.185 136.042 210.523 135.221 210.523 134.258Z"/><path fill="url(#paint2_linear_507_308)" d="M264.405 108.914C262.942 108.914 261.974 107.394 262.577 106.061C264.055 102.793 265.142 100.19 265.836 98.25C266.721 95.776 267.542 92.9245 268.297 89.6953C269.052 86.4661 269.612 83.4062 269.977 80.5156C270.341 77.599 270.523 74.6172 270.523 71.5703C270.523 65.3724 269.859 59.513 268.531 53.9922C267.365 49.1217 265.336 43.3476 262.443 36.67C261.865 35.3369 262.834 33.8359 264.287 33.8359H267.609C268.261 33.8359 268.873 34.1524 269.24 34.6906C272.888 40.0382 275.737 45.6908 277.789 51.6484C279.977 57.9245 281.07 64.2917 281.07 70.75C281.07 76.1927 280.211 82.026 278.492 88.25C276.626 94.9201 273.605 101.507 269.431 108.011C269.068 108.577 268.439 108.914 267.767 108.914H264.405Z"/></g><defs><filter id="filter0_d_507_308" width="339.332" height="149.914" x="0" y="0" color-interpolation-filters="sRGB" filterUnits="userSpaceOnUse"><feFlood flood-opacity="0" result="BackgroundImageFix"/><feColorMatrix in="SourceAlpha" result="hardAlpha" type="matrix" values="0 0 0 0 0 0 0 0 0 0 0 0 0 0 0 0 0 0 127 0"/><feOffset dy="4"/><feGaussianBlur stdDeviation="2"/><feComposite in2="hardAlpha" operator="out"/><feColorMatrix type="matrix" values="0 0 0 0 0 0 0 0 0 0 0 0 0 0 0 0 0 0 0.25 0"/><feBlend in2="BackgroundImageFix" mode="normal" result="effect1_dropShadow_507_308"/><feBlend in="SourceGraphic" in2="effect1_dropShadow_507_308" mode="normal" result="shape"/></filter><linearGradient id="paint0_linear_507_308" x1="312.395" x2="312.395" y1="7.242" y2="57.242" gradientUnits="userSpaceOnUse"><stop stop-color="#070519"/><stop offset="1" stop-color="#7569E1"/></linearGradient><linearGradient id="paint1_linear_507_308" x1="142.535" x2="142.535" y1="32" y2="141.914" gradientUnits="userSpaceOnUse"><stop stop-color="#DCD9F7" stop-opacity=".6"/><stop offset="1" stop-color="#fff" stop-opacity="0"/></linearGradient><linearGradient id="paint2_linear_507_308" x1="142.535" x2="142.535" y1="32" y2="141.914" gradientUnits="userSpaceOnUse"><stop stop-color="#DCD9F7" stop-opacity=".6"/><stop offset="1" stop-color="#fff" stop-opacity="0"/></linearGradient></defs></svg>
