<svg width="310" height="108" viewBox="0 0 310 108" fill="none" xmlns="http://www.w3.org/2000/svg">
    <path
        d="M18.9815 105.095C19.5767 106.427 18.6089 107.939 17.1499 107.939H13.8086C13.1378 107.939 12.51 107.604 12.1468 107.04C8.45049 101.301 5.6125 95.3512 3.63281 89.1894C1.54948 82.705 0.507812 76.429 0.507812 70.3613C0.507812 62.8353 1.79688 55.7129 4.375 48.9941C6.48497 43.4984 9.12658 38.4071 12.2998 33.7204C12.6661 33.1794 13.2799 32.8613 13.9333 32.8613H17.2914C18.7443 32.8613 19.713 34.3623 19.135 35.6952C16.2393 42.3728 14.1969 48.147 13.0078 53.0175C11.6797 58.5384 11.0156 64.3978 11.0156 70.5957C11.0156 74.8665 11.4062 79.2415 12.1875 83.7207C12.9948 88.1998 14.0885 92.4576 15.4688 96.4941C16.1979 98.6192 17.3689 101.486 18.9815 105.095Z"
        fill="url(#paint0_linear_507_333)" fill-opacity="0.6" />
    <path
        d="M41.2088 92.0635C36.5154 92.0635 32.7821 90.5435 30.0088 87.5035C27.2354 84.4635 25.8488 80.0101 25.8488 74.1435C25.8488 71.2635 26.2488 68.6235 27.0487 66.2235C27.9021 63.8235 29.1821 61.6901 30.8888 59.8235C32.5954 57.9035 34.7554 56.3301 37.3688 55.1035L39.3688 57.0235H27.8488C26.7442 57.0235 25.8488 56.128 25.8488 55.0235V48.9435C25.8488 47.8389 26.7442 46.9435 27.8488 46.9435H64.0887C66.9688 46.9435 68.9954 46.8368 70.1688 46.6235C71.3421 46.4101 72.2221 46.1168 72.8088 45.7435C73.5021 45.3168 73.9554 44.8101 74.1688 44.2235C74.4354 43.6368 74.5688 42.9168 74.5688 42.0635C74.5688 40.5701 74.1687 39.1301 73.3688 37.7435C72.9213 36.9125 72.3589 36.0432 71.6816 35.1356C70.9332 34.1326 71.1662 32.6794 72.2462 32.047L77.5717 28.9284C78.422 28.4305 79.5124 28.6236 80.1117 29.4058C82.1453 32.0597 83.551 34.439 84.3288 36.5435C85.2354 38.9968 85.6888 41.5568 85.6888 44.2235C85.6888 45.4501 85.4488 46.9168 84.9688 48.6235C84.5421 50.3301 83.6354 51.8235 82.2488 53.1035C81.5554 53.6901 80.8088 54.2235 80.0088 54.7035C79.2621 55.1301 78.4354 55.4768 77.5288 55.7435C76.6754 56.0101 75.7154 56.2501 74.6488 56.4635L75.9288 55.8235C78.1154 56.9435 79.9287 58.4101 81.3688 60.2235C82.8088 62.0368 83.8754 64.1168 84.5688 66.4635C85.3154 68.7568 85.6888 71.2901 85.6888 74.0635C85.6888 79.9835 84.2754 84.4635 81.4488 87.5035C78.6221 90.5435 74.8354 92.0635 70.0888 92.0635C67.5287 92.0635 65.2621 91.7168 63.2887 91.0235C61.3154 90.3301 59.5287 89.3168 57.9287 87.9835C57.4855 87.5861 57.2414 87.3012 57.0849 87.048C56.3548 85.8674 55.0786 85.76 54.4161 86.9798C54.2332 87.3165 53.9706 87.6185 53.2088 88.2235C51.3954 89.6635 49.5021 90.6501 47.5288 91.1835C45.6088 91.7701 43.5021 92.0635 41.2088 92.0635ZM43.6087 81.9035C45.6354 81.9035 47.2088 81.2368 48.3288 79.9035C49.1305 78.949 49.7409 77.8306 50.16 76.5483C50.4586 75.6346 51.2647 74.9435 52.2259 74.9435H59.4164C60.3665 74.9435 61.168 75.6184 61.4563 76.5236C61.9574 78.0969 62.6749 79.3302 63.6087 80.2235C64.8887 81.3435 66.3288 81.9035 67.9288 81.9035C69.7954 81.9035 71.2621 81.2635 72.3288 79.9835C73.4487 78.6501 74.0088 76.5168 74.0088 73.5835C74.0088 71.3968 73.6354 69.3168 72.8887 67.3435C72.1954 65.3701 71.1021 63.6101 69.6087 62.0635C68.1688 60.5168 66.3554 59.2901 64.1688 58.3835C61.9821 57.4768 59.4221 57.0235 56.4888 57.0235H55.0488C52.2221 57.0235 49.7154 57.4501 47.5288 58.3035C45.3954 59.1568 43.5821 60.3568 42.0887 61.9035C40.5954 63.3968 39.4487 65.1568 38.6488 67.1835C37.9021 69.1568 37.5288 71.2901 37.5288 73.5835C37.5288 76.4635 38.0621 78.5701 39.1287 79.9035C40.1954 81.2368 41.6888 81.9035 43.6087 81.9035ZM55.7688 72.9435C53.7954 72.9435 52.2488 72.3835 51.1288 71.2635C50.0621 70.1435 49.5288 68.7568 49.5288 67.1035C49.5288 65.3968 50.0888 63.9835 51.2088 62.8635C52.3821 61.6901 53.9021 61.1035 55.7688 61.1035C57.6354 61.1035 59.1554 61.6901 60.3288 62.8635C61.5021 63.9835 62.0888 65.3968 62.0888 67.1035C62.0888 68.7568 61.5021 70.1435 60.3288 71.2635C59.2088 72.3835 57.6888 72.9435 55.7688 72.9435ZM51.8671 102.623C50.6953 102.623 49.7745 101.621 49.8744 100.453L50.5723 92.293C50.6608 91.2583 51.5265 90.4635 52.565 90.4635H58.9604C60.0039 90.4635 60.8721 91.2658 60.9542 92.3061L61.5984 100.466C61.6902 101.629 60.7713 102.623 59.6046 102.623H51.8671Z"
        fill="url(#paint1_linear_507_333)" />
    <path
        d="M90.5781 87.8022C89.4984 87.5694 88.5938 88.4789 88.5938 89.5835V91.9035C88.5938 93.008 89.5011 93.8875 90.5725 94.1563C91.8005 94.4644 93.0554 95.0422 94.5137 95.8235C96.2738 96.7835 98.9938 98.4635 101.954 98.4635C104.834 98.4635 106.914 97.2635 109.634 95.8235C110.674 95.1835 112.434 93.9035 115.234 93.9035C118.034 93.9035 119.874 95.1835 120.914 95.8235C123.554 97.2635 125.634 98.4635 128.594 98.4635C131.554 98.4635 134.194 96.8635 136.034 95.8235C138.274 94.6235 140.034 93.9035 141.874 93.9035C143.714 93.9035 145.474 94.6235 147.714 95.8235C149.554 96.7835 152.194 98.4635 155.154 98.4635C158.114 98.4635 160.194 97.2635 162.834 95.8235C163.607 95.3479 164.865 94.519 166.61 94.1244C167.687 93.8808 168.594 93.008 168.594 91.9035V89.5835C168.594 88.4789 167.689 87.5604 166.605 87.7732C164.292 88.2274 162.673 89.4007 161.154 90.2235C158.914 91.4235 157.074 92.1435 155.154 92.1435C153.234 92.1435 150.434 90.8635 149.314 90.2235C147.314 89.0235 144.754 87.5835 141.874 87.5835C138.994 87.5835 136.434 89.0235 134.434 90.2235C133.314 90.8635 130.514 92.1435 128.594 92.1435C126.674 92.1435 124.834 91.4235 122.594 90.2235C120.674 89.1835 118.754 87.5835 115.234 87.5835C111.794 87.5835 109.794 89.1835 107.954 90.2235C105.714 91.4235 103.874 92.1435 101.954 92.1435C99.9538 92.1435 97.2337 90.8635 96.1137 90.2235C94.5249 89.3068 92.6559 88.2501 90.5781 87.8022Z"
        fill="#EDD68D" />
    <path
        d="M186.834 92.0635C182.14 92.0635 178.407 90.5435 175.634 87.5035C172.86 84.4635 171.474 80.0101 171.474 74.1435C171.474 71.2635 171.874 68.6235 172.674 66.2235C173.527 63.8235 174.807 61.6901 176.514 59.8235C178.22 57.9035 180.38 56.3301 182.994 55.1035L184.994 57.0235H173.474C172.369 57.0235 171.474 56.128 171.474 55.0235V48.9435C171.474 47.8389 172.369 46.9435 173.474 46.9435H209.714C212.594 46.9435 214.62 46.8368 215.794 46.6235C216.967 46.4101 217.847 46.1168 218.434 45.7435C219.127 45.3168 219.58 44.8101 219.794 44.2235C220.06 43.6368 220.194 42.9168 220.194 42.0635C220.194 40.5701 219.794 39.1301 218.994 37.7435C218.546 36.9125 217.984 36.0432 217.307 35.1356C216.558 34.1326 216.791 32.6794 217.871 32.047L223.197 28.9284C224.047 28.4305 225.137 28.6236 225.737 29.4058C227.77 32.0597 229.176 34.439 229.954 36.5435C230.86 38.9968 231.314 41.5568 231.314 44.2235C231.314 45.4501 231.074 46.9168 230.594 48.6235C230.167 50.3301 229.26 51.8235 227.874 53.1035C227.18 53.6901 226.434 54.2235 225.634 54.7035C224.887 55.1301 224.06 55.4768 223.154 55.7435C222.3 56.0101 221.34 56.2501 220.274 56.4635L221.554 55.8235C223.74 56.9435 225.554 58.4101 226.994 60.2235C228.434 62.0368 229.5 64.1168 230.194 66.4635C230.94 68.7568 231.314 71.2901 231.314 74.0635C231.314 79.9835 229.9 84.4635 227.074 87.5035C224.247 90.5435 220.46 92.0635 215.714 92.0635C213.154 92.0635 210.887 91.7168 208.914 91.0235C206.94 90.3301 205.154 89.3168 203.554 87.9835C203.085 87.5634 202.844 87.2607 202.696 86.9849C202.038 85.7624 200.731 85.6542 200.093 86.8867C199.896 87.2667 199.637 87.5857 198.834 88.2235C197.02 89.6635 195.127 90.6501 193.154 91.1835C191.234 91.7701 189.127 92.0635 186.834 92.0635ZM189.234 81.9035C191.26 81.9035 192.834 81.2368 193.954 79.9035C194.755 78.949 195.366 77.8306 195.785 76.5483C196.084 75.6346 196.89 74.9435 197.851 74.9435H205.041C205.992 74.9435 206.793 75.6184 207.081 76.5236C207.582 78.0969 208.3 79.3302 209.234 80.2235C210.514 81.3435 211.954 81.9035 213.554 81.9035C215.42 81.9035 216.887 81.2635 217.954 79.9835C219.074 78.6501 219.634 76.5168 219.634 73.5835C219.634 71.3968 219.26 69.3168 218.514 67.3435C217.82 65.3701 216.727 63.6101 215.234 62.0635C213.794 60.5168 211.98 59.2901 209.794 58.3835C207.607 57.4768 205.047 57.0235 202.114 57.0235H200.674C197.847 57.0235 195.34 57.4501 193.154 58.3035C191.02 59.1568 189.207 60.3568 187.714 61.9035C186.22 63.3968 185.074 65.1568 184.274 67.1835C183.527 69.1568 183.154 71.2901 183.154 73.5835C183.154 76.4635 183.687 78.5701 184.754 79.9035C185.82 81.2368 187.314 81.9035 189.234 81.9035ZM201.394 72.9435C199.42 72.9435 197.874 72.3835 196.754 71.2635C195.687 70.1435 195.154 68.7568 195.154 67.1035C195.154 65.3968 195.714 63.9835 196.834 62.8635C198.007 61.6901 199.527 61.1035 201.394 61.1035C203.26 61.1035 204.78 61.6901 205.954 62.8635C207.127 63.9835 207.714 65.3968 207.714 67.1035C207.714 68.7568 207.127 70.1435 205.954 71.2635C204.834 72.3835 203.314 72.9435 201.394 72.9435ZM197.492 102.623C196.32 102.623 195.4 101.621 195.499 100.453L196.197 92.2931C196.286 91.2583 197.151 90.4635 198.19 90.4635H204.585C205.629 90.4635 206.497 91.2658 206.579 92.3061L207.223 100.466C207.315 101.629 206.396 102.623 205.23 102.623H197.492Z"
        fill="url(#paint2_linear_507_333)" />
    <path
        d="M240.053 107.939C238.59 107.939 237.622 106.42 238.225 105.087C239.704 101.819 240.79 99.2149 241.484 97.2754C242.37 94.8014 243.19 91.9498 243.945 88.7207C244.701 85.4915 245.26 82.4316 245.625 79.541C245.99 76.6243 246.172 73.6425 246.172 70.5957C246.172 64.3978 245.508 58.5384 244.18 53.0175C243.014 48.147 240.984 42.373 238.091 35.6954C237.514 34.3623 238.482 32.8613 239.935 32.8613H243.258C243.909 32.8613 244.521 33.1778 244.888 33.716C248.536 39.0635 251.386 44.7161 253.438 50.6738C255.625 56.9498 256.719 63.317 256.719 69.7754C256.719 75.2181 255.859 81.0514 254.141 87.2754C252.274 93.9455 249.254 100.532 245.08 107.036C244.717 107.602 244.087 107.939 243.415 107.939H240.053Z"
        fill="url(#paint3_linear_507_333)" fill-opacity="0.6" />
    <path
        d="M262.961 37.2022C262.961 34.7489 263.628 33.0422 264.961 32.0822C266.294 31.0689 267.921 30.5622 269.841 30.5622C271.708 30.5622 273.308 31.0689 274.641 32.0822C275.974 33.0422 276.641 34.7489 276.641 37.2022C276.641 39.5489 275.974 41.2555 274.641 42.3222C273.308 43.3355 271.708 43.8422 269.841 43.8422C267.921 43.8422 266.294 43.3355 264.961 42.3222C263.628 41.2555 262.961 39.5489 262.961 37.2022Z"
        fill="#DCD9F7" />
    <path
        d="M282.229 14.6875C282.229 10.0521 283.453 6.44531 285.901 3.86719C288.375 1.28906 291.669 0 295.784 0C299.872 0 303.154 1.30208 305.627 3.90625C308.101 6.48438 309.338 10.0781 309.338 14.6875C309.338 19.2969 308.101 22.8906 305.627 25.4688C303.18 28.0469 299.898 29.3359 295.784 29.3359C291.669 29.3359 288.375 28.0599 285.901 25.5078C283.453 22.9297 282.229 19.3229 282.229 14.6875ZM290.471 14.7656C290.471 17.6302 290.953 19.6745 291.917 20.8984C292.88 22.0964 294.13 22.6953 295.667 22.6953C297.203 22.6953 298.453 22.0964 299.417 20.8984C300.406 19.6745 300.901 17.6302 300.901 14.7656C300.901 11.901 300.406 9.86979 299.417 8.67188C298.453 7.44792 297.203 6.83594 295.667 6.83594C294.13 6.83594 292.88 7.4349 291.917 8.63281C290.953 9.83073 290.471 11.875 290.471 14.7656Z"
        fill="url(#paint4_linear_507_333)" />
    <ellipse cx="55.7992" cy="67.1" rx="6.35" ry="6.1" fill="#AAA2EC" />
    <circle cx="56" cy="68" r="4" fill="#DCD9F7" fill-opacity="0.6" />
    <circle cx="56.5" cy="68.5" r="1.5" fill="#7569E1" fill-opacity="0.4" />
    <circle cx="53.5" cy="64.5" r="1" fill="white" fill-opacity="0.8" />
    <ellipse cx="201.369" cy="67.0502" rx="6.4" ry="6.1" fill="#23197D" />
    <circle cx="200.551" cy="68" r="4" fill="#7569E1" />
    <circle cx="201.051" cy="68.5" r="1.5" fill="#23197D" />
    <circle cx="198.051" cy="64.5" r="1" fill="white" fill-opacity="0.8" />
    <defs>
        <linearGradient id="paint0_linear_507_333" x1="128.613" y1="28.0635" x2="128.613" y2="107.939"
            gradientUnits="userSpaceOnUse">
            <stop stop-color="#DCD9F7" stop-opacity="0.6" />
            <stop offset="1" stop-color="#DCD9F7" stop-opacity="0" />
        </linearGradient>
        <linearGradient id="paint1_linear_507_333" x1="128.613" y1="28.0635" x2="128.613" y2="138"
            gradientUnits="userSpaceOnUse">
            <stop offset="0.279734" stop-color="white" />
            <stop offset="1" stop-color="#C4C4C4" />
        </linearGradient>
        <linearGradient id="paint2_linear_507_333" x1="128.613" y1="28.0635" x2="128.613" y2="138"
            gradientUnits="userSpaceOnUse">
            <stop offset="0.279734" stop-color="white" />
            <stop offset="1" stop-color="#C4C4C4" />
        </linearGradient>
        <linearGradient id="paint3_linear_507_333" x1="128.613" y1="28.0635" x2="128.613" y2="107.939"
            gradientUnits="userSpaceOnUse">
            <stop stop-color="#DCD9F7" stop-opacity="0.6" />
            <stop offset="1" stop-color="#DCD9F7" stop-opacity="0" />
        </linearGradient>
        <linearGradient id="paint4_linear_507_333" x1="286.402" y1="7.24219" x2="286.402" y2="57.2422"
            gradientUnits="userSpaceOnUse">
            <stop stop-color="#070519" />
            <stop offset="1" stop-color="#7569E1" />
        </linearGradient>
    </defs>
</svg>
