<svg width="321" height="118" viewBox="0 0 321 118" fill="none" xmlns="http://www.w3.org/2000/svg">
    <g filter="url(#filter0_d_517_18)">
        <path
            d="M269.961 37.2022C269.961 34.7489 270.628 33.0422 271.961 32.0822C273.294 31.0689 274.921 30.5622 276.841 30.5622C278.708 30.5622 280.308 31.0689 281.641 32.0822C282.974 33.0422 283.641 34.7489 283.641 37.2022C283.641 39.5489 282.974 41.2555 281.641 42.3222C280.308 43.3355 278.708 43.8422 276.841 43.8422C274.921 43.8422 273.294 43.3355 271.961 42.3222C270.628 41.2555 269.961 39.5489 269.961 37.2022Z"
            fill="#DCD9F7" />
        <path
            d="M289.229 14.6875C289.229 10.0521 290.453 6.44531 292.901 3.86719C295.375 1.28906 298.669 0 302.784 0C306.872 0 310.154 1.30208 312.627 3.90625C315.101 6.48438 316.338 10.0781 316.338 14.6875C316.338 19.2969 315.101 22.8906 312.627 25.4688C310.18 28.0469 306.898 29.3359 302.784 29.3359C298.669 29.3359 295.375 28.0599 292.901 25.5078C290.453 22.9297 289.229 19.3229 289.229 14.6875ZM297.471 14.7656C297.471 17.6302 297.953 19.6745 298.917 20.8984C299.88 22.0964 301.13 22.6953 302.667 22.6953C304.203 22.6953 305.453 22.0964 306.417 20.8984C307.406 19.6745 307.901 17.6302 307.901 14.7656C307.901 11.901 307.406 9.86979 306.417 8.67188C305.453 7.44792 304.203 6.83594 302.667 6.83594C301.13 6.83594 299.88 7.4349 298.917 8.63281C297.953 9.83073 297.471 11.875 297.471 14.7656Z"
            fill="url(#paint0_linear_517_18)" />
        <path
            d="M22.6533 106.991C23.2486 108.323 22.2808 109.836 20.8218 109.836H17.4805C16.8096 109.836 16.1819 109.5 15.8187 108.936C12.1224 103.198 9.28438 97.2477 7.30469 91.0859C5.22135 84.6016 4.17969 78.3255 4.17969 72.2578C4.17969 64.7318 5.46875 57.6094 8.04688 50.8906C10.1568 45.3949 12.7985 40.3036 15.9717 35.6169C16.338 35.0759 16.9518 34.7578 17.6052 34.7578H20.9633C22.4161 34.7578 23.3849 36.2588 22.8069 37.5917C19.9112 44.2694 17.8687 50.0435 16.6797 54.9141C15.3516 60.4349 14.6875 66.2943 14.6875 72.4922C14.6875 76.763 15.0781 81.138 15.8594 85.6172C16.6667 90.0964 17.7604 94.3542 19.1406 98.3906C19.8698 100.516 21.0407 103.383 22.6533 106.991Z"
            fill="url(#paint1_linear_517_18)" />
        <path
            d="M41.7606 73.24C34.6406 73.24 28.8006 79 28.8006 86.12C28.8006 93.32 34.6406 99.08 41.7606 99.08C48.9606 99.08 54.7206 93.32 54.7206 86.12C54.7206 79 48.9606 73.24 41.7606 73.24ZM41.7606 93.32C37.8406 93.32 34.5606 90.12 34.5606 86.12C34.5606 82.2 37.8406 79 41.7606 79C45.7606 79 48.9606 82.2 48.9606 86.12C48.9606 90.12 45.7606 93.32 41.7606 93.32Z"
            fill="white" />
        <path
            d="M92.3047 64.7188C92.3047 67.9219 91.1719 70.6562 88.9062 72.9219C86.6667 75.1615 83.9583 76.2812 80.7812 76.2812C77.5781 76.2812 74.8438 75.1484 72.5781 72.8828C70.3385 70.6172 69.2188 67.8958 69.2188 64.7188C69.2188 61.5417 70.3385 58.8333 72.5781 56.5938C74.8438 54.3281 77.5781 53.1953 80.7812 53.1953C83.9583 53.1953 86.6667 54.3151 88.9062 56.5547C91.1719 58.7943 92.3047 61.5156 92.3047 64.7188Z"
            fill="white" />
        <path
            d="M81.2783 32.6484C79.8216 32.6484 78.8536 31.1411 79.4595 29.8165L82.6688 22.8008C82.9943 22.0892 83.705 21.6328 84.4876 21.6328H90.8719C92.6257 21.6328 93.5302 23.7294 92.3268 25.0052L85.7092 32.0208C85.3314 32.4214 84.805 32.6484 84.2544 32.6484H81.2783Z"
            fill="white" />
        <path
            d="M99.3831 96.2283C99.8598 97.3518 101.223 97.7901 102.265 97.1551L133.646 78.0348C134.285 77.645 135.089 77.6454 135.729 78.0359L167.029 97.1518C168.071 97.7883 169.436 97.3503 169.913 96.2261L171.693 92.0302C172.08 91.1168 171.74 90.0574 170.892 89.5412L135.727 68.1135C135.089 67.7244 134.286 67.724 133.647 68.1125L98.4048 89.5417C97.5565 90.0575 97.215 91.1177 97.6028 92.0317L99.3831 96.2283Z"
            fill="#EDD68D" />
        <path
            d="M200.352 64.7188C200.352 67.9219 199.219 70.6562 196.953 72.9219C194.714 75.1615 192.005 76.2812 188.828 76.2812C185.625 76.2812 182.891 75.1484 180.625 72.8828C178.385 70.6172 177.266 67.8958 177.266 64.7188C177.266 61.5417 178.385 58.8333 180.625 56.5938C182.891 54.3281 185.625 53.1953 188.828 53.1953C192.005 53.1953 194.714 54.3151 196.953 56.5547C199.219 58.7943 200.352 61.5156 200.352 64.7188Z"
            fill="white" />
        <path
            d="M195.896 29.7693C196.546 31.0981 195.579 32.6484 194.099 32.6484H191.232C190.694 32.6484 190.179 32.4318 189.802 32.0474L182.936 25.0317C181.697 23.7657 182.594 21.6328 184.365 21.6328H190.666C191.43 21.6328 192.127 22.0677 192.463 22.7537L195.896 29.7693Z"
            fill="white" />
        <path
            d="M217.854 73.24C210.734 73.24 204.894 79 204.894 86.12C204.894 93.32 210.734 99.08 217.854 99.08C225.054 99.08 230.814 93.32 230.814 86.12C230.814 79 225.054 73.24 217.854 73.24ZM217.854 93.32C213.934 93.32 210.654 90.12 210.654 86.12C210.654 82.2 213.934 79 217.854 79C221.854 79 225.054 82.2 225.054 86.12C225.054 90.12 221.854 93.32 217.854 93.32Z"
            fill="white" />
        <path
            d="M248.569 109.836C247.106 109.836 246.138 108.316 246.741 106.983C248.22 103.715 249.306 101.111 250 99.1719C250.885 96.6979 251.706 93.8464 252.461 90.6172C253.216 87.388 253.776 84.3281 254.141 81.4375C254.505 78.5208 254.688 75.5391 254.688 72.4922C254.688 66.2943 254.023 60.4349 252.695 54.9141C251.529 50.0435 249.5 44.2695 246.607 37.5919C246.029 36.2588 246.998 34.7578 248.451 34.7578H251.773C252.425 34.7578 253.037 35.0743 253.404 35.6125C257.052 40.96 259.901 46.6126 261.953 52.5703C264.141 58.8464 265.234 65.2135 265.234 71.6719C265.234 77.1146 264.375 82.9479 262.656 89.1719C260.79 95.842 257.769 102.429 253.595 108.933C253.232 109.498 252.603 109.836 251.931 109.836H248.569Z"
            fill="url(#paint2_linear_517_18)" />
        <ellipse cx="81.2754" cy="64.7921" rx="12.2754" ry="11.7921" fill="#AAA2EC" />
        <circle cx="81.6622" cy="66.5318" r="7.73253" fill="#DCD9F7" fill-opacity="0.6" />
        <circle cx="82.6302" cy="67.4983" r="2.8997" fill="#7569E1" fill-opacity="0.4" />
        <circle cx="76.8316" cy="59.7661" r="1.93313" fill="white" fill-opacity="0.8" />
        <ellipse cx="188.275" cy="64.79" rx="12.275" ry="11.79" fill="#23197D" />
        <ellipse cx="186.707" cy="66.6257" rx="7.67188" ry="7.73115" fill="#7569E1" />
        <ellipse cx="187.666" cy="67.592" rx="2.87695" ry="2.89918" fill="#23197D" />
        <ellipse cx="181.91" cy="59.861" rx="1.91797" ry="1.93279" fill="white" fill-opacity="0.8" />
    </g>
    <defs>
        <filter id="filter0_d_517_18" x="0.179688" y="0" width="320.16" height="117.836" filterUnits="userSpaceOnUse"
            color-interpolation-filters="sRGB">
            <feFlood flood-opacity="0" result="BackgroundImageFix" />
            <feColorMatrix in="SourceAlpha" type="matrix" values="0 0 0 0 0 0 0 0 0 0 0 0 0 0 0 0 0 0 127 0"
                result="hardAlpha" />
            <feOffset dy="4" />
            <feGaussianBlur stdDeviation="2" />
            <feComposite in2="hardAlpha" operator="out" />
            <feColorMatrix type="matrix" values="0 0 0 0 0 0 0 0 0 0 0 0 0 0 0 0 0 0 0.25 0" />
            <feBlend mode="normal" in2="BackgroundImageFix" result="effect1_dropShadow_517_18" />
            <feBlend mode="normal" in="SourceGraphic" in2="effect1_dropShadow_517_18" result="shape" />
        </filter>
        <linearGradient id="paint0_linear_517_18" x1="293.402" y1="7.24219" x2="293.402" y2="57.2422"
            gradientUnits="userSpaceOnUse">
            <stop stop-color="#070519" />
            <stop offset="1" stop-color="#7569E1" />
        </linearGradient>
        <linearGradient id="paint1_linear_517_18" x1="134.707" y1="21.6328" x2="134.707" y2="109.836"
            gradientUnits="userSpaceOnUse">
            <stop stop-color="#DCD9F7" stop-opacity="0.6" />
            <stop offset="1" stop-color="white" stop-opacity="0" />
        </linearGradient>
        <linearGradient id="paint2_linear_517_18" x1="134.707" y1="21.6328" x2="134.707" y2="109.836"
            gradientUnits="userSpaceOnUse">
            <stop stop-color="#DCD9F7" stop-opacity="0.6" />
            <stop offset="1" stop-color="white" stop-opacity="0" />
        </linearGradient>
    </defs>
</svg>