<svg xmlns="http://www.w3.org/2000/svg" width="414" height="123" fill="none" viewBox="0 0 295 110"><path fill="#DCD9F7" d="M247.781 37.2022C247.781 34.7489 248.448 33.0422 249.781 32.0822C251.115 31.0689 252.741 30.5622 254.661 30.5622C256.528 30.5622 258.128 31.0689 259.461 32.0822C260.795 33.0422 261.461 34.7489 261.461 37.2022C261.461 39.5489 260.795 41.2555 259.461 42.3222C258.128 43.3355 256.528 43.8422 254.661 43.8422C252.741 43.8422 251.115 43.3355 249.781 42.3222C248.448 41.2555 247.781 39.5489 247.781 37.2022Z"/><path fill="url(#paint0_linear_507_313)" d="M267.049 14.6875C267.049 10.0521 268.273 6.44531 270.721 3.86719C273.195 1.28906 276.489 0 280.604 0C284.693 0 287.974 1.30208 290.448 3.90625C292.922 6.48438 294.159 10.0781 294.159 14.6875C294.159 19.2969 292.922 22.8906 290.448 25.4688C288 28.0469 284.719 29.3359 280.604 29.3359C276.489 29.3359 273.195 28.0599 270.721 25.5078C268.273 22.9297 267.049 19.3229 267.049 14.6875ZM275.292 14.7656C275.292 17.6302 275.773 19.6745 276.737 20.8984C277.7 22.0964 278.95 22.6953 280.487 22.6953C282.023 22.6953 283.273 22.0964 284.237 20.8984C285.226 19.6745 285.721 17.6302 285.721 14.7656C285.721 11.901 285.226 9.86979 284.237 8.67188C283.273 7.44792 282.023 6.83594 280.487 6.83594C278.95 6.83594 277.7 7.4349 276.737 8.63281C275.773 9.83073 275.292 11.875 275.292 14.7656Z"/><path fill="url(#paint1_linear_507_313)" d="M18.4737 98.9911C19.0689 100.323 18.1011 101.836 16.6421 101.836H13.3008C12.63 101.836 12.0022 101.5 11.639 100.936C7.94268 95.1979 5.10469 89.2477 3.125 83.0859C1.04167 76.6016 0 70.3255 0 64.2578C0 56.7318 1.28906 49.6094 3.86719 42.8906C5.97716 37.3949 8.61877 32.3036 11.792 27.6169C12.1583 27.0759 12.7721 26.7578 13.4255 26.7578H16.7836C18.2364 26.7578 19.2052 28.2588 18.6272 29.5917C15.7315 36.2694 13.6891 42.0435 12.5 46.9141C11.1719 52.4349 10.5078 58.2943 10.5078 64.4922C10.5078 68.763 10.8984 73.138 11.6797 77.6172C12.487 82.0964 13.5807 86.3542 14.9609 90.3906C15.6901 92.5157 16.861 95.3825 18.4737 98.9911Z"/><path fill="url(#paint2_linear_507_313)" d="M41.9236 109.258C40.8184 109.258 39.9226 108.361 39.9236 107.256L39.9592 66.1424C39.9602 65.0371 39.0644 64.1406 37.9592 64.1406H23.5625C22.4579 64.1406 21.5625 63.2452 21.5625 62.1406V59.3047C21.5625 58.2001 22.4579 57.3047 23.5625 57.3047H78C79.1046 57.3047 80 58.2001 80 59.3047V62.1406C80 63.2452 79.1046 64.1406 78 64.1406H63.6016C62.497 64.1406 61.6016 65.0361 61.6016 66.1406V107.258C61.6016 108.362 60.7061 109.258 59.6016 109.258H56.7656C55.6611 109.258 54.7656 108.362 54.7656 107.258V66.7266C54.7656 65.622 53.8702 64.7266 52.7656 64.7266H48.7578C47.6532 64.7266 46.7578 65.622 46.7578 66.7266V107.258C46.7578 108.362 45.8624 109.258 44.7578 109.258H41.9236Z"/><path fill="#EDD68D" d="M81.1641 81.6987C80.0843 81.466 79.1797 82.3754 79.1797 83.48V85.8C79.1797 86.9046 80.0871 87.784 81.1584 88.0528C82.3865 88.361 83.6413 88.9388 85.0997 89.72C86.8597 90.68 89.5797 92.36 92.5397 92.36C95.4197 92.36 97.4997 91.16 100.22 89.72C101.26 89.08 103.02 87.8 105.82 87.8C108.62 87.8 110.46 89.08 111.5 89.72C114.14 91.16 116.22 92.36 119.18 92.36C122.14 92.36 124.78 90.76 126.62 89.72C128.86 88.52 130.62 87.8 132.46 87.8C134.3 87.8 136.06 88.52 138.3 89.72C140.14 90.68 142.78 92.36 145.74 92.36C148.7 92.36 150.78 91.16 153.42 89.72C154.192 89.2444 155.451 88.4155 157.196 88.0209C158.273 87.7773 159.18 86.9046 159.18 85.8V83.48C159.18 82.3754 158.275 81.4569 157.191 81.6697C154.878 82.1239 153.259 83.2972 151.74 84.12C149.5 85.32 147.66 86.04 145.74 86.04C143.82 86.04 141.02 84.76 139.9 84.12C137.9 82.92 135.34 81.48 132.46 81.48C129.58 81.48 127.02 82.92 125.02 84.12C123.9 84.76 121.1 86.04 119.18 86.04C117.26 86.04 115.42 85.32 113.18 84.12C111.26 83.08 109.34 81.48 105.82 81.48C102.38 81.48 100.38 83.08 98.5397 84.12C96.2997 85.32 94.4597 86.04 92.5397 86.04C90.5397 86.04 87.8197 84.76 86.6997 84.12C85.1108 83.2033 83.2418 82.1466 81.1641 81.6987Z"/><path fill="url(#paint3_linear_507_313)" d="M178.642 109.258C177.537 109.258 176.641 108.361 176.642 107.256L176.678 66.1424C176.679 65.0371 175.783 64.1406 174.678 64.1406H160.281C159.177 64.1406 158.281 63.2452 158.281 62.1406V59.3047C158.281 58.2001 159.177 57.3047 160.281 57.3047H214.719C215.823 57.3047 216.719 58.2001 216.719 59.3047V62.1406C216.719 63.2452 215.823 64.1406 214.719 64.1406H200.32C199.216 64.1406 198.32 65.0361 198.32 66.1406V107.258C198.32 108.362 197.425 109.258 196.32 109.258H193.484C192.38 109.258 191.484 108.362 191.484 107.258V66.7266C191.484 65.622 190.589 64.7266 189.484 64.7266H185.477C184.372 64.7266 183.477 65.622 183.477 66.7266V107.258C183.477 108.362 182.581 109.258 181.477 109.258H178.642Z"/><path fill="url(#paint4_linear_507_313)" d="M221.733 101.836C220.27 101.836 219.302 100.316 219.905 98.9833C221.384 95.7152 222.47 93.1114 223.164 91.1719C224.049 88.6979 224.87 85.8464 225.625 82.6172C226.38 79.388 226.94 76.3281 227.305 73.4375C227.669 70.5208 227.852 67.5391 227.852 64.4922C227.852 58.2943 227.188 52.4349 225.859 46.9141C224.693 42.0435 222.664 36.2695 219.771 29.5919C219.193 28.2588 220.162 26.7578 221.615 26.7578H224.937C225.589 26.7578 226.201 27.0743 226.568 27.6125C230.216 32.96 233.065 38.6126 235.117 44.5703C237.305 50.8464 238.398 57.2135 238.398 63.6719C238.398 69.1146 237.539 74.9479 235.82 81.1719C233.954 87.842 230.933 94.4289 226.759 100.933C226.396 101.498 225.767 101.836 225.095 101.836H221.733Z"/><defs><linearGradient id="paint0_linear_507_313" x1="271.223" x2="271.223" y1="7.242" y2="57.242" gradientUnits="userSpaceOnUse"><stop stop-color="#070519"/><stop offset="1" stop-color="#7569E1"/></linearGradient><linearGradient id="paint1_linear_507_313" x1="119.199" x2="119.199" y1="26.758" y2="109.258" gradientUnits="userSpaceOnUse"><stop stop-color="#DCD9F7" stop-opacity=".6"/><stop offset="1" stop-color="#fff" stop-opacity="0"/></linearGradient><linearGradient id="paint2_linear_507_313" x1="50.82" x2="50.82" y1="57.5" y2="109" gradientUnits="userSpaceOnUse"><stop stop-color="#fff"/><stop offset="1" stop-color="#C5C5C5"/></linearGradient><linearGradient id="paint3_linear_507_313" x1="187.82" x2="187.82" y1="57.5" y2="111" gradientUnits="userSpaceOnUse"><stop stop-color="#fff"/><stop offset="1" stop-color="#CBCBCB"/></linearGradient><linearGradient id="paint4_linear_507_313" x1="119.199" x2="119.199" y1="26.758" y2="109.258" gradientUnits="userSpaceOnUse"><stop stop-color="#DCD9F7" stop-opacity=".6"/><stop offset="1" stop-color="#fff" stop-opacity="0"/></linearGradient></defs></svg>
