<svg xmlns="http://www.w3.org/2000/svg" width="321" height="118" fill="none" viewBox="0 0 321 118"><g filter="url(#filter0_d_517_18)"><path fill="#DCD9F7" d="M269.781 37.2022C269.781 34.7489 270.448 33.0422 271.781 32.0822C273.115 31.0689 274.741 30.5622 276.661 30.5622C278.528 30.5622 280.128 31.0689 281.461 32.0822C282.795 33.0422 283.461 34.7489 283.461 37.2022C283.461 39.5489 282.795 41.2555 281.461 42.3222C280.128 43.3355 278.528 43.8422 276.661 43.8422C274.741 43.8422 273.115 43.3355 271.781 42.3222C270.448 41.2555 269.781 39.5489 269.781 37.2022Z"/><path fill="url(#paint0_linear_517_18)" d="M289.049 14.6875C289.049 10.0521 290.273 6.44531 292.721 3.86719C295.195 1.28906 298.489 0 302.604 0C306.693 0 309.974 1.30208 312.448 3.90625C314.922 6.48438 316.159 10.0781 316.159 14.6875C316.159 19.2969 314.922 22.8906 312.448 25.4688C310 28.0469 306.719 29.3359 302.604 29.3359C298.489 29.3359 295.195 28.0599 292.721 25.5078C290.273 22.9297 289.049 19.3229 289.049 14.6875ZM297.292 14.7656C297.292 17.6302 297.773 19.6745 298.737 20.8984C299.7 22.0964 300.95 22.6953 302.487 22.6953C304.023 22.6953 305.273 22.0964 306.237 20.8984C307.226 19.6745 307.721 17.6302 307.721 14.7656C307.721 11.901 307.226 9.86979 306.237 8.67188C305.273 7.44792 304.023 6.83594 302.487 6.83594C300.95 6.83594 299.7 7.4349 298.737 8.63281C297.773 9.83073 297.292 11.875 297.292 14.7656Z"/><path fill="url(#paint1_linear_517_18)" d="M22.4737 106.991C23.0689 108.323 22.1011 109.836 20.6421 109.836H17.3008C16.63 109.836 16.0022 109.5 15.639 108.936C11.9427 103.198 9.10469 97.2477 7.125 91.0859C5.04167 84.6016 4 78.3255 4 72.2578C4 64.7318 5.28906 57.6094 7.86719 50.8906C9.97716 45.3949 12.6188 40.3036 15.792 35.6169C16.1583 35.0759 16.7721 34.7578 17.4255 34.7578H20.7836C22.2364 34.7578 23.2052 36.2588 22.6272 37.5917C19.7315 44.2694 17.6891 50.0435 16.5 54.9141C15.1719 60.4349 14.5078 66.2943 14.5078 72.4922C14.5078 76.763 14.8984 81.138 15.6797 85.6172C16.487 90.0964 17.5807 94.3542 18.9609 98.3906C19.6901 100.516 20.861 103.383 22.4737 106.991Z"/><path fill="#fff" d="M41.5809 73.24C34.4609 73.24 28.6209 79 28.6209 86.12C28.6209 93.32 34.4609 99.08 41.5809 99.08C48.7809 99.08 54.5409 93.32 54.5409 86.12C54.5409 79 48.7809 73.24 41.5809 73.24ZM41.5809 93.32C37.6609 93.32 34.3809 90.12 34.3809 86.12C34.3809 82.2 37.6609 79 41.5809 79C45.5809 79 48.7809 82.2 48.7809 86.12C48.7809 90.12 45.5809 93.32 41.5809 93.32Z"/><path fill="#fff" d="M92.125 64.7188C92.125 67.9219 90.9922 70.6562 88.7266 72.9219C86.487 75.1615 83.7786 76.2812 80.6016 76.2812C77.3984 76.2812 74.6641 75.1484 72.3984 72.8828C70.1589 70.6172 69.0391 67.8958 69.0391 64.7188C69.0391 61.5417 70.1589 58.8333 72.3984 56.5938C74.6641 54.3281 77.3984 53.1953 80.6016 53.1953C83.7786 53.1953 86.487 54.3151 88.7266 56.5547C90.9922 58.7943 92.125 61.5156 92.125 64.7188Z"/><path fill="#fff" d="M81.0986 32.6484C79.6419 32.6484 78.6739 31.1411 79.2799 29.8165L82.4891 22.8008C82.8147 22.0892 83.5253 21.6328 84.3079 21.6328H90.6922C92.446 21.6328 93.3505 23.7294 92.1471 25.0052L85.5295 32.0208C85.1517 32.4214 84.6254 32.6484 84.0747 32.6484H81.0986Z"/><path fill="#EDD68D" d="M99.2035 96.2283C99.6801 97.3518 101.043 97.7901 102.085 97.1551L133.466 78.0348C134.106 77.645 134.91 77.6454 135.549 78.0359L166.85 97.1518C167.892 97.7883 169.256 97.3503 169.733 96.2261L171.513 92.0302C171.901 91.1168 171.56 90.0574 170.713 89.5412L135.547 68.1135C134.909 67.7244 134.107 67.724 133.468 68.1125L98.2251 89.5417C97.3768 90.0575 97.0353 91.1177 97.4231 92.0317L99.2035 96.2283Z"/><path fill="#fff" d="M200.172 64.7188C200.172 67.9219 199.039 70.6562 196.773 72.9219C194.534 75.1615 191.826 76.2812 188.648 76.2812C185.445 76.2812 182.711 75.1484 180.445 72.8828C178.206 70.6172 177.086 67.8958 177.086 64.7188C177.086 61.5417 178.206 58.8333 180.445 56.5938C182.711 54.3281 185.445 53.1953 188.648 53.1953C191.826 53.1953 194.534 54.3151 196.773 56.5547C199.039 58.7943 200.172 61.5156 200.172 64.7188Z"/><path fill="#fff" d="M195.716 29.7693C196.366 31.0981 195.399 32.6484 193.92 32.6484H191.052C190.514 32.6484 189.999 32.4318 189.623 32.0474L182.756 25.0317C181.517 23.7657 182.414 21.6328 184.186 21.6328H190.486C191.25 21.6328 191.947 22.0677 192.283 22.7537L195.716 29.7693Z"/><path fill="#fff" d="M217.675 73.24C210.555 73.24 204.715 79 204.715 86.12C204.715 93.32 210.555 99.08 217.675 99.08C224.875 99.08 230.635 93.32 230.635 86.12C230.635 79 224.875 73.24 217.675 73.24ZM217.675 93.32C213.755 93.32 210.475 90.12 210.475 86.12C210.475 82.2 213.755 79 217.675 79C221.675 79 224.875 82.2 224.875 86.12C224.875 90.12 221.675 93.32 217.675 93.32Z"/><path fill="url(#paint2_linear_517_18)" d="M248.389 109.836C246.926 109.836 245.958 108.316 246.561 106.983C248.04 103.715 249.126 101.111 249.82 99.1719C250.706 96.6979 251.526 93.8464 252.281 90.6172C253.036 87.388 253.596 84.3281 253.961 81.4375C254.326 78.5208 254.508 75.5391 254.508 72.4922C254.508 66.2943 253.844 60.4349 252.516 54.9141C251.349 50.0435 249.32 44.2695 246.427 37.5919C245.849 36.2588 246.818 34.7578 248.271 34.7578H251.593C252.245 34.7578 252.857 35.0743 253.224 35.6125C256.872 40.96 259.722 46.6126 261.773 52.5703C263.961 58.8464 265.055 65.2135 265.055 71.6719C265.055 77.1146 264.195 82.9479 262.477 89.1719C260.61 95.842 257.59 102.429 253.416 108.933C253.052 109.498 252.423 109.836 251.751 109.836H248.389Z"/><ellipse cx="81.096" cy="64.792" fill="#AAA2EC" rx="12.275" ry="11.792"/><circle cx="81.483" cy="66.532" r="7.733" fill="#DCD9F7" fill-opacity=".6"/><circle cx="82.451" cy="67.498" r="2.9" fill="#7569E1" fill-opacity=".4"/><circle cx="76.652" cy="59.766" r="1.933" fill="#fff" fill-opacity=".8"/><ellipse cx="188.095" cy="64.79" fill="#23197D" rx="12.275" ry="11.79"/><ellipse cx="186.527" cy="66.626" fill="#7569E1" rx="7.672" ry="7.731"/><ellipse cx="187.486" cy="67.592" fill="#23197D" rx="2.877" ry="2.899"/><ellipse cx="181.73" cy="59.861" fill="#fff" fill-opacity=".8" rx="1.918" ry="1.933"/><path fill="#FFD9D9" fill-opacity=".6" d="M33.7943 105.368C33.5545 105.792 33.1048 106.055 32.6173 106.055C31.5823 106.055 30.9312 104.939 31.4404 104.038L46.8854 76.7025C47.1252 76.2781 47.5749 76.0156 48.0623 76.0156C49.0974 76.0156 49.7485 77.1313 49.2393 78.0325L33.7943 105.368Z"/><path fill="#FFD9D9" fill-opacity=".6" d="M51.6068 105.368C51.367 105.792 50.9173 106.055 50.4298 106.055C49.3948 106.055 48.7437 104.939 49.2529 104.038L64.6979 76.7025C64.9377 76.2781 65.3874 76.0156 65.8748 76.0156C66.9099 76.0156 67.561 77.1313 67.0518 78.0325L51.6068 105.368Z"/><path fill="#FFD9D9" fill-opacity=".6" d="M69.4193 105.368C69.1795 105.792 68.7298 106.055 68.2423 106.055C67.2073 106.055 66.5562 104.939 67.0654 104.038L82.5104 76.7025C82.7502 76.2781 83.1999 76.0156 83.6873 76.0156C84.7224 76.0156 85.3735 77.1313 84.8643 78.0325L69.4193 105.368Z"/><path fill="#FFD9D9" fill-opacity=".6" d="M172.896 105.368C172.656 105.792 172.206 106.055 171.719 106.055C170.684 106.055 170.033 104.939 170.542 104.038L185.987 76.7025C186.227 76.2781 186.676 76.0156 187.164 76.0156C188.199 76.0156 188.85 77.1313 188.341 78.0325L172.896 105.368Z"/><path fill="#FFD9D9" fill-opacity=".6" d="M190.708 105.368C190.469 105.792 190.019 106.055 189.531 106.055C188.496 106.055 187.845 104.939 188.354 104.038L203.799 76.7025C204.039 76.2781 204.489 76.0156 204.976 76.0156C206.011 76.0156 206.663 77.1313 206.153 78.0325L190.708 105.368Z"/><path fill="#FFD9D9" fill-opacity=".6" d="M208.521 105.368C208.281 105.792 207.831 106.055 207.344 106.055C206.309 106.055 205.658 104.939 206.167 104.038L221.612 76.7025C221.852 76.2781 222.301 76.0156 222.789 76.0156C223.824 76.0156 224.475 77.1313 223.966 78.0325L208.521 105.368Z"/></g><defs><filter id="filter0_d_517_18" width="320.16" height="117.836" x="0" y="0" color-interpolation-filters="sRGB" filterUnits="userSpaceOnUse"><feFlood flood-opacity="0" result="BackgroundImageFix"/><feColorMatrix in="SourceAlpha" result="hardAlpha" type="matrix" values="0 0 0 0 0 0 0 0 0 0 0 0 0 0 0 0 0 0 127 0"/><feOffset dy="4"/><feGaussianBlur stdDeviation="2"/><feComposite in2="hardAlpha" operator="out"/><feColorMatrix type="matrix" values="0 0 0 0 0 0 0 0 0 0 0 0 0 0 0 0 0 0 0.25 0"/><feBlend in2="BackgroundImageFix" mode="normal" result="effect1_dropShadow_517_18"/><feBlend in="SourceGraphic" in2="effect1_dropShadow_517_18" mode="normal" result="shape"/></filter><linearGradient id="paint0_linear_517_18" x1="293.223" x2="293.223" y1="7.242" y2="57.242" gradientUnits="userSpaceOnUse"><stop stop-color="#070519"/><stop offset="1" stop-color="#7569E1"/></linearGradient><linearGradient id="paint1_linear_517_18" x1="134.527" x2="134.527" y1="21.633" y2="109.836" gradientUnits="userSpaceOnUse"><stop stop-color="#DCD9F7" stop-opacity=".6"/><stop offset="1" stop-color="#fff" stop-opacity="0"/></linearGradient><linearGradient id="paint2_linear_517_18" x1="134.527" x2="134.527" y1="21.633" y2="109.836" gradientUnits="userSpaceOnUse"><stop stop-color="#DCD9F7" stop-opacity=".6"/><stop offset="1" stop-color="#fff" stop-opacity="0"/></linearGradient></defs></svg>
