<svg xmlns="http://www.w3.org/2000/svg" width="387" height="114" fill="none" viewBox="0 0 387 114"><g filter="url(#filter0_d_507_318)"><path fill="#DCD9F7" d="M275.602 37.2022C275.602 34.7489 276.268 33.0422 277.602 32.0822C278.935 31.0689 280.562 30.5622 282.482 30.5622C284.348 30.5622 285.948 31.0689 287.282 32.0822C288.615 33.0422 289.282 34.7489 289.282 37.2022C289.282 39.5489 288.615 41.2555 287.282 42.3222C285.948 43.3355 284.348 43.8422 282.482 43.8422C280.562 43.8422 278.935 43.3355 277.602 42.3222C276.268 41.2555 275.602 39.5489 275.602 37.2022Z"/><path fill="url(#paint0_linear_507_318)" d="M294.87 14.6875C294.87 10.0521 296.094 6.44531 298.542 3.86719C301.016 1.28906 304.31 0 308.424 0C312.513 0 315.794 1.30208 318.268 3.90625C320.742 6.48438 321.979 10.0781 321.979 14.6875C321.979 19.2969 320.742 22.8906 318.268 25.4688C315.82 28.0469 312.539 29.3359 308.424 29.3359C304.31 29.3359 301.016 28.0599 298.542 25.5078C296.094 22.9297 294.87 19.3229 294.87 14.6875ZM303.112 14.7656C303.112 17.6302 303.594 19.6745 304.557 20.8984C305.521 22.0964 306.771 22.6953 308.307 22.6953C309.844 22.6953 311.094 22.0964 312.057 20.8984C313.047 19.6745 313.542 17.6302 313.542 14.7656C313.542 11.901 313.047 9.86979 312.057 8.67188C311.094 7.44792 309.844 6.83594 308.307 6.83594C306.771 6.83594 305.521 7.4349 304.557 8.63281C303.594 9.83073 303.112 11.875 303.112 14.7656Z"/><path fill="url(#paint1_linear_507_318)" d="M22.4737 101.991C23.0689 103.323 22.1011 104.836 20.6421 104.836H17.3008C16.63 104.836 16.0022 104.5 15.639 103.936C11.9427 98.1979 9.10469 92.2477 7.125 86.0859C5.04167 79.6016 4 73.3255 4 67.2578C4 59.7318 5.28906 52.6094 7.86719 45.8906C9.97716 40.3949 12.6188 35.3036 15.792 30.6169C16.1583 30.0759 16.7721 29.7578 17.4255 29.7578H20.7836C22.2364 29.7578 23.2052 31.2588 22.6272 32.5917C19.7315 39.2694 17.6891 45.0435 16.5 49.9141C15.1719 55.4349 14.5078 61.2943 14.5078 67.4922C14.5078 71.763 14.8984 76.138 15.6797 80.6172C16.487 85.0964 17.5807 89.3542 18.9609 93.3906C19.6901 95.5157 20.861 98.3825 22.4737 101.991Z"/><path fill="#fff" d="M63.9004 90.6796C62.9736 90.7246 62.2209 89.9678 62.2209 89.04C62.2209 88.1122 62.9738 87.3651 63.9003 87.3157C67.2163 87.139 70.3365 86.4338 73.2609 85.2C76.6743 83.7067 79.6609 81.68 82.2209 79.12C84.8343 76.5067 86.8609 73.4933 88.3009 70.08C89.5804 67.1555 90.3117 64.0353 90.495 60.7193C90.5462 59.7929 91.2931 59.04 92.2209 59.04C93.1488 59.04 93.9056 59.7927 93.8597 60.7194C93.6739 64.4686 92.861 68.0154 91.4209 71.36C89.8209 75.2 87.5543 78.5867 84.6209 81.52C81.7409 84.4 78.3809 86.64 74.5409 88.24C71.2376 89.6823 67.6907 90.4955 63.9004 90.6796Z"/><path fill="#fff" d="M210.268 89.04C210.268 89.9678 209.515 90.7246 208.588 90.6787C204.839 90.4929 201.292 89.68 197.948 88.24C194.108 86.64 190.721 84.4 187.788 81.52C184.908 78.5867 182.641 75.2 180.988 71.36C179.594 68.0154 178.808 64.4686 178.628 60.7194C178.583 59.7927 179.34 59.04 180.268 59.04C181.196 59.04 181.943 59.7929 181.992 60.7194C182.169 64.0353 182.874 67.1555 184.108 70.08C185.601 73.4933 187.628 76.5067 190.188 79.12C192.801 81.68 195.814 83.7067 199.228 85.2C202.152 86.4338 205.272 87.139 208.588 87.3157C209.515 87.3651 210.268 88.1122 210.268 89.04Z"/><path fill="url(#paint2_linear_507_318)" d="M251.827 104.836C250.364 104.836 249.396 103.316 249.999 101.983C251.477 98.7152 252.564 96.1114 253.258 94.1719C254.143 91.6979 254.964 88.8464 255.719 85.6172C256.474 82.388 257.034 79.3281 257.398 76.4375C257.763 73.5208 257.945 70.5391 257.945 67.4922C257.945 61.2943 257.281 55.4349 255.953 49.9141C254.787 45.0435 252.757 39.2695 249.864 32.5919C249.287 31.2588 250.256 29.7578 251.709 29.7578H255.031C255.683 29.7578 256.295 30.0743 256.662 30.6125C260.309 35.96 263.159 41.6126 265.211 47.5703C267.398 53.8464 268.492 60.2135 268.492 66.6719C268.492 72.1146 267.633 77.9479 265.914 84.1719C264.047 90.842 261.027 97.4289 256.853 103.933C256.49 104.498 255.861 104.836 255.188 104.836H251.827Z"/><path fill="#fff" fill-opacity=".5" d="M291.446 77.7667L293.756 66.5087L288.939 67.9918L287.668 63.8631L299.595 60.1907L297.286 71.4487L302.103 69.9657L303.374 74.0944L291.446 77.7667Z"/><path fill="#fff" fill-opacity=".5" d="M323.392 67.931L326.471 52.9203L320.049 54.8977L318.354 49.3927L334.257 44.4963L331.178 59.507L337.6 57.5295L339.295 63.0345L323.392 67.931Z"/><path fill="#fff" fill-opacity=".5" d="M362.981 55.7417L366.831 36.9784L358.802 39.4501L356.684 32.5689L376.563 26.4483L372.714 45.2117L380.742 42.7399L382.861 49.6212L362.981 55.7417Z"/><path fill="#fff" d="M134.266 106C133.161 106 132.266 105.105 132.266 104V99.9922C132.266 98.8876 133.161 97.9922 134.266 97.9922H138.273C139.378 97.9922 140.273 98.8876 140.273 99.9922V104C140.273 105.105 139.378 106 138.273 106H134.266Z"/></g><defs><filter id="filter0_d_507_318" width="386.859" height="114" x="0" y="0" color-interpolation-filters="sRGB" filterUnits="userSpaceOnUse"><feFlood flood-opacity="0" result="BackgroundImageFix"/><feColorMatrix in="SourceAlpha" result="hardAlpha" type="matrix" values="0 0 0 0 0 0 0 0 0 0 0 0 0 0 0 0 0 0 127 0"/><feOffset dy="4"/><feGaussianBlur stdDeviation="2"/><feComposite in2="hardAlpha" operator="out"/><feColorMatrix type="matrix" values="0 0 0 0 0 0 0 0 0 0 0 0 0 0 0 0 0 0 0.25 0"/><feBlend in2="BackgroundImageFix" mode="normal" result="effect1_dropShadow_507_318"/><feBlend in="SourceGraphic" in2="effect1_dropShadow_507_318" mode="normal" result="shape"/></filter><linearGradient id="paint0_linear_507_318" x1="299.043" x2="299.043" y1="7.242" y2="57.242" gradientUnits="userSpaceOnUse"><stop stop-color="#070519"/><stop offset="1" stop-color="#7569E1"/></linearGradient><linearGradient id="paint1_linear_507_318" x1="136.246" x2="136.246" y1="29.758" y2="104.836" gradientUnits="userSpaceOnUse"><stop stop-color="#DCD9F7" stop-opacity=".6"/><stop offset="1" stop-color="#fff" stop-opacity="0"/></linearGradient><linearGradient id="paint2_linear_507_318" x1="136.246" x2="136.246" y1="29.758" y2="104.836" gradientUnits="userSpaceOnUse"><stop stop-color="#DCD9F7" stop-opacity=".6"/><stop offset="1" stop-color="#fff" stop-opacity="0"/></linearGradient></defs></svg>
